<svg width="420" height="114" viewBox="0 0 420 114" fill="none" xmlns="http://www.w3.org/2000/svg">
<g clip-path="url(#clip0)">
<path d="M80.2501 65.66C77.8619 64.9315 75.8414 63.3198 74.6002 61.1534C73.359 58.9869 72.9906 56.4287 73.5701 54L79.9301 54.82C79.9301 54.82 82.3701 54.93 82.2801 59.25C82.312 61.5496 81.5999 63.7979 80.2501 65.66V65.66Z" fill="#009FE3"/>
<path d="M85.9299 65.66C88.3181 64.9315 90.3387 63.3198 91.5798 61.1534C92.821 58.9869 93.1894 56.4287 92.6099 54L86.2499 54.82C86.2499 54.82 83.8099 54.93 83.8999 59.25C83.8688 61.5495 84.5807 63.7976 85.9299 65.66Z" fill="#009FE3"/>
<path d="M83.0902 49.2795C83.4827 49.2795 83.8591 49.4355 84.1367 49.713C84.4142 49.9906 84.5702 50.367 84.5702 50.7595C84.5506 51.0629 84.4466 51.3548 84.2699 51.6022C84.0932 51.8496 83.8508 52.0427 83.5702 52.1595C83.5102 52.1595 83.4402 52.2195 83.4602 52.3295C83.4802 52.4395 83.7802 52.4895 83.9102 52.5195L92.4602 53.5195C91.8587 51.4965 90.6195 49.722 88.9274 48.4605C87.2352 47.1991 85.1808 46.5182 83.0702 46.5195V46.5195C80.96 46.5199 78.9063 47.2013 77.2144 48.4625C75.5226 49.7237 74.2831 51.4973 73.6802 53.5195L82.2302 52.5195C82.3602 52.5195 82.6602 52.4395 82.6802 52.3295C82.7002 52.2195 82.6802 52.1995 82.5702 52.1595C82.2895 52.0427 82.0471 51.8496 81.8704 51.6022C81.6937 51.3548 81.5897 51.0629 81.5702 50.7595C81.5728 50.3661 81.731 49.9897 82.0101 49.7124C82.2893 49.4351 82.6667 49.2795 83.0602 49.2795H83.0902Z" fill="#009FE3"/>
<path d="M86.9999 72.5898L87.5799 72.2298C87.5799 72.2298 84.8299 68.5098 78.6899 68.5098C75.5499 68.5098 73.9199 69.7698 71.6899 69.7698C71.0696 69.8133 70.4511 69.6631 69.9199 69.3398C69.9199 69.3398 70.9699 70.8598 74.7699 70.8598C77.5499 70.8598 79.5399 69.2298 81.4899 69.2298C84.1799 69.2298 86.1599 71.6098 86.9999 72.5898Z" fill="#009FE3"/>
<path d="M78.4599 72.5898L77.8799 72.2298C77.8799 72.2298 80.6299 68.5098 86.7699 68.5098C89.9099 68.5098 91.5399 69.7698 93.7699 69.7698C94.3902 69.8133 95.0087 69.6631 95.5399 69.3398C95.5399 69.3398 94.4899 70.8598 90.6899 70.8598C87.9099 70.8598 85.9199 69.2298 83.9699 69.2298C81.2899 69.2298 79.2899 71.6098 78.4599 72.5898Z" fill="#009FE3"/>
<path d="M75.5301 68.1802C75.4201 68.4702 74.2501 68.1302 73.4501 68.3602C71.9082 68.7292 70.2849 68.5274 68.8804 67.792C67.4759 67.0567 66.3852 65.8376 65.8101 64.3602C65.8101 64.3602 67.8101 66.4602 69.2801 66.6002C70.8831 66.7137 72.4456 67.1562 73.8701 67.9002L74.2001 67.9702C74.1669 67.881 74.1031 67.8066 74.0201 67.7602C73.4289 67.4969 72.9081 67.098 72.4998 66.5959C72.0915 66.0938 71.8073 65.5026 71.6701 64.8702C71.4665 63.991 71.3228 63.0989 71.2401 62.2002C72.0555 63.0764 72.8043 64.0123 73.4801 65.0002C74.1301 66.1602 74.2001 67.4202 75.5301 68.1802Z" fill="#009FE3"/>
<path d="M70.75 65.7197C70.63 65.8397 70.33 65.6496 70.22 65.5896C70.11 65.5296 69.33 65.1796 68 64.7096C66.8491 64.1841 65.8902 63.3137 65.256 62.219C64.6217 61.1243 64.3436 59.8594 64.46 58.5996C64.7093 59.4468 65.1786 60.2127 65.82 60.8196C66.5319 61.3381 67.2007 61.9134 67.82 62.5396C68.43 63.2596 69.82 64.9096 69.88 64.8896C69.94 64.8696 69.95 64.7797 69.88 64.6897C69.81 64.5997 69.41 63.6896 69.18 63.3896C68.8563 62.5934 68.6974 61.7398 68.7129 60.8804C68.7284 60.0211 68.9179 59.1737 69.27 58.3896C69.9094 59.5589 70.2528 60.867 70.27 62.1996C70.0867 63.2286 70.1941 64.2883 70.58 65.2597C70.58 65.2597 70.8 65.6697 70.75 65.7197Z" fill="#009FE3"/>
<path d="M67.6699 61.0798C67.5999 61.1498 67.3199 60.7298 67.1099 60.3598C66.8999 59.9898 65.3699 58.3598 65.1799 58.0298C64.5988 57.2616 64.2355 56.3509 64.1281 55.3936C64.0208 54.4363 64.1734 53.4677 64.5699 52.5898C64.5699 52.5898 64.6999 52.5898 64.6999 53.2798C64.8599 54.3616 65.2746 55.3899 65.9099 56.2798C66.5617 57.1543 66.9565 58.1932 67.0499 59.2798C67.0499 59.2798 67.1199 59.4898 67.2099 59.5098C67.2999 59.5298 67.2999 59.2998 67.2999 59.2998C67.2999 59.2998 67.2299 58.2098 67.2299 57.4698C67.2419 56.4724 67.5948 55.509 68.2299 54.7398C68.4407 54.501 68.6189 54.2354 68.7599 53.9498C68.8336 53.7844 68.9389 53.6349 69.0699 53.5098C69.1318 54.8663 68.9419 56.2225 68.5099 57.5098C67.8099 59.4398 67.5699 59.7698 67.6799 60.8198C67.6899 60.8098 67.7099 60.9998 67.6699 61.0798Z" fill="#009FE3"/>
<path d="M66.4802 55.3696C66.4102 55.3696 66.3502 55.1196 66.3202 54.9196C66.233 54.3726 66.0992 53.8339 65.9202 53.3097C65.4842 52.4533 65.245 51.5103 65.2202 50.5496C65.2868 48.8022 65.9994 47.1417 67.2202 45.8896C67.1288 46.3663 66.988 46.8321 66.8002 47.2796C66.5734 47.9222 66.5353 48.6161 66.6902 49.2796C66.7783 49.8794 66.8318 50.4837 66.8502 51.0896C66.8338 51.8035 66.7669 52.5152 66.6502 53.2197C66.6502 53.2197 66.6502 53.4196 66.6502 53.4196L66.7902 53.2596C66.8802 52.4781 67.1926 51.7389 67.6902 51.1297C68.5202 50.1297 70.0202 49.4996 70.2602 49.0496C70.0289 50.3703 69.3764 51.5806 68.4002 52.4996C66.8402 54.1596 67.3002 53.3096 66.7902 54.6696C66.7031 54.8701 66.6328 55.0775 66.5802 55.2896C66.5902 55.4096 66.4802 55.3696 66.4802 55.3696Z" fill="#009FE3"/>
<path d="M67.4399 50C67.4463 49.7492 67.5263 49.5057 67.6699 49.3C67.9399 48.81 67.6699 47.95 68.0199 46.68C68.2406 45.6866 68.6752 44.7532 69.2935 43.945C69.9118 43.1367 70.6989 42.473 71.5999 42C71.462 42.1293 71.3349 42.2698 71.2199 42.42C70.785 43.1702 70.4489 43.9736 70.2199 44.81C69.9246 45.8054 69.4539 46.7401 68.8299 47.57C68.4999 47.92 68.6499 47.95 68.6499 47.95C68.7916 47.8969 68.909 47.7937 68.9799 47.66C69.4577 47.0017 70.1289 46.5089 70.8999 46.25C71.7434 46.0635 72.5722 45.8162 73.3799 45.51C72.4575 46.4445 71.4308 47.2699 70.3199 47.97C68.8599 48.8 68.6899 48.55 67.8299 49.67C67.7999 49.62 67.5099 50 67.4399 50Z" fill="#009FE3"/>
<path d="M70.9399 45.1903C70.9399 45.1903 70.9399 45.0503 71.2099 44.7903C71.4799 44.5303 71.7499 43.7903 72.2099 43.0703C72.6488 42.2741 73.2648 41.5894 74.0104 41.0693C74.756 40.5491 75.6112 40.2073 76.5099 40.0703C76.1549 40.3123 75.8204 40.5832 75.5099 40.8803C75.1092 41.4489 74.6751 41.9931 74.2099 42.5103C73.6767 42.9971 73.0934 43.4262 72.4699 43.7903C72.4699 43.7903 72.2899 43.9303 72.3299 43.9903C72.3699 44.0503 72.5399 43.9403 72.5399 43.9403C73.157 43.4891 73.8878 43.219 74.6499 43.1603C75.8099 43.1603 77.0199 43.1603 77.1999 43.1603C76.0634 43.7905 74.8184 44.201 73.5299 44.3703C70.9499 44.8403 71.4299 44.8603 71.0399 45.1103C71.0325 45.1317 71.0192 45.1506 71.0015 45.1648C70.9838 45.1789 70.9625 45.1878 70.9399 45.1903V45.1903Z" fill="#009FE3"/>
<path d="M75.5498 42.1903C75.5498 42.1903 75.5998 42.0503 76.0198 41.9203C76.4398 41.7903 76.3998 41.3903 77.6698 40.7303C78.2467 40.3632 78.9007 40.1343 79.5806 40.0614C80.2606 39.9885 80.9482 40.0737 81.5898 40.3103C81.5898 40.3103 81.0298 40.3803 80.9398 40.4203C80.4921 40.5428 80.0514 40.6897 79.6198 40.8603C78.9068 41.215 78.1639 41.5061 77.3998 41.7303C76.8398 41.8403 77.1098 41.8703 77.1098 41.8703C77.1832 41.8997 77.2609 41.9166 77.3398 41.9203C78.0669 41.8482 78.8011 41.9024 79.5098 42.0803C80.3198 42.3703 80.2998 42.4803 80.6298 42.5903C80.9598 42.7003 81.3298 42.7703 81.3898 42.9003C81.4498 43.0303 80.5798 42.9703 80.0898 42.9703C79.2755 42.9626 78.468 42.8207 77.6998 42.5503C77.2195 42.3076 76.6879 42.1841 76.1498 42.1903C75.9545 42.2518 75.7451 42.2518 75.5498 42.1903Z" fill="#009FE3"/>
<path d="M80.6899 41.5595C80.6899 41.5595 80.7399 41.4895 81.1099 41.4195C81.5318 41.2328 81.9662 41.0758 82.4099 40.9495C82.9762 40.7899 83.5697 40.751 84.152 40.8354C84.7343 40.9199 85.2923 41.1257 85.7899 41.4395H84.8899C84.7299 41.4395 83.3199 41.6895 82.9899 41.6895C82.6599 41.6895 81.9899 41.5495 81.9199 41.6895C81.8499 41.8295 82.5199 41.9395 82.6199 41.9795C83.0832 42.0715 83.5061 42.3058 83.8299 42.6495C84.174 43.0143 84.5487 43.3488 84.9499 43.6495C84.1812 43.4817 83.4259 43.2578 82.6899 42.9795C82.2399 42.7295 81.4599 41.9795 81.3299 41.8895L80.6899 41.5595Z" fill="#009FE3"/>
<path d="M84.8599 42.2996C85.5579 42.2856 86.2474 42.4546 86.8599 42.7896C87.5461 43.1483 88.0972 43.7204 88.4299 44.4196C88.1961 44.2179 87.9331 44.0527 87.6499 43.9296C87.1802 43.7333 86.7257 43.5026 86.2899 43.2396C86.0899 43.1396 84.9999 42.4596 84.8599 42.2996Z" fill="#009FE3"/>
<path d="M90.21 68.3796C90.21 68.3796 90.37 68.2196 90.91 67.7496C91.45 67.2796 91.6 66.5896 92.19 65.5296C92.7725 64.4275 93.5599 63.4467 94.51 62.6396C94.4147 62.9921 94.3379 63.3492 94.28 63.7096C94.2004 64.6004 93.8902 65.4552 93.38 66.1897C92.988 66.7885 92.469 67.2937 91.86 67.6696C91.86 67.6696 91.55 67.8796 91.57 67.9596C91.59 68.0396 92.11 67.9596 92.11 67.9596C92.3697 67.8651 92.6235 67.7549 92.87 67.6296C93.05 67.5196 93.87 67.0997 94.19 66.9797C94.51 66.8597 94.79 66.7297 95.51 66.5097C96.23 66.2897 98.85 65.6296 99.88 63.9596C99.7239 64.4686 99.4913 64.9508 99.19 65.3896C98.81 65.8396 96.66 68.6796 93.68 68.6296C93.68 68.6296 92.5 68.5396 91.89 68.4296C91.6011 68.3437 91.3013 68.2999 91 68.2997C90.7425 68.3677 90.4759 68.3947 90.21 68.3796V68.3796Z" fill="#009FE3"/>
<path d="M96.88 58.2402C96.1232 59.5528 95.6561 61.0122 95.51 62.5202C95.26 65.0502 95.69 64.2902 95.28 65.4102C95.28 65.4102 95.14 65.7002 95.19 65.7202C95.24 65.7402 95.46 65.6102 96.26 65.1202C97.06 64.6302 97.83 64.7702 99.53 63.1202C101.23 61.4702 101.53 58.2602 101.61 57.9902C101.433 58.1884 101.303 58.4243 101.23 58.6802C101.139 58.9849 100.986 59.2675 100.78 59.5102C100.73 59.5602 98.88 61.5902 98.67 61.7702C98.1162 62.36 97.605 62.9882 97.14 63.6502C96.91 64.0302 96.22 64.7202 96.09 64.6502C96.1011 64.551 96.1246 64.4536 96.16 64.3602C96.4908 63.8608 96.7531 63.3194 96.94 62.7502C97.0978 62.1797 97.1851 61.592 97.2 61.0002C97.22 60.5002 96.9 58.6402 96.88 58.2402Z" fill="#009FE3"/>
<path d="M98.3999 60.6804C98.3455 60.5354 98.3455 60.3755 98.3999 60.2304C98.4927 59.6619 98.4198 59.0787 98.1899 58.5504C97.6047 57.293 97.2653 55.9353 97.1899 54.5504C97.2399 53.2504 97.3899 53.0704 97.3899 53.0704C97.3899 53.0704 97.7499 54.1404 97.8599 54.3204C98.4716 55.2825 98.861 56.3689 98.9999 57.5004C98.915 57.9586 98.8848 58.4252 98.9099 58.8904C98.9599 58.8904 99.0899 58.7604 99.1099 58.6404C99.2406 58.0593 99.4213 57.4905 99.6499 56.9404C99.9999 56.0904 101.39 54.2104 101.65 52.9404C101.882 54.3829 101.614 55.8615 100.89 57.1304C99.6799 59.1304 99.5499 58.7004 99.0499 59.6204C98.5499 60.5404 98.4699 60.6804 98.3999 60.6804Z" fill="#009FE3"/>
<path d="M99.5 55.0004C99.41 55.0004 99.5 54.1504 99.25 53.8804C98.0831 52.5259 97.2356 50.9265 96.77 49.2004C96.77 49.2004 97.95 50.3904 98.14 50.5204C98.673 50.9508 99.0948 51.503 99.37 52.1304C99.6 52.8204 99.55 53.3904 99.64 53.4104C99.73 53.4304 99.73 52.6504 99.73 52.6504C99.7347 51.9017 99.7815 51.1538 99.87 50.4104C100.099 49.5804 100.204 48.721 100.18 47.8604C100.642 48.6876 100.873 49.6234 100.85 50.5704C100.806 51.6155 100.536 52.6388 100.06 53.5704C99.905 53.9306 99.7877 54.3059 99.71 54.6903C99.72 54.8503 99.5 55.0004 99.5 55.0004Z" fill="#009FE3"/>
<path d="M97.3 43.6396C97.3 43.6396 99.74 45.0796 99.36 49.9296C99.36 49.9296 99.36 50.1496 99.22 49.9296C98.9647 49.5587 98.6621 49.2225 98.32 48.9296C96.9073 48.0705 95.7586 46.8388 95 45.3696C95 45.3696 95.14 45.3696 95.36 45.5296C95.6743 45.7597 96.0091 45.9605 96.36 46.1297C96.9 46.2997 97.3907 46.5983 97.79 46.9996C98.1802 47.4171 98.4918 47.9015 98.71 48.4296C98.71 48.4296 98.87 48.5596 98.76 48.1996C98.6799 47.8442 98.5377 47.5057 98.34 47.1996C98.0187 46.6378 97.821 46.014 97.76 45.3696C97.7526 44.7637 97.5946 44.1692 97.3 43.6396V43.6396Z" fill="#009FE3"/>
<path d="M96.8799 45.3397C96.8995 45.0676 96.8368 44.7958 96.6999 44.5597C96.5524 43.8056 96.2858 43.0799 95.9099 42.4097C95.381 41.8617 94.7249 41.4529 93.9999 41.2197C93.9999 41.2197 94.4199 41.7997 94.6899 42.1197C94.8672 42.3415 95.0182 42.5831 95.1399 42.8397C95.2299 42.9997 95.7299 43.4897 95.9199 43.7597C95.9784 43.8466 96.016 43.9459 96.0299 44.0497C96.0299 44.1397 95.8299 43.9997 95.7799 43.9397C95.3341 43.5747 94.8259 43.2935 94.2799 43.1097C93.6322 43.0348 92.9907 42.9145 92.3599 42.7497C93.1268 43.4221 94.0261 43.9262 94.9999 44.2297C95.7437 44.3505 96.4148 44.7467 96.8799 45.3397V45.3397Z" fill="#009FE3"/>
<path d="M94.0002 42.3499C93.5736 41.8252 93.0355 41.4021 92.4248 41.1115C91.8142 40.8209 91.1465 40.67 90.4702 40.6699C90.5783 40.7631 90.7096 40.8254 90.8502 40.8499C91.1002 40.8999 91.5502 41.3599 91.7902 41.4999C92.4631 41.9272 93.2144 42.2162 94.0002 42.3499V42.3499Z" fill="#009FE3"/>
<path d="M24.6602 40V61.23C24.6931 62.9166 24.3765 64.5918 23.7302 66.15C23.1541 67.5162 22.2794 68.736 21.1702 69.72C20.0322 70.7022 18.7048 71.4408 17.2702 71.89C15.6716 72.3893 14.0049 72.6356 12.3302 72.62C10.6354 72.643 8.94769 72.3966 7.33021 71.89C5.89342 71.4458 4.56512 70.7067 3.43021 69.72C2.32264 68.7368 1.45102 67.5166 0.880214 66.15C0.256247 64.5867 -0.0431575 62.9127 0.000214277 61.23V40H6.63021V61.23C6.63021 63.3367 7.13355 64.8733 8.14021 65.84C9.29029 66.8582 10.7968 67.3795 12.3302 67.29C13.0899 67.3382 13.8515 67.2348 14.5709 66.9859C15.2902 66.737 15.9528 66.3474 16.5202 65.84C17.5069 64.8733 18.0002 63.3367 18.0002 61.23V40H24.6602Z" fill="#009FE3"/>
<path d="M56.2498 72.17H49.6298L36.7198 51V72.17H30.0898V40H36.7198L49.6398 61.21V40H56.2498V72.17Z" fill="#009FE3"/>
<path d="M4.77976 92.9999C4.15383 93.0234 3.52965 92.9195 2.94516 92.6943C2.36068 92.4691 1.82808 92.1274 1.37976 91.6899C0.935703 91.2298 0.590425 90.6837 0.365146 90.0853C0.139868 89.4868 0.0393468 88.8486 0.0697616 88.2099V87.9599C0.0528645 87.0595 0.240939 86.167 0.619762 85.3499C0.956784 84.6178 1.50309 84.0019 2.18976 83.5799C2.88628 83.1605 3.68682 82.9456 4.49976 82.9599C5.07023 82.9315 5.63998 83.0287 6.16874 83.2447C6.6975 83.4607 7.17236 83.7902 7.55976 84.2099C8.36179 85.2127 8.76114 86.4784 8.67976 87.7599V88.8099H2.67976C2.7348 89.3893 2.99765 89.9292 3.41976 90.3299C3.84838 90.718 4.41201 90.9226 4.98976 90.8999C5.43055 90.9199 5.86956 90.832 6.26864 90.6438C6.66773 90.4556 7.01482 90.1728 7.27976 89.8199L8.51976 91.2399C8.12974 91.7963 7.59804 92.2382 6.97976 92.5199C6.29316 92.8471 5.54027 93.0114 4.77976 92.9999V92.9999ZM4.48976 84.9999C4.26087 84.993 4.03322 85.0359 3.82256 85.1257C3.61191 85.2155 3.42329 85.35 3.26976 85.5199C2.92724 85.9427 2.71837 86.4579 2.66976 86.9999H6.18976V86.7899C6.20262 86.3055 6.03916 85.8329 5.72976 85.4599C5.56819 85.2987 5.37382 85.1742 5.15986 85.0949C4.9459 85.0155 4.71735 84.9831 4.48976 84.9999Z" fill="#009FE3"/>
<path d="M12.5702 83.1003L12.6502 84.2203C12.9676 83.8005 13.3813 83.4632 13.8564 83.237C14.3316 83.0107 14.8542 82.9021 15.3802 82.9203C15.7976 82.8878 16.217 82.9521 16.6055 83.1082C16.994 83.2643 17.3413 83.508 17.6202 83.8203C18.1668 84.6103 18.431 85.5616 18.3702 86.5203V92.7703H15.8402V86.5803C15.8776 86.1537 15.7526 85.7288 15.4902 85.3903C15.3322 85.2487 15.1469 85.141 14.9456 85.074C14.7444 85.0069 14.5315 84.9818 14.3202 85.0003C13.9913 84.9872 13.6655 85.0676 13.3805 85.2323C13.0956 85.3969 12.8631 85.6389 12.7102 85.9303V92.7603H10.1802V83.1003H12.5702Z" fill="#009FE3"/>
<path d="M24 89.6098L25.76 83.0898H28.41L25.21 92.7698H22.74L19.54 83.0898H22.19L24 89.6098Z" fill="#009FE3"/>
<path d="M29.5701 80.5898C29.5582 80.4056 29.586 80.2211 29.6515 80.0486C29.7171 79.8761 29.8189 79.7196 29.9501 79.5898C30.2416 79.3457 30.6098 79.2119 30.9901 79.2119C31.3703 79.2119 31.7385 79.3457 32.0301 79.5898C32.277 79.8484 32.4148 80.1922 32.4148 80.5498C32.4148 80.9074 32.277 81.2512 32.0301 81.5098C31.7417 81.7524 31.3769 81.8854 31.0001 81.8854C30.6232 81.8854 30.2584 81.7524 29.9701 81.5098C29.8444 81.3917 29.7441 81.2492 29.6754 81.091C29.6066 80.9328 29.5708 80.7623 29.5701 80.5898V80.5898ZM32.2601 92.7698H29.7201V83.0898H32.2601V92.7698Z" fill="#009FE3"/>
<path d="M39.79 85.5202C39.4886 85.4758 39.1846 85.4524 38.88 85.4502C38.5018 85.4029 38.1182 85.4736 37.7817 85.6526C37.4452 85.8316 37.1721 86.1101 37 86.4502V92.7802H34.46V83.0902H36.86L36.93 84.2402C37.1175 83.8481 37.4104 83.516 37.776 83.2811C38.1417 83.0462 38.5655 82.9178 39 82.9102C39.2679 82.9095 39.5343 82.95 39.79 83.0302V85.5202Z" fill="#009FE3"/>
<path d="M40.4101 87.8501C40.4068 86.9595 40.6087 86.0801 41.0001 85.2801C41.3363 84.5527 41.8832 83.943 42.5701 83.5301C43.2873 83.1078 44.1079 82.8931 44.9401 82.9101C45.504 82.8986 46.0647 82.9987 46.5898 83.2047C47.115 83.4106 47.5942 83.7183 48.0001 84.1101C48.8434 84.9887 49.3253 86.1525 49.3501 87.3701V88.0301C49.4142 89.3353 48.9778 90.6157 48.1301 91.6101C47.2578 92.4718 46.0811 92.955 44.8551 92.955C43.629 92.955 42.4523 92.4718 41.5801 91.6101C40.7501 90.5967 40.3324 89.3077 40.4101 88.0001V87.8801V87.8501ZM42.9401 88.0301C42.894 88.7687 43.0718 89.5041 43.4501 90.1401C43.6186 90.3657 43.8374 90.5488 44.0891 90.6749C44.3408 90.8011 44.6185 90.8668 44.9001 90.8668C45.1816 90.8668 45.4593 90.8011 45.711 90.6749C45.9627 90.5488 46.1815 90.3657 46.3501 90.1401C46.7525 89.4402 46.9338 88.6349 46.8701 87.8301C46.9148 87.0935 46.7334 86.3607 46.3501 85.7301C46.1888 85.4944 45.9701 85.3036 45.7147 85.1759C45.4592 85.0481 45.1754 84.9877 44.8901 85.0001C44.6067 84.9893 44.3253 85.0517 44.0731 85.1814C43.8208 85.311 43.6063 85.5034 43.4501 85.7401C43.0669 86.429 42.8898 87.2135 42.9401 88.0001V88.0301Z" fill="#009FE3"/>
<path d="M53.4 83.1003L53.48 84.2203C53.7974 83.8005 54.2111 83.4632 54.6863 83.237C55.1614 83.0107 55.684 82.9021 56.21 82.9203C56.6275 82.8878 57.0468 82.9521 57.4353 83.1082C57.8238 83.2643 58.1711 83.508 58.45 83.8203C58.9966 84.6103 59.2608 85.5616 59.2 86.5203V92.7703H56.67V86.5803C56.7074 86.1537 56.5824 85.7288 56.32 85.3903C56.162 85.2487 55.9767 85.141 55.7755 85.074C55.5742 85.0069 55.3613 84.9818 55.15 85.0003C54.8212 84.9872 54.4953 85.0676 54.2104 85.2323C53.9254 85.3969 53.6929 85.6389 53.54 85.9303V92.7603H51V83.1003H53.4Z" fill="#009FE3"/>
<path d="M63.6102 83.1002L63.6902 84.1802C64.0135 83.7696 64.4294 83.4413 64.9039 83.2223C65.3784 83.0033 65.898 82.8998 66.4202 82.9202C66.9418 82.8759 67.4642 82.9945 67.9155 83.2596C68.3669 83.5246 68.7249 83.9231 68.9402 84.4002C69.2457 83.9271 69.6692 83.5418 70.169 83.2823C70.6687 83.0227 71.2275 82.8979 71.7902 82.9202C72.2184 82.8876 72.6484 82.9536 73.0471 83.1131C73.4458 83.2726 73.8026 83.5213 74.0902 83.8402C74.6501 84.6466 74.9149 85.6213 74.8402 86.6002V92.7802H72.2902V86.6002C72.333 86.1789 72.2307 85.7555 72.0002 85.4002C71.853 85.2514 71.6738 85.1381 71.4763 85.0688C71.2788 84.9995 71.0681 84.9761 70.8602 85.0002C70.5112 84.9845 70.1668 85.0849 69.8809 85.2858C69.5951 85.4866 69.3838 85.7765 69.2802 86.1102V92.7602H66.7602V86.6102C66.7998 86.1786 66.6865 85.7468 66.4402 85.3902C66.2952 85.2511 66.1218 85.1451 65.9319 85.0795C65.742 85.0139 65.5402 84.9903 65.3402 85.0102C65.0197 84.9926 64.701 85.0694 64.4237 85.2311C64.1464 85.3929 63.9226 85.6325 63.7802 85.9202V92.7702H61.2402V83.1002H63.6102Z" fill="#009FE3"/>
<path d="M81.2602 92.9996C80.6343 93.0231 80.0101 92.9191 79.4256 92.6939C78.8411 92.4687 78.3086 92.127 77.8602 91.6896C77.4162 91.2295 77.0709 90.6834 76.8456 90.085C76.6203 89.4865 76.5198 88.8483 76.5502 88.2096V87.9596C76.5333 87.0592 76.7214 86.1667 77.1002 85.3496C77.4372 84.6175 77.9836 84.0016 78.6702 83.5796C79.3672 83.139 80.1756 82.9065 81.0002 82.9096C81.5608 82.89 82.1189 82.9915 82.6366 83.2072C83.1544 83.4229 83.6195 83.7478 84.0002 84.1596C84.8023 85.1624 85.2016 86.4281 85.1202 87.7096V88.7596H79.1202C79.1753 89.339 79.4381 89.8789 79.8602 90.2796C80.2894 90.6667 80.8526 90.8712 81.4302 90.8496C81.871 90.8696 82.31 90.7817 82.7091 90.5935C83.1082 90.4053 83.4553 90.1225 83.7202 89.7696L85.0002 91.2096C84.6102 91.766 84.0785 92.2079 83.4602 92.4896C82.7767 92.8289 82.0233 93.0036 81.2602 92.9996V92.9996ZM81.0002 84.9996C80.7713 84.9927 80.5437 85.0356 80.333 85.1254C80.1224 85.2152 79.9337 85.3497 79.7802 85.5196C79.4359 85.9452 79.2269 86.4642 79.1802 87.0096H82.7102V86.7996C82.7231 86.3152 82.5596 85.8426 82.2502 85.4696C82.0884 85.3053 81.8928 85.1782 81.677 85.097C81.4611 85.0159 81.2302 84.9826 81.0002 84.9996V84.9996Z" fill="#009FE3"/>
<path d="M89.0002 83.1003L89.0802 84.2203C89.3975 83.8005 89.8113 83.4632 90.2864 83.237C90.7616 83.0107 91.2842 82.9021 91.8102 82.9203C92.2276 82.8878 92.6469 82.9521 93.0355 83.1082C93.424 83.2643 93.7712 83.508 94.0502 83.8203C94.5968 84.6103 94.861 85.5616 94.8002 86.5203V92.7703H92.3102V86.5803C92.3589 86.1589 92.2484 85.7344 92.0002 85.3903C91.8383 85.2453 91.648 85.1357 91.4413 85.0686C91.2347 85.0014 91.0163 84.9782 90.8002 85.0003C90.4713 84.9872 90.1455 85.0676 89.8605 85.2323C89.5755 85.3969 89.3431 85.6389 89.1902 85.9303V92.7603H86.6602V83.1003H89.0002Z" fill="#009FE3"/>
<path d="M99.91 80.71V83.09H101.53V85H99.91V89.83C99.8829 90.1023 99.9539 90.3753 100.11 90.6C100.215 90.6895 100.338 90.7561 100.471 90.7957C100.603 90.8353 100.743 90.847 100.88 90.83C101.131 90.8336 101.382 90.8135 101.63 90.77V92.77C101.135 92.9244 100.619 93.002 100.1 93C98.32 93 97.4133 92.0833 97.38 90.25V85H96V83.1H97.39V80.71H99.91Z" fill="#009FE3"/>
<path d="M8.99992 105.44C9.05739 106.703 8.70677 107.951 7.99992 109C7.69852 109.43 7.2949 109.779 6.82536 110.014C6.35581 110.25 5.83505 110.365 5.30992 110.35C4.87311 110.367 4.43804 110.286 4.03661 110.112C3.63517 109.939 3.27754 109.679 2.98992 109.35V113.91H0.419922V100.51H2.76992L2.85992 101.46C3.14656 101.1 3.51209 100.811 3.92824 100.615C4.34439 100.419 4.80002 100.321 5.25992 100.33C5.79029 100.305 6.31844 100.413 6.79676 100.643C7.27509 100.874 7.68856 101.22 7.99992 101.65C8.71828 102.727 9.06907 104.007 8.99992 105.3V105.43V105.44ZM6.46992 105.25C6.51358 104.523 6.35064 103.798 5.99992 103.16C5.86033 102.926 5.66045 102.734 5.4212 102.603C5.18195 102.473 4.91212 102.41 4.63992 102.42C4.3045 102.39 3.96799 102.463 3.67508 102.629C3.38217 102.795 3.1467 103.047 2.99992 103.35V107.35C3.13888 107.666 3.37183 107.931 3.66706 108.11C3.96229 108.289 4.30547 108.373 4.64992 108.35C5.81992 108.28 6.41992 107.27 6.41992 105.25H6.46992Z" fill="#009FE3"/>
<path d="M16.0001 102.93C15.6988 102.886 15.3947 102.863 15.0901 102.86C14.7119 102.813 14.3283 102.884 13.9918 103.063C13.6553 103.242 13.3823 103.52 13.2101 103.86V110.19H10.6401V100.5H13.0001L13.0701 101.65C13.2606 101.252 13.5598 100.916 13.9332 100.681C14.3065 100.445 14.7388 100.32 15.1801 100.32C15.4481 100.32 15.7145 100.36 15.9701 100.44L16.0001 102.93Z" fill="#009FE3"/>
<path d="M16.5902 105.26C16.5714 104.373 16.7561 103.494 17.1302 102.69C17.4665 101.962 18.0134 101.352 18.7002 100.94C19.4175 100.517 20.238 100.303 21.0702 100.32C21.6475 100.297 22.2233 100.392 22.763 100.598C23.3026 100.805 23.7949 101.118 24.2102 101.52C25.0536 102.398 25.5355 103.562 25.5602 104.78V105.44C25.6248 106.735 25.196 108.007 24.3602 109C23.9466 109.449 23.4396 109.803 22.8747 110.037C22.3098 110.27 21.7008 110.377 21.0902 110.35C20.4784 110.375 19.8682 110.268 19.3019 110.035C18.7356 109.802 18.2266 109.449 17.8102 109C16.949 107.985 16.5089 106.679 16.5802 105.35L16.5902 105.26ZM19.1202 105.44C19.0742 106.178 19.2519 106.914 19.6302 107.55C19.7988 107.775 20.0176 107.958 20.2693 108.084C20.521 108.211 20.7987 108.276 21.0802 108.276C21.3618 108.276 21.6395 108.211 21.8912 108.084C22.1429 107.958 22.3617 107.775 22.5302 107.55C22.9327 106.85 23.114 106.044 23.0502 105.24C23.095 104.503 22.9136 103.77 22.5302 103.14C22.3713 102.9 22.1537 102.705 21.8981 102.574C21.6425 102.443 21.3574 102.379 21.0702 102.39C20.7869 102.379 20.5055 102.441 20.2532 102.571C20.001 102.7 19.7864 102.893 19.6302 103.13C19.237 103.833 19.0596 104.636 19.1202 105.44V105.44Z" fill="#009FE3"/>
<path d="M26.8801 105.27C26.8072 103.996 27.1589 102.733 27.8801 101.68C28.2019 101.243 28.6249 100.892 29.1126 100.655C29.6003 100.418 30.1382 100.303 30.6801 100.32C31.1424 100.297 31.6034 100.385 32.0256 100.574C32.4479 100.763 32.8195 101.05 33.1101 101.41L33.2101 100.5H35.5101V109.86C35.5303 110.634 35.3365 111.399 34.9501 112.07C34.5757 112.695 34.0217 113.194 33.3601 113.5C32.6198 113.838 31.814 114.009 31.0001 114C30.3114 113.991 29.6314 113.845 29.0001 113.57C28.4128 113.34 27.8958 112.961 27.5001 112.47L28.6201 110.9C28.8983 111.24 29.2494 111.514 29.6474 111.701C30.0455 111.888 30.4804 111.983 30.9201 111.98C31.2053 111.998 31.4911 111.958 31.7608 111.864C32.0304 111.769 32.2784 111.622 32.4901 111.43C32.6844 111.221 32.8343 110.976 32.9305 110.707C33.0268 110.439 33.0675 110.154 33.0501 109.87V109.35C32.7645 109.679 32.4087 109.939 32.0088 110.113C31.609 110.286 31.1755 110.367 30.7401 110.35C30.1971 110.371 29.6572 110.259 29.1674 110.024C28.6776 109.789 28.2528 109.437 27.9301 109C27.1805 107.946 26.8071 106.671 26.8701 105.38V105.28L26.8801 105.27ZM29.4101 105.46C29.3704 106.183 29.5517 106.902 29.9301 107.52C30.0826 107.756 30.2934 107.949 30.542 108.081C30.7907 108.212 31.069 108.277 31.3501 108.27C31.6812 108.293 32.0122 108.222 32.3044 108.064C32.5965 107.907 32.8378 107.669 33.0001 107.38V103.3C32.8386 103.012 32.5988 102.776 32.3086 102.618C32.0184 102.461 31.6896 102.388 31.3601 102.41C31.075 102.402 30.7928 102.468 30.5405 102.601C30.2883 102.734 30.0746 102.93 29.9201 103.17C29.5299 103.871 29.3526 104.67 29.4101 105.47V105.46Z" fill="#009FE3"/>
<path d="M42.9399 102.93C42.6385 102.886 42.3345 102.863 42.0299 102.86C41.6517 102.813 41.2681 102.884 40.9316 103.063C40.5951 103.242 40.322 103.52 40.1499 103.86V110.19H37.6099V100.5H39.9999L40.0699 101.65C40.2604 101.252 40.5595 100.916 40.9329 100.681C41.3062 100.445 41.7385 100.32 42.1799 100.32C42.4478 100.32 42.7142 100.36 42.9699 100.44L42.9399 102.93Z" fill="#009FE3"/>
<path d="M49.5001 110.19C49.3689 109.915 49.2812 109.621 49.2401 109.32C48.9407 109.656 48.5695 109.92 48.1541 110.093C47.7386 110.266 47.2896 110.344 46.8401 110.32C45.9939 110.35 45.1679 110.057 44.5301 109.5C44.2331 109.242 43.9966 108.922 43.8376 108.563C43.6786 108.203 43.6009 107.813 43.6101 107.42C43.5865 106.964 43.6765 106.51 43.872 106.098C44.0675 105.686 44.3624 105.329 44.7301 105.06C45.6939 104.453 46.8233 104.163 47.9601 104.23H49.1301V103.67C49.1489 103.284 49.0282 102.904 48.7901 102.6C48.6536 102.457 48.4863 102.346 48.301 102.277C48.1157 102.208 47.9171 102.181 47.7201 102.2C47.3602 102.178 47.0046 102.288 46.7201 102.51C46.5991 102.617 46.5039 102.75 46.4415 102.898C46.3792 103.047 46.3514 103.208 46.3601 103.37H43.8301C43.8301 102.809 44.0087 102.262 44.3401 101.81C44.7077 101.311 45.206 100.923 45.7801 100.69C46.4402 100.407 47.1524 100.268 47.8701 100.28C48.8795 100.224 49.8738 100.544 50.6601 101.18C51.0036 101.501 51.2714 101.895 51.4443 102.332C51.6173 102.77 51.691 103.24 51.6601 103.71V107.9C51.6242 108.616 51.7543 109.332 52.0401 109.99V110.14H49.5001V110.19ZM47.4001 108.39C47.7497 108.386 48.0929 108.296 48.4001 108.13C48.6974 107.975 48.9413 107.735 49.1001 107.44V105.78H48.1501C46.8801 105.78 46.2101 106.23 46.1501 107.12V107.27C46.1432 107.418 46.1692 107.565 46.2263 107.702C46.2834 107.838 46.3701 107.961 46.4801 108.06C46.6053 108.174 46.7521 108.262 46.9118 108.319C47.0715 108.375 47.2409 108.4 47.4101 108.39H47.4001Z" fill="#009FE3"/>
<path d="M56.1202 100.5L56.2002 101.58C56.5235 101.169 56.9394 100.841 57.4139 100.622C57.8884 100.403 58.408 100.299 58.9302 100.32C59.4518 100.275 59.9742 100.394 60.4255 100.659C60.8769 100.924 61.2349 101.323 61.4502 101.8C61.7557 101.327 62.1792 100.941 62.679 100.682C63.1787 100.422 63.7375 100.297 64.3002 100.32C64.7284 100.287 65.1584 100.353 65.5571 100.512C65.9558 100.672 66.3126 100.921 66.6002 101.24C67.1601 102.046 67.4249 103.021 67.3502 104V110.18H64.8002V104C64.8371 103.576 64.7277 103.152 64.4902 102.8C64.3445 102.659 64.1695 102.551 63.9776 102.486C63.7858 102.42 63.5818 102.398 63.3802 102.42C63.0312 102.404 62.6868 102.504 62.4009 102.705C62.1151 102.906 61.9038 103.196 61.8002 103.53V110.18H59.2702V104C59.3098 103.568 59.1965 103.136 58.9502 102.78C58.8052 102.641 58.6318 102.535 58.4419 102.469C58.252 102.403 58.0502 102.38 57.8502 102.4C57.5297 102.382 57.211 102.459 56.9337 102.621C56.6564 102.782 56.4326 103.022 56.2902 103.31V110.16H53.7402V100.5H56.1102H56.1202Z" fill="#009FE3"/>
<path d="M71.7799 100.5L71.8599 101.58C72.1832 101.169 72.5991 100.841 73.0736 100.622C73.5481 100.403 74.0677 100.299 74.5899 100.32C75.1114 100.275 75.6339 100.394 76.0852 100.659C76.5365 100.924 76.8946 101.323 77.1099 101.8C77.4154 101.327 77.8389 100.941 78.3386 100.682C78.8384 100.422 79.3972 100.297 79.9599 100.32C80.3881 100.287 80.818 100.353 81.2168 100.512C81.6155 100.672 81.9723 100.921 82.2599 101.24C82.8162 102.047 83.0775 103.022 82.9999 104V110.18H80.4599V104C80.4968 103.576 80.3874 103.152 80.1499 102.8C80.0042 102.659 79.8291 102.551 79.6373 102.486C79.4454 102.42 79.2415 102.398 79.0399 102.42C78.6909 102.404 78.3465 102.504 78.0606 102.705C77.7747 102.906 77.5635 103.196 77.4599 103.53V110.18H74.9199V104C74.9594 103.568 74.8462 103.136 74.5999 102.78C74.4549 102.641 74.2815 102.535 74.0916 102.469C73.9017 102.403 73.6998 102.38 73.4999 102.4C73.1793 102.382 72.8607 102.459 72.5834 102.621C72.306 102.782 72.0823 103.022 71.9399 103.31V110.16H69.3999V100.5H71.7699H71.7799Z" fill="#009FE3"/>
<path d="M89.4199 110.36C88.794 110.384 88.1698 110.28 87.5853 110.055C87.0008 109.829 86.4682 109.488 86.0199 109.05C85.5758 108.59 85.2306 108.044 85.0053 107.446C84.78 106.847 84.6795 106.209 84.7099 105.57V105.32C84.693 104.42 84.8811 103.527 85.2599 102.71C85.5969 101.978 86.1432 101.362 86.8299 100.94C87.5264 100.521 88.327 100.306 89.1399 100.32C89.7104 100.292 90.2801 100.389 90.8089 100.605C91.3376 100.821 91.8125 101.151 92.1999 101.57C93.0019 102.573 93.4013 103.839 93.3199 105.12V106.17H87.3199C87.3564 106.745 87.5977 107.288 87.9999 107.7C88.4291 108.087 88.9923 108.292 89.5699 108.27C90.0107 108.29 90.4497 108.202 90.8488 108.014C91.2479 107.826 91.595 107.543 91.8599 107.19L93.0999 108.61C92.7099 109.167 92.1782 109.609 91.5599 109.89C90.8912 110.206 90.1596 110.367 89.4199 110.36ZM89.1299 102.41C88.901 102.403 88.6734 102.446 88.4627 102.536C88.252 102.626 88.0634 102.76 87.9099 102.93C87.5655 103.356 87.3566 103.875 87.3099 104.42H90.8399V104.21C90.8528 103.726 90.6893 103.253 90.3799 102.88C90.2192 102.717 90.0252 102.591 89.8112 102.51C89.5972 102.429 89.3682 102.395 89.1399 102.41H89.1299Z" fill="#009FE3"/>
<path opacity="0.8" d="M126 37.5H125V111.5H126V37.5Z" fill="#009FE3"/>
<path d="M146.33 0H123.99V4H146.33V0Z" fill="#C2984E"/>
<path d="M394.3 0H371.96V4H394.3V0Z" fill="#DDAE5B"/>
<path d="M245.52 0H223.18V4H245.52V0Z" fill="#AA3A5D"/>
<path d="M319.91 0H297.57V4H319.91V0Z" fill="#EE6141"/>
<path d="M47.1398 0H24.7998V4H47.1398V0Z" fill="#0083B7"/>
<path d="M344.71 0H322.37V4H344.71V0Z" fill="#C23D4F"/>
<path d="M195.92 0H173.58V4H195.92V0Z" fill="#D83377"/>
<path d="M22.34 0H0V4H22.34V0Z" fill="#106686"/>
<path d="M270.32 0H247.98V4H270.32V0Z" fill="#F7C329"/>
<path d="M171.13 0H148.79V4H171.13V0Z" fill="#F2AA46"/>
<path d="M121.53 0H99.1899V4H121.53V0Z" fill="#479064"/>
<path d="M295.11 0H272.77V4H295.11V0Z" fill="#00B1E9"/>
<path d="M96.7301 0H74.3901V4H96.7301V0Z" fill="#00A1E1"/>
<path d="M71.9401 0H49.6001V4H71.9401V0Z" fill="#5ABA4E"/>
<path d="M220.72 0H198.38V4H220.72V0Z" fill="#EF8446"/>
<path d="M369.51 0H347.17V4H369.51V0Z" fill="#53AA57"/>
<path d="M419.1 0H396.76V4H419.1V0Z" fill="#DC4A5A"/>
<path d="M294.85 55.4303V49.0003L292.54 53.6303H291.22L288.91 49.0003V55.4003H286.45V44.7803H289.1L291.86 50.3403L294.63 44.7803H297.29V55.4303H294.85Z" fill="#01568A"/>
<path d="M304.27 55.5199C303.518 55.5185 302.777 55.3476 302.1 55.0199C301.469 54.7264 300.901 54.3119 300.43 53.7999C299.97 53.2939 299.607 52.7075 299.36 52.0699C299.109 51.433 298.98 50.7545 298.98 50.0699C298.989 49.0326 299.295 48.0195 299.862 47.1509C300.429 46.2823 301.234 45.5948 302.18 45.1699C302.85 44.8715 303.577 44.7214 304.31 44.7299C305.055 44.7203 305.793 44.8775 306.47 45.1899C307.088 45.4902 307.642 45.9079 308.1 46.4199C308.557 46.9298 308.917 47.5197 309.16 48.1599C309.411 48.7969 309.54 49.4753 309.54 50.1599C309.537 50.8461 309.401 51.5253 309.14 52.1599C308.624 53.4525 307.628 54.4952 306.36 55.0699C305.704 55.3688 304.991 55.5223 304.27 55.5199V55.5199ZM301.49 50.1199C301.49 50.5234 301.55 50.9246 301.67 51.3099C301.786 51.6722 301.965 52.0108 302.2 52.3099C302.444 52.6101 302.751 52.8526 303.1 53.0199C303.472 53.205 303.884 53.2976 304.3 53.2899C304.727 53.3015 305.15 53.2052 305.53 53.0099C305.87 52.8291 306.167 52.5767 306.4 52.2699C306.631 51.9697 306.807 51.6312 306.92 51.2699C307.034 50.887 307.091 50.4894 307.09 50.0899C307.09 49.6864 307.03 49.2852 306.91 48.8999C306.795 48.5352 306.612 48.1958 306.37 47.8999C306.129 47.6072 305.829 47.3686 305.49 47.1999C305.119 47.0202 304.712 46.9311 304.3 46.9399C303.876 46.9308 303.457 47.0271 303.08 47.2199C302.742 47.4001 302.446 47.6487 302.21 47.9499C301.976 48.2483 301.8 48.5873 301.69 48.9499C301.567 49.3281 301.499 49.7222 301.49 50.1199V50.1199Z" fill="#01568A"/>
<path d="M313.71 49.3403V55.4303H311.25V44.7803H313.17L318.1 51.0003V44.7803H320.56V55.4303H318.56L313.71 49.3403Z" fill="#01568A"/>
<path d="M330.77 46.9403H327.53V55.4303H325.1V46.9403H321.85V44.7803H330.85L330.77 46.9403Z" fill="#01568A"/>
<path d="M339.46 53.2703V55.4303H332V44.7803H339.35V46.9403H334.46V49.0003H338.66V51.0003H334.46V53.2603L339.46 53.2703Z" fill="#01568A"/>
<path d="M342.83 44.7803L345.33 52.3403L347.8 44.7803H350.4L346.4 55.4303H344.3L340.22 44.7803H342.83Z" fill="#01568A"/>
<path d="M351.52 55.4303V44.7803H354V55.4303H351.52Z" fill="#01568A"/>
<path d="M356.28 55.4296V44.7796H360.28C361.07 44.7632 361.856 44.906 362.59 45.1996C363.204 45.4508 363.758 45.8307 364.213 46.3137C364.668 46.7966 365.015 47.3715 365.23 47.9996C365.458 48.6622 365.573 49.3587 365.57 50.0596C365.582 50.8094 365.456 51.555 365.2 52.2596C364.965 52.9132 364.589 53.5072 364.1 53.9996C363.62 54.4421 363.055 54.7823 362.44 54.9996C361.743 55.2603 361.004 55.3892 360.26 55.3796L356.28 55.4296ZM363.1 50.0896C363.104 49.6556 363.04 49.2237 362.91 48.8096C362.795 48.4429 362.608 48.1029 362.36 47.8096C362.121 47.5278 361.819 47.3053 361.48 47.1596C361.103 47.0028 360.698 46.9245 360.29 46.9296H358.78V53.2596H360.29C360.702 53.2671 361.112 53.1852 361.49 53.0196C361.831 52.8669 362.132 52.6376 362.37 52.3496C362.612 52.0537 362.795 51.7143 362.91 51.3496C363.039 50.9421 363.103 50.5169 363.1 50.0896V50.0896Z" fill="#01568A"/>
<path d="M374.77 53.2703V55.4303H367.29V44.7803H374.64V46.9403H369.75V49.0003H373.95V51.0003H369.75V53.2603L374.77 53.2703Z" fill="#01568A"/>
<path d="M381.1 55.5199C380.355 55.5295 379.617 55.3724 378.94 55.0599C378.309 54.7664 377.741 54.3519 377.27 53.8399C376.81 53.334 376.447 52.7475 376.2 52.1099C375.949 51.473 375.82 50.7945 375.82 50.1099C375.828 49.0726 376.134 48.0595 376.702 47.1909C377.269 46.3224 378.073 45.6348 379.02 45.2099C379.69 44.9115 380.416 44.7614 381.15 44.7699C381.895 44.7604 382.633 44.9175 383.31 45.2299C383.949 45.5235 384.524 45.9416 385 46.4599C385.436 46.9746 385.775 47.5642 386 48.1999C386.251 48.837 386.379 49.5154 386.38 50.1999C386.377 50.8862 386.241 51.5653 385.98 52.1999C385.464 53.4925 384.467 54.5353 383.2 55.1099C382.538 55.3965 381.821 55.5364 381.1 55.5199V55.5199ZM378.32 50.1199C378.319 50.5234 378.38 50.9246 378.5 51.3099C378.615 51.6722 378.795 52.0109 379.03 52.3099C379.267 52.6115 379.567 52.8573 379.91 53.0299C380.282 53.215 380.694 53.3076 381.11 53.2999C381.537 53.3115 381.96 53.2152 382.34 53.0199C382.68 52.8392 382.977 52.5867 383.21 52.2799C383.441 51.9798 383.617 51.6413 383.73 51.2799C383.844 50.8971 383.901 50.4995 383.9 50.0999C383.9 49.6965 383.839 49.2953 383.72 48.9099C383.605 48.5452 383.422 48.2058 383.18 47.9099C382.939 47.6172 382.639 47.3787 382.3 47.2099C381.93 47.0149 381.518 46.912 381.1 46.9099C380.676 46.9009 380.257 46.9971 379.88 47.1899C379.542 47.3701 379.246 47.6187 379.01 47.9199C378.776 48.2183 378.6 48.5574 378.49 48.9199C378.38 49.3103 378.33 49.7147 378.34 50.1199H378.32Z" fill="#01568A"/>
<path d="M293.94 68.2703V70.4303H286.45V59.7803H293.8V61.9403H288.91V64.0003H293.1V66.0003H288.9V68.2603L293.94 68.2703Z" fill="#01568A"/>
<path d="M298 64.3403V70.4303H295.54V59.7803H297.46L302.46 66.0403V59.7803H305V70.4303H303L298 64.3403Z" fill="#01568A"/>
<path d="M308.42 59.7803L310.92 67.3403L313.39 59.7803H316L312 70.4303H309.93L305.85 59.7803H308.42Z" fill="#01568A"/>
<path d="M316.88 70.4303V59.7803H319.34V70.4303H316.88Z" fill="#01568A"/>
<path d="M321.42 70.4303V59.7803H326.22C326.702 59.7771 327.178 59.8867 327.61 60.1003C328.025 60.3055 328.399 60.5871 328.71 60.9303C329.019 61.2674 329.267 61.6568 329.44 62.0803C329.611 62.4958 329.7 62.9409 329.7 63.3903C329.703 64.023 329.545 64.6459 329.24 65.2003C328.953 65.7339 328.524 66.1771 328 66.4803L330.34 70.4803H327.57L325.57 67.0503H323.96V70.4803L321.42 70.4303ZM323.88 64.8503H326.1C326.249 64.8478 326.395 64.8091 326.525 64.7377C326.656 64.6663 326.767 64.5643 326.85 64.4403C327.072 64.1326 327.185 63.7595 327.17 63.3803C327.178 63.0139 327.05 62.6576 326.81 62.3803C326.714 62.2585 326.59 62.1607 326.45 62.0947C326.309 62.0287 326.155 61.9964 326 62.0003H323.83L323.88 64.8503Z" fill="#01568A"/>
<path d="M335.95 70.5202C335.205 70.5298 334.467 70.3726 333.79 70.0602C333.151 69.7657 332.577 69.3477 332.1 68.8302C331.629 68.3267 331.256 67.74 331 67.1002C330.749 66.4632 330.62 65.7848 330.62 65.1002C330.623 64.4139 330.759 63.7347 331.02 63.1002C331.541 61.8066 332.546 60.7666 333.82 60.2002C334.49 59.9021 335.217 59.752 335.95 59.7602C336.695 59.7506 337.433 59.9078 338.11 60.2202C338.743 60.5153 339.311 60.9334 339.78 61.4502C340.699 62.4724 341.211 63.7958 341.22 65.1702C341.217 65.8564 341.081 66.5355 340.82 67.1702C340.564 67.8072 340.191 68.3907 339.72 68.8902C339.249 69.3837 338.689 69.784 338.07 70.0702C337.405 70.3734 336.681 70.527 335.95 70.5202V70.5202ZM333.18 65.1202C333.18 65.5237 333.24 65.9249 333.36 66.3102C333.476 66.6725 333.655 67.0112 333.89 67.3102C334.127 67.6117 334.428 67.8575 334.77 68.0302C335.143 68.2152 335.554 68.3078 335.97 68.3002C336.399 68.3056 336.822 68.2024 337.2 68.0002C337.54 67.8189 337.837 67.5665 338.07 67.2602C338.3 66.9596 338.476 66.6212 338.59 66.2602C338.704 65.8772 338.761 65.4797 338.76 65.0802C338.76 64.6767 338.7 64.2755 338.58 63.8902C338.465 63.5255 338.282 63.1861 338.04 62.8902C337.8 62.5941 337.5 62.3521 337.16 62.1802C336.79 62.0009 336.382 61.9118 335.97 61.9202C335.546 61.9103 335.127 62.0065 334.75 62.2002C334.412 62.3791 334.115 62.6279 333.88 62.9302C333.643 63.2278 333.463 63.5669 333.35 63.9302C333.233 64.3126 333.172 64.7102 333.17 65.1102L333.18 65.1202Z" fill="#01568A"/>
<path d="M345.17 64.3403V70.4303H342.71V59.7803H344.63L349.63 66.0403V59.7803H352.1V70.4303H350.1L345.17 64.3403Z" fill="#01568A"/>
<path d="M362.54 70.4303V64.0003L360.23 68.6303H358.91L356.6 64.0003V70.3703H354.1V59.7803H356.77L359.53 65.3503L362.31 59.7803H365V70.4303H362.54Z" fill="#01568A"/>
<path d="M374.57 68.2703V70.4303H367.1V59.7803H374.45V61.9403H369.56V64.0003H373.76V66.0003H369.56V68.2603L374.57 68.2703Z" fill="#01568A"/>
<path d="M378.68 64.3403V70.4303H376.22V59.7803H378.1L383.1 66.0203V59.7803H385.56V70.4303H383.56L378.68 64.3403Z" fill="#01568A"/>
<path d="M395.51 61.9403H392.27V70.4303H389.81V61.9403H386.56V59.7803H395.56L395.51 61.9403Z" fill="#01568A"/>
<path d="M398.38 59.7803H400.6L404.48 70.4303H402L401.1 68.0003H397.78L397 70.4003H394.48L398.38 59.7803ZM400.73 66.3503L399.48 62.5903L398.21 66.3503H400.73Z" fill="#01568A"/>
<path d="M405.4 70.4303V59.7803H407.86V68.2703H413V70.4303H405.4Z" fill="#01568A"/>
<path d="M286.45 85.4303V74.7803H288.91V83.2703H294.1V85.4303H286.45Z" fill="#01568A"/>
<path d="M298.43 74.7803H300.65L304.54 85.4303H302L301.19 83.0003H297.88L297.1 85.4103H294.58L298.43 74.7803ZM300.79 81.3503L299.54 77.5803L298.26 81.3503H300.79Z" fill="#01568A"/>
<path d="M308.27 74.7998H310.54L311.62 78.1998L312.7 74.7998H315L313.21 79.7998L314.29 82.6698L316.96 74.8398H319.65L315.39 85.4898H313.34L311.64 81.3198L309.96 85.4898H307.89L303.65 74.8398H306.32L309 82.6198L310 79.7498L308.27 74.7998Z" fill="#01568A"/>
<path d="M324 85.4296V74.7796H328.54C329.024 74.7732 329.504 74.8793 329.94 75.0896C330.353 75.2941 330.723 75.5759 331.03 75.9196C331.334 76.2591 331.577 76.648 331.75 77.0696C331.92 77.4819 332.008 77.9235 332.01 78.3696C332.011 78.8312 331.926 79.2889 331.76 79.7196C331.6 80.1439 331.367 80.5367 331.07 80.8796C330.774 81.2213 330.409 81.4972 330 81.6896C329.565 81.8929 329.09 81.9954 328.61 81.9896H326.5V85.4296H324ZM326.46 79.8496H328.46C328.604 79.8457 328.746 79.8106 328.876 79.7467C329.005 79.6829 329.119 79.5917 329.21 79.4796C329.444 79.1625 329.557 78.7726 329.53 78.3796C329.533 78.1621 329.5 77.9457 329.43 77.7396C329.374 77.5739 329.285 77.421 329.17 77.2896C329.068 77.1758 328.942 77.0868 328.8 77.0296C328.666 76.9769 328.524 76.9497 328.38 76.9496H326.46V79.8496Z" fill="#01568A"/>
<path d="M333.25 85.4295V74.7795H338.1C338.581 74.7736 339.057 74.8797 339.49 75.0895C339.905 75.2951 340.278 75.5766 340.59 75.9195C340.9 76.2566 341.147 76.646 341.32 77.0695C341.49 77.4819 341.578 77.9234 341.58 78.3695C341.583 79.0022 341.425 79.6253 341.12 80.1795C340.823 80.7188 340.379 81.1627 339.84 81.4595L342.18 85.4595H339.41L337.41 82.0195H335.8V85.4595L333.25 85.4295ZM335.71 79.8495H338C338.149 79.8461 338.294 79.8071 338.425 79.7358C338.555 79.6645 338.667 79.5629 338.75 79.4395C338.972 79.1318 339.085 78.7587 339.07 78.3795C339.078 78.0131 338.95 77.6568 338.71 77.3795C338.618 77.2598 338.5 77.1626 338.365 77.095C338.23 77.0275 338.081 76.9914 337.93 76.9895H335.76L335.71 79.8495Z" fill="#01568A"/>
<path d="M347.78 85.5199C347.035 85.5295 346.297 85.3724 345.62 85.0599C344.989 84.7655 344.422 84.3512 343.95 83.8399C343.49 83.3338 343.127 82.7474 342.88 82.1099C342.629 81.473 342.5 80.7945 342.5 80.1099C342.503 79.4237 342.638 78.7444 342.9 78.1099C343.421 76.8164 344.425 75.7763 345.7 75.2099C346.37 74.9115 347.097 74.7614 347.83 74.7699C348.575 74.7604 349.313 74.9175 349.99 75.23C350.623 75.5255 351.19 75.9436 351.66 76.4599C352.569 77.4723 353.08 78.7796 353.1 80.1399C353.097 80.8261 352.961 81.5052 352.7 82.1399C352.444 82.7768 352.071 83.3601 351.6 83.8599C351.121 84.3603 350.551 84.7643 349.92 85.05C349.25 85.3629 348.519 85.5234 347.78 85.5199ZM345 80.12C345 80.5234 345.06 80.9246 345.18 81.3099C345.296 81.6722 345.475 82.0109 345.71 82.3099C345.947 82.6112 346.248 82.857 346.59 83.0299C346.963 83.215 347.374 83.3076 347.79 83.3C348.212 83.302 348.628 83.1989 349 82.9999C349.34 82.8187 349.637 82.5663 349.87 82.2599C350.1 81.9594 350.276 81.621 350.39 81.2599C350.504 80.8769 350.561 80.4794 350.56 80.0799C350.56 79.6765 350.5 79.2753 350.38 78.8899C350.265 78.5253 350.082 78.1858 349.84 77.8899C349.6 77.5938 349.3 77.3519 348.96 77.1799C348.59 76.9999 348.182 76.9108 347.77 76.9199C347.346 76.91 346.927 77.0063 346.55 77.1999C346.211 77.3786 345.915 77.6275 345.68 77.9299C345.443 78.2277 345.263 78.5667 345.15 78.9299C345.032 79.3123 344.972 79.7099 344.97 80.1099L345 80.12Z" fill="#01568A"/>
<path d="M361.81 84.3803C361.06 85.1083 360.055 85.5139 359.01 85.5103C358.338 85.5143 357.671 85.3826 357.051 85.1231C356.431 84.8637 355.869 84.4818 355.4 84.0003C354.923 83.5018 354.549 82.9139 354.3 82.2703C354.021 81.5603 353.882 80.8031 353.89 80.0403C353.891 79.34 354.031 78.6468 354.3 78.0003C354.558 77.3656 354.939 76.788 355.42 76.3003C355.899 75.8082 356.47 75.4142 357.1 75.1403C357.851 74.8307 358.66 74.6883 359.472 74.7228C360.284 74.7574 361.078 74.9681 361.8 75.3403C362.515 75.7267 363.096 76.319 363.47 77.0403L361.64 78.4203C361.423 77.9577 361.075 77.5685 360.64 77.3003C360.191 77.0366 359.68 76.8985 359.16 76.9003C358.772 76.8949 358.389 76.9805 358.04 77.1503C357.706 77.3146 357.413 77.5501 357.18 77.8403C356.935 78.1373 356.745 78.4761 356.62 78.8403C356.49 79.2474 356.426 79.6728 356.43 80.1003C356.425 80.536 356.496 80.9692 356.64 81.3803C356.769 81.747 356.966 82.0863 357.22 82.3803C357.466 82.6639 357.769 82.8923 358.11 83.0503C358.471 83.214 358.864 83.296 359.26 83.2903C359.753 83.2739 360.237 83.1499 360.678 82.9271C361.118 82.7043 361.504 82.388 361.81 82.0003V81.6703H359.74V79.8703H363.85V85.4403H361.85L361.81 84.3803Z" fill="#01568A"/>
<path d="M365.64 85.4295V74.7795H370.44C370.921 74.7736 371.397 74.8797 371.83 75.0895C372.245 75.2951 372.618 75.5766 372.93 75.9195C373.24 76.2566 373.487 76.646 373.66 77.0695C373.83 77.4819 373.919 77.9234 373.92 78.3695C373.924 79.0022 373.765 79.6253 373.46 80.1795C373.163 80.7188 372.719 81.1627 372.18 81.4595L374.52 85.4595H371.75L369.75 82.0195H368.1V85.4595L365.64 85.4295ZM368.1 79.8495H370.35C370.499 79.8461 370.645 79.8071 370.775 79.7358C370.906 79.6645 371.017 79.5629 371.1 79.4395C371.322 79.1318 371.435 78.7587 371.42 78.3795C371.428 78.0131 371.3 77.6568 371.06 77.3795C370.968 77.2598 370.85 77.1626 370.715 77.095C370.58 77.0275 370.431 76.9914 370.28 76.9895H368.1V79.8495Z" fill="#01568A"/>
<path d="M378.88 74.7803H381.1L385 85.4303H382.48L381.64 83.0003H378.32L377.51 85.3803H375L378.88 74.7803ZM381.23 81.3503L380 77.5803L378.73 81.3503H381.23Z" fill="#01568A"/>
<path d="M394.3 85.4303V79.0003L392 83.6503H390.68L388.36 79.0003V85.4003H385.9V74.7803H388.57L391.33 80.3403L394.1 74.7803H396.75V85.4303H394.3Z" fill="#01568A"/>
<path d="M407.25 85.4303V79.0003L404.94 83.6303H403.62L401.31 79.0003V85.4003H398.85V74.7803H401.52L404.28 80.3403L407.1 74.7803H409.75V85.4303H407.25Z" fill="#01568A"/>
<path d="M419.28 83.2703V85.4303H411.8V74.7803H419.1V76.9403H414.21V79.0003H418.41V81.0003H414.21V83.2703H419.28Z" fill="#01568A"/>
<path d="M148.32 108.43V99.2002H150.45V106.56H154.92V108.43H148.32Z" fill="#1F9CD8"/>
<path d="M158 108.56C157.68 108.564 157.361 108.509 157.06 108.4C156.787 108.303 156.537 108.152 156.324 107.956C156.111 107.76 155.94 107.524 155.82 107.26C155.697 106.99 155.635 106.697 155.64 106.4C155.635 106.081 155.708 105.766 155.85 105.48C155.995 105.202 156.2 104.96 156.45 104.77C156.727 104.562 157.038 104.403 157.37 104.3C157.752 104.184 158.15 104.126 158.55 104.13C158.828 104.129 159.106 104.153 159.38 104.2C159.622 104.239 159.857 104.309 160.08 104.41V104.1C160.08 103.314 159.623 102.92 158.71 102.92C158.345 102.918 157.982 102.982 157.64 103.11C157.262 103.257 156.903 103.448 156.57 103.68L155.96 102.38C156.393 102.095 156.864 101.873 157.36 101.72C157.863 101.57 158.385 101.496 158.91 101.5C159.769 101.446 160.618 101.705 161.3 102.23C161.591 102.499 161.819 102.83 161.966 103.199C162.113 103.568 162.176 103.964 162.15 104.36V106.12C162.136 106.274 162.171 106.428 162.25 106.56C162.339 106.653 162.461 106.707 162.59 106.71V108.47C162.429 108.508 162.265 108.535 162.1 108.55H161.7C161.389 108.57 161.081 108.489 160.82 108.32C160.616 108.164 160.479 107.935 160.44 107.68V107.37C160.153 107.749 159.784 108.057 159.36 108.27C158.936 108.472 158.47 108.571 158 108.56ZM158.61 107.02C158.835 107.02 159.059 106.98 159.27 106.9C159.466 106.834 159.646 106.729 159.8 106.59C159.885 106.538 159.956 106.466 160.008 106.381C160.06 106.296 160.092 106.2 160.1 106.1V105.45C159.908 105.379 159.711 105.326 159.51 105.29C159.315 105.253 159.118 105.232 158.92 105.23C158.587 105.218 158.259 105.308 157.98 105.49C157.865 105.562 157.771 105.663 157.706 105.782C157.641 105.901 157.608 106.035 157.61 106.17C157.607 106.289 157.632 106.407 157.682 106.514C157.733 106.622 157.807 106.716 157.9 106.79C158.107 106.943 158.363 107.018 158.62 107L158.61 107.02Z" fill="#1F9CD8"/>
<path d="M171.94 101.61H173.94L171.1 108.43H169.4L168.34 105.62L167.34 108.43H165.64L162.82 101.6H164.82L166.68 106.5L167.32 104.64L166.11 101.64H167.77L168.43 103.69L169.08 101.64H170.74L169.54 104.64L170.15 106.51L171.94 101.61Z" fill="#1F9CD8"/>
<path d="M179.93 108.56C179.61 108.564 179.291 108.509 178.99 108.4C178.718 108.303 178.467 108.152 178.254 107.956C178.041 107.76 177.87 107.524 177.75 107.26C177.627 106.99 177.566 106.697 177.57 106.4C177.566 106.081 177.638 105.766 177.78 105.48C177.925 105.202 178.13 104.96 178.38 104.77C178.657 104.562 178.969 104.403 179.3 104.3C179.682 104.184 180.08 104.126 180.48 104.13C180.758 104.129 181.036 104.153 181.31 104.2C181.552 104.239 181.787 104.309 182.01 104.41V104.1C182.01 103.314 181.553 102.92 180.64 102.92C180.275 102.918 179.912 102.982 179.57 103.11C179.192 103.257 178.833 103.448 178.5 103.68L177.89 102.38C178.323 102.095 178.794 101.873 179.29 101.72C179.793 101.57 180.315 101.496 180.84 101.5C181.699 101.446 182.548 101.705 183.23 102.23C183.523 102.495 183.752 102.822 183.903 103.187C184.053 103.552 184.121 103.946 184.1 104.34V106.1C184.086 106.254 184.121 106.408 184.2 106.54C184.289 106.633 184.411 106.687 184.54 106.69V108.45C184.379 108.488 184.215 108.515 184.05 108.53H183.65C183.34 108.55 183.031 108.469 182.77 108.3C182.566 108.144 182.43 107.915 182.39 107.66V107.35C182.103 107.729 181.734 108.037 181.31 108.25C180.881 108.462 180.408 108.568 179.93 108.56V108.56ZM180.55 107.02C180.775 107.02 180.999 106.98 181.21 106.9C181.406 106.834 181.586 106.729 181.74 106.59C181.825 106.538 181.896 106.466 181.948 106.381C182 106.296 182.032 106.2 182.04 106.1V105.45C181.849 105.379 181.651 105.326 181.45 105.29C181.256 105.253 181.058 105.232 180.86 105.23C180.527 105.218 180.199 105.308 179.92 105.49C179.805 105.562 179.711 105.663 179.646 105.782C179.581 105.901 179.548 106.035 179.55 106.17C179.547 106.289 179.572 106.407 179.622 106.514C179.673 106.622 179.747 106.716 179.84 106.79C180.045 106.941 180.296 107.015 180.55 107V107.02Z" fill="#1F9CD8"/>
<path d="M192.39 108.43H190.31V104.6C190.345 104.248 190.257 103.894 190.06 103.6C189.98 103.5 189.878 103.42 189.761 103.366C189.645 103.312 189.518 103.286 189.39 103.29C189.239 103.291 189.089 103.321 188.95 103.38C188.796 103.443 188.651 103.527 188.52 103.63C188.361 103.738 188.22 103.869 188.1 104.02C187.993 104.167 187.909 104.328 187.85 104.5V108.41H185.85V101.61H187.72V102.75C187.978 102.339 188.35 102.012 188.79 101.81C189.288 101.581 189.832 101.468 190.38 101.48C190.752 101.462 191.121 101.545 191.45 101.72C191.707 101.87 191.92 102.083 192.07 102.34C192.218 102.6 192.316 102.884 192.36 103.18C192.406 103.471 192.43 103.765 192.43 104.06L192.39 108.43Z" fill="#1F9CD8"/>
<path d="M196.8 108.56C196.356 108.564 195.916 108.472 195.51 108.29C195.128 108.113 194.787 107.858 194.51 107.54C194.219 107.212 193.992 106.832 193.84 106.42C193.671 105.973 193.582 105.499 193.58 105.02C193.577 104.548 193.651 104.078 193.8 103.63C193.935 103.221 194.145 102.841 194.42 102.51C194.697 102.193 195.038 101.937 195.42 101.76C195.8 101.577 196.218 101.484 196.64 101.49C197.093 101.485 197.539 101.603 197.93 101.83C198.306 102.045 198.614 102.36 198.82 102.74V98.9404H200.9V106.09C200.886 106.244 200.921 106.398 201 106.53C201.089 106.623 201.212 106.677 201.34 106.68V108.44C201.179 108.477 201.015 108.504 200.85 108.52H200.46C200.151 108.533 199.844 108.453 199.58 108.29C199.47 108.217 199.377 108.119 199.31 108.005C199.242 107.891 199.201 107.763 199.19 107.63V107.28C198.961 107.691 198.612 108.022 198.19 108.23C197.762 108.455 197.284 108.568 196.8 108.56V108.56ZM197.36 106.81C197.655 106.81 197.944 106.723 198.19 106.56C198.453 106.39 198.662 106.147 198.79 105.86V104.43C198.666 104.092 198.448 103.797 198.16 103.58C197.906 103.373 197.589 103.257 197.26 103.25C197.044 103.247 196.831 103.299 196.64 103.4C196.452 103.501 196.286 103.637 196.15 103.8C196.009 103.969 195.9 104.162 195.83 104.37C195.756 104.593 195.719 104.826 195.72 105.06C195.718 105.299 195.759 105.536 195.84 105.76C195.917 105.967 196.032 106.157 196.18 106.32C196.325 106.477 196.503 106.6 196.7 106.68C196.909 106.768 197.134 106.813 197.36 106.81V106.81Z" fill="#1F9CD8"/>
<path d="M212.55 106.56V108.43H206.1V99.2002H212.47V101.07H208.19V102.86H211.83V104.59H208.19V106.59L212.55 106.56Z" fill="#1F9CD8"/>
<path d="M220.51 108.43H218.43V104.6C218.465 104.248 218.377 103.894 218.18 103.6C218.1 103.5 217.998 103.42 217.882 103.366C217.765 103.312 217.638 103.286 217.51 103.29C217.359 103.291 217.21 103.321 217.07 103.38C216.916 103.443 216.771 103.527 216.64 103.63C216.5 103.739 216.375 103.867 216.27 104.01C216.163 104.157 216.079 104.318 216.02 104.49V108.4H213.93V101.61H215.8V102.75C216.058 102.339 216.43 102.012 216.87 101.81C217.368 101.581 217.912 101.468 218.46 101.48C218.832 101.462 219.202 101.545 219.53 101.72C219.787 101.87 220.001 102.083 220.15 102.34C220.298 102.599 220.396 102.884 220.44 103.18C220.486 103.471 220.509 103.765 220.51 104.06V108.43Z" fill="#1F9CD8"/>
<path d="M223.59 108.43L221.17 101.6H223.32L224.82 106.76L226.33 101.6H228.27L225.87 108.43H223.59Z" fill="#1F9CD8"/>
<path d="M229.15 100.83V98.9404H231.23V100.82L229.15 100.83ZM229.15 108.44V101.61H231.23V108.44H229.15Z" fill="#1F9CD8"/>
<path d="M237.15 103.39C236.682 103.392 236.218 103.477 235.78 103.64C235.414 103.763 235.103 104.011 234.9 104.34V108.44H232.82V101.61H234.73V103C234.937 102.571 235.246 102.2 235.63 101.92C235.973 101.669 236.385 101.529 236.81 101.52H237.15V103.39Z" fill="#1F9CD8"/>
<path d="M241.41 108.56C240.879 108.567 240.352 108.469 239.86 108.27C239.428 108.095 239.037 107.833 238.71 107.5C238.398 107.177 238.156 106.792 238 106.37C237.68 105.502 237.68 104.548 238 103.68C238.156 103.258 238.398 102.874 238.71 102.55C239.037 102.215 239.428 101.95 239.86 101.77C240.352 101.57 240.879 101.471 241.41 101.48C241.941 101.47 242.469 101.568 242.96 101.77C243.388 101.951 243.776 102.217 244.1 102.55C244.41 102.875 244.652 103.26 244.81 103.68C244.989 104.105 245.087 104.559 245.1 105.02C245.102 105.481 245.021 105.938 244.86 106.37C244.703 106.792 244.462 107.176 244.15 107.5C243.824 107.833 243.432 108.095 243 108.27C242.495 108.474 241.954 108.573 241.41 108.56ZM239.89 105C239.868 105.469 240.021 105.929 240.32 106.29C240.454 106.448 240.621 106.574 240.81 106.658C240.998 106.743 241.203 106.785 241.41 106.78C241.617 106.783 241.823 106.738 242.01 106.65C242.19 106.564 242.35 106.442 242.48 106.29C242.621 106.122 242.73 105.929 242.8 105.72C242.881 105.489 242.922 105.245 242.92 105C242.942 104.532 242.789 104.072 242.49 103.71C242.358 103.553 242.192 103.428 242.006 103.343C241.819 103.259 241.615 103.217 241.41 103.22C241.205 103.219 241.003 103.262 240.816 103.346C240.63 103.431 240.464 103.555 240.33 103.71C240.188 103.878 240.08 104.072 240.01 104.28C239.929 104.512 239.889 104.755 239.89 105V105Z" fill="#1F9CD8"/>
<path d="M252.85 108.43H250.77V104.6C250.805 104.248 250.716 103.894 250.52 103.6C250.44 103.5 250.337 103.42 250.221 103.366C250.105 103.312 249.978 103.286 249.85 103.29C249.699 103.291 249.549 103.321 249.41 103.38C249.256 103.443 249.111 103.527 248.98 103.63C248.839 103.739 248.715 103.867 248.61 104.01C248.503 104.157 248.419 104.318 248.36 104.49V108.4H246.28V101.61H248.1V102.75C248.357 102.339 248.729 102.012 249.17 101.81C249.668 101.581 250.212 101.468 250.76 101.48C251.132 101.462 251.501 101.545 251.83 101.72C252.087 101.87 252.3 102.083 252.45 102.34C252.597 102.6 252.696 102.884 252.74 103.18C252.786 103.471 252.809 103.765 252.81 104.06L252.85 108.43Z" fill="#1F9CD8"/>
<path d="M265.2 108.43H263.1V104.6C263.132 104.248 263.044 103.895 262.85 103.6C262.775 103.501 262.679 103.422 262.567 103.368C262.456 103.314 262.334 103.287 262.21 103.29C262.065 103.291 261.922 103.322 261.79 103.38C261.643 103.44 261.508 103.524 261.39 103.63C261.278 103.748 261.18 103.879 261.1 104.02C261 104.169 260.919 104.33 260.86 104.5V108.41H258.78V104.6C258.812 104.248 258.724 103.895 258.53 103.6C258.455 103.501 258.359 103.422 258.247 103.368C258.136 103.314 258.014 103.287 257.89 103.29C257.589 103.3 257.302 103.417 257.08 103.62C256.807 103.853 256.606 104.158 256.5 104.5V108.41H254.42V101.61H256.29V102.75C256.527 102.345 256.873 102.016 257.29 101.8C257.758 101.576 258.272 101.467 258.79 101.48C259.044 101.473 259.297 101.507 259.54 101.58C259.739 101.644 259.925 101.742 260.09 101.87C260.242 101.985 260.371 102.127 260.47 102.29C260.566 102.448 260.637 102.62 260.68 102.8C260.918 102.383 261.263 102.038 261.68 101.8C262.13 101.565 262.632 101.448 263.14 101.46C263.488 101.451 263.833 101.534 264.14 101.7C264.396 101.85 264.61 102.064 264.76 102.32C264.907 102.58 265.006 102.864 265.05 103.16C265.096 103.451 265.12 103.745 265.12 104.04L265.2 108.43Z" fill="#1F9CD8"/>
<path d="M270 108.56C269.473 108.569 268.95 108.473 268.46 108.28C268.026 108.108 267.631 107.849 267.3 107.52C266.987 107.203 266.742 106.825 266.58 106.41C266.414 105.989 266.329 105.541 266.33 105.09C266.327 104.612 266.412 104.137 266.58 103.69C266.739 103.255 266.988 102.858 267.31 102.526C267.632 102.193 268.021 101.932 268.45 101.76C269.447 101.373 270.553 101.373 271.55 101.76C271.978 101.936 272.366 102.198 272.69 102.53C273.001 102.854 273.243 103.238 273.4 103.66C273.561 104.088 273.642 104.542 273.64 105V105.36C273.647 105.463 273.647 105.566 273.64 105.67H268.64C268.651 105.861 268.701 106.049 268.787 106.221C268.873 106.393 268.993 106.546 269.14 106.67C269.422 106.901 269.775 107.028 270.14 107.03C270.447 107.029 270.749 106.954 271.02 106.81C271.279 106.689 271.483 106.474 271.59 106.21L273.36 106.7C273.075 107.246 272.637 107.697 272.1 108C271.468 108.383 270.739 108.577 270 108.56ZM271.44 104.37C271.41 103.99 271.243 103.635 270.97 103.37C270.7 103.116 270.34 102.98 269.97 102.99C269.787 102.984 269.604 103.014 269.432 103.079C269.26 103.145 269.103 103.243 268.97 103.37C268.703 103.638 268.54 103.992 268.51 104.37H271.44Z" fill="#1F9CD8"/>
<path d="M281.38 108.43H279.3V104.6C279.335 104.248 279.247 103.894 279.05 103.6C278.97 103.5 278.868 103.42 278.751 103.366C278.635 103.312 278.508 103.286 278.38 103.29C278.229 103.291 278.079 103.321 277.94 103.38C277.786 103.443 277.641 103.527 277.51 103.63C277.355 103.739 277.217 103.87 277.1 104.02C276.993 104.167 276.909 104.328 276.85 104.5V108.41H274.77V101.61H276.64V102.75C276.898 102.339 277.269 102.012 277.71 101.81C278.208 101.581 278.752 101.468 279.3 101.48C279.672 101.462 280.041 101.545 280.37 101.72C280.627 101.87 280.84 102.083 280.99 102.34C281.138 102.599 281.236 102.884 281.28 103.18C281.326 103.471 281.349 103.765 281.35 104.06L281.38 108.43Z" fill="#1F9CD8"/>
<path d="M287.22 108C286.894 108.135 286.56 108.248 286.22 108.34C285.859 108.446 285.486 108.499 285.11 108.5C284.863 108.501 284.618 108.467 284.38 108.4C284.161 108.339 283.957 108.234 283.78 108.09C283.599 107.937 283.458 107.741 283.37 107.52C283.264 107.253 283.213 106.968 283.22 106.68V103.16H282.35V101.59H283.22V99.4404H285.3V101.61H286.69V103.18H285.3V106C285.289 106.073 285.292 106.148 285.309 106.219C285.327 106.291 285.358 106.359 285.402 106.418C285.446 106.478 285.501 106.528 285.564 106.566C285.627 106.604 285.697 106.629 285.77 106.64H285.9C286.063 106.638 286.225 106.611 286.38 106.56C286.528 106.515 286.671 106.458 286.81 106.39L287.22 108Z" fill="#1F9CD8"/>
<path d="M294.1 99.2002H296.1L299.47 108.43H297.29L296.58 106.36H293.71L293.01 108.43H290.83L294.1 99.2002ZM296.1 104.89L295.1 101.63L294 104.89H296.1Z" fill="#1F9CD8"/>
<path d="M303.1 108.56C302.516 108.56 301.935 108.466 301.38 108.28C300.852 108.114 300.364 107.838 299.95 107.47L300.69 106.2C301.071 106.465 301.48 106.687 301.91 106.86C302.272 107.008 302.659 107.086 303.05 107.09C303.266 107.103 303.481 107.055 303.67 106.95C303.741 106.906 303.798 106.844 303.837 106.77C303.876 106.696 303.894 106.613 303.89 106.53C303.89 106.438 303.863 106.348 303.814 106.27C303.764 106.192 303.694 106.13 303.61 106.09C303.292 105.936 302.956 105.822 302.61 105.75C302.217 105.645 301.829 105.518 301.45 105.37C301.177 105.272 300.918 105.137 300.68 104.97C300.495 104.84 300.347 104.664 300.25 104.46C300.158 104.245 300.114 104.013 300.12 103.78C300.115 103.459 300.183 103.142 300.318 102.851C300.453 102.56 300.652 102.303 300.9 102.1C301.156 101.893 301.447 101.733 301.76 101.63C302.109 101.516 302.473 101.458 302.84 101.46C303.328 101.457 303.814 101.527 304.28 101.67C304.758 101.827 305.197 102.083 305.57 102.42L304.76 103.67C304.448 103.443 304.113 103.248 303.76 103.09C303.481 102.975 303.182 102.914 302.88 102.91C302.681 102.905 302.484 102.953 302.31 103.05C302.236 103.094 302.174 103.157 302.131 103.233C302.088 103.308 302.065 103.393 302.065 103.48C302.065 103.567 302.088 103.652 302.131 103.727C302.174 103.803 302.236 103.866 302.31 103.91C302.61 104.05 302.926 104.154 303.25 104.22C303.667 104.328 304.077 104.458 304.48 104.61C304.769 104.718 305.042 104.866 305.29 105.05C305.486 105.193 305.644 105.382 305.75 105.6C305.849 105.834 305.897 106.086 305.89 106.34C305.898 106.648 305.834 106.954 305.704 107.233C305.574 107.512 305.381 107.758 305.14 107.95C304.55 108.38 303.83 108.596 303.1 108.56V108.56Z" fill="#1F9CD8"/>
<path d="M309.72 108.56C309.135 108.56 308.554 108.465 308 108.28C307.471 108.115 306.984 107.839 306.57 107.47L307.31 106.2C307.687 106.464 308.093 106.686 308.52 106.86C308.882 107.008 309.269 107.086 309.66 107.09C309.876 107.103 310.091 107.055 310.28 106.95C310.35 106.906 310.408 106.844 310.447 106.77C310.485 106.696 310.504 106.613 310.5 106.53C310.499 106.438 310.473 106.348 310.423 106.27C310.374 106.192 310.303 106.13 310.22 106.09C309.902 105.936 309.566 105.822 309.22 105.75C308.826 105.645 308.439 105.518 308.06 105.37C307.786 105.272 307.527 105.137 307.29 104.97C307.105 104.84 306.957 104.664 306.86 104.46C306.769 104.245 306.724 104.013 306.73 103.78C306.725 103.459 306.793 103.142 306.928 102.851C307.063 102.56 307.262 102.303 307.51 102.1C307.766 101.893 308.057 101.734 308.37 101.63C308.722 101.515 309.09 101.457 309.46 101.46C309.948 101.457 310.433 101.528 310.9 101.67C311.377 101.827 311.817 102.083 312.19 102.42L311.38 103.67C311.068 103.442 310.733 103.248 310.38 103.09C310.101 102.975 309.802 102.914 309.5 102.91C309.301 102.905 309.104 102.954 308.93 103.05C308.858 103.096 308.798 103.16 308.757 103.235C308.716 103.31 308.694 103.394 308.694 103.48C308.694 103.566 308.716 103.65 308.757 103.725C308.798 103.8 308.858 103.864 308.93 103.91C309.23 104.05 309.545 104.154 309.87 104.22C310.287 104.328 310.697 104.458 311.1 104.61C311.389 104.718 311.662 104.866 311.91 105.05C312.106 105.193 312.264 105.382 312.37 105.6C312.469 105.834 312.517 106.086 312.51 106.34C312.517 106.648 312.453 106.954 312.323 107.233C312.193 107.512 312 107.758 311.76 107.95C311.169 108.38 310.45 108.596 309.72 108.56Z" fill="#1F9CD8"/>
<path d="M313.71 100.83V98.9404H315.79V100.82L313.71 100.83ZM313.71 108.44V101.61H315.79V108.44H313.71Z" fill="#1F9CD8"/>
<path d="M320.1 108.56C319.516 108.56 318.935 108.465 318.38 108.28C317.851 108.115 317.364 107.839 316.95 107.47L317.69 106.2C318.068 106.464 318.473 106.686 318.9 106.86C319.262 107.008 319.649 107.086 320.04 107.09C320.256 107.103 320.471 107.055 320.66 106.95C320.731 106.906 320.788 106.844 320.827 106.77C320.866 106.696 320.884 106.613 320.88 106.53C320.88 106.438 320.853 106.348 320.804 106.27C320.754 106.192 320.684 106.13 320.6 106.09C320.282 105.936 319.946 105.822 319.6 105.75C319.207 105.645 318.819 105.518 318.44 105.37C318.167 105.272 317.908 105.137 317.67 104.97C317.485 104.84 317.337 104.664 317.24 104.46C317.149 104.245 317.105 104.013 317.11 103.78C317.105 103.459 317.173 103.142 317.308 102.851C317.443 102.56 317.642 102.303 317.89 102.1C318.146 101.893 318.438 101.734 318.75 101.63C319.102 101.515 319.47 101.457 319.84 101.46C320.328 101.457 320.814 101.528 321.28 101.67C321.758 101.827 322.197 102.083 322.57 102.42L321.76 103.67C321.448 103.442 321.113 103.248 320.76 103.09C320.481 102.975 320.182 102.914 319.88 102.91C319.681 102.905 319.484 102.954 319.31 103.05C319.238 103.096 319.178 103.16 319.137 103.235C319.096 103.31 319.074 103.394 319.074 103.48C319.074 103.566 319.096 103.65 319.137 103.725C319.178 103.8 319.238 103.864 319.31 103.91C319.61 104.05 319.926 104.154 320.25 104.22C320.667 104.328 321.077 104.458 321.48 104.61C321.77 104.718 322.042 104.866 322.29 105.05C322.486 105.193 322.644 105.382 322.75 105.6C322.85 105.834 322.897 106.086 322.89 106.34C322.898 106.648 322.834 106.954 322.704 107.233C322.574 107.512 322.381 107.758 322.14 107.95C321.55 108.38 320.83 108.596 320.1 108.56Z" fill="#1F9CD8"/>
<path d="M328.38 108C328.054 108.135 327.72 108.248 327.38 108.34C327.019 108.446 326.645 108.499 326.27 108.5C326.023 108.501 325.777 108.467 325.54 108.4C325.321 108.339 325.116 108.234 324.94 108.09C324.759 107.937 324.618 107.741 324.53 107.52C324.424 107.253 324.373 106.968 324.38 106.68V103.16H323.51V101.59H324.38V99.4404H326.46V101.61H327.85V103.18H326.46V106C326.448 106.073 326.452 106.148 326.469 106.219C326.487 106.291 326.518 106.359 326.562 106.418C326.605 106.478 326.66 106.528 326.724 106.566C326.787 106.604 326.857 106.629 326.93 106.64H327.06C327.223 106.638 327.385 106.611 327.54 106.56C327.687 106.515 327.831 106.458 327.97 106.39L328.38 108Z" fill="#1F9CD8"/>
<path d="M331.3 108.56C330.98 108.563 330.661 108.509 330.36 108.4C330.084 108.305 329.83 108.155 329.613 107.959C329.397 107.763 329.222 107.525 329.1 107.26C328.977 106.99 328.916 106.697 328.92 106.4C328.916 106.081 328.988 105.766 329.13 105.48C329.275 105.202 329.48 104.959 329.73 104.77C330.007 104.561 330.319 104.402 330.65 104.3C331.032 104.184 331.43 104.126 331.83 104.13C332.108 104.129 332.386 104.152 332.66 104.2C332.902 104.238 333.137 104.309 333.36 104.41V104.1C333.36 103.313 332.903 102.92 331.99 102.92C331.625 102.918 331.262 102.982 330.92 103.11C330.542 103.257 330.183 103.448 329.85 103.68L329.24 102.38C329.673 102.095 330.144 101.872 330.64 101.72C331.143 101.57 331.665 101.496 332.19 101.5C333.049 101.447 333.898 101.706 334.58 102.23C334.87 102.5 335.096 102.832 335.241 103.2C335.386 103.569 335.448 103.965 335.42 104.36V106.12C335.405 106.274 335.441 106.428 335.52 106.56C335.564 106.606 335.617 106.644 335.675 106.669C335.733 106.695 335.796 106.709 335.86 106.71V108.47C335.699 108.508 335.535 108.535 335.37 108.55H335C334.69 108.57 334.381 108.489 334.12 108.32C333.916 108.164 333.78 107.934 333.74 107.68V107.37C333.45 107.749 333.078 108.057 332.65 108.27C332.229 108.47 331.767 108.57 331.3 108.56V108.56ZM331.91 107.07C332.136 107.07 332.359 107.029 332.57 106.95C332.766 106.884 332.946 106.778 333.1 106.64C333.184 106.587 333.255 106.515 333.307 106.43C333.359 106.345 333.391 106.249 333.4 106.15V105.5C333.209 105.429 333.011 105.375 332.81 105.34C332.616 105.302 332.418 105.282 332.22 105.28C331.887 105.267 331.559 105.358 331.28 105.54C331.165 105.612 331.071 105.713 331.006 105.832C330.941 105.951 330.908 106.084 330.91 106.22C330.907 106.339 330.932 106.456 330.982 106.564C331.033 106.672 331.107 106.766 331.2 106.84C331.409 106.98 331.66 107.044 331.91 107.02V107.07Z" fill="#1F9CD8"/>
<path d="M343.75 108.43H341.67V104.6C341.705 104.248 341.617 103.894 341.42 103.6C341.34 103.5 341.238 103.42 341.122 103.366C341.005 103.312 340.878 103.286 340.75 103.29C340.599 103.291 340.45 103.321 340.31 103.38C340.156 103.443 340.011 103.527 339.88 103.63C339.74 103.739 339.615 103.867 339.51 104.01C339.404 104.157 339.319 104.318 339.26 104.49V108.4H337.18V101.61H339V102.75C339.257 102.339 339.629 102.012 340.07 101.81C340.568 101.58 341.112 101.467 341.66 101.48C342.032 101.462 342.402 101.545 342.73 101.72C342.987 101.87 343.201 102.083 343.35 102.34C343.498 102.599 343.596 102.884 343.64 103.18C343.686 103.471 343.709 103.765 343.71 104.06L343.75 108.43Z" fill="#1F9CD8"/>
<path d="M344.91 105C344.909 104.538 344.994 104.08 345.16 103.65C345.323 103.221 345.573 102.83 345.895 102.503C346.217 102.176 346.604 101.919 347.03 101.75C347.522 101.551 348.049 101.452 348.58 101.46C349.281 101.433 349.974 101.607 350.58 101.96C351.099 102.273 351.519 102.727 351.79 103.27L349.79 103.88C349.671 103.675 349.498 103.506 349.29 103.391C349.082 103.277 348.847 103.221 348.61 103.23C348.406 103.226 348.204 103.267 348.017 103.35C347.83 103.433 347.664 103.556 347.53 103.71C347.224 104.067 347.066 104.529 347.09 105C347.089 105.248 347.129 105.495 347.21 105.73C347.282 105.939 347.394 106.133 347.54 106.3C347.677 106.452 347.844 106.575 348.03 106.66C348.237 106.755 348.465 106.799 348.692 106.789C348.92 106.778 349.142 106.713 349.34 106.6C349.544 106.486 349.711 106.316 349.82 106.11L351.82 106.73C351.557 107.272 351.139 107.724 350.62 108.03C350.014 108.382 349.321 108.559 348.62 108.54C348.092 108.549 347.568 108.45 347.08 108.25C346.645 108.07 346.251 107.805 345.92 107.47C345.605 107.146 345.36 106.762 345.2 106.34C345.022 105.915 344.923 105.46 344.91 105V105Z" fill="#1F9CD8"/>
<path d="M356.1 108.56C355.573 108.569 355.05 108.473 354.56 108.28C354.126 108.108 353.731 107.849 353.4 107.52C353.087 107.203 352.842 106.825 352.68 106.41C352.515 105.989 352.43 105.541 352.43 105.09C352.428 104.612 352.513 104.137 352.68 103.69C352.841 103.256 353.09 102.86 353.412 102.528C353.734 102.195 354.122 101.934 354.55 101.76C355.547 101.373 356.653 101.373 357.65 101.76C358.078 101.936 358.466 102.198 358.79 102.53C359.101 102.854 359.343 103.239 359.5 103.66C359.661 104.088 359.742 104.542 359.74 105V105.36C359.746 105.463 359.746 105.566 359.74 105.67H354.74C354.75 105.862 354.8 106.05 354.886 106.222C354.972 106.394 355.093 106.546 355.24 106.67C355.522 106.901 355.875 107.028 356.24 107.03C356.547 107.029 356.849 106.954 357.12 106.81C357.379 106.688 357.582 106.474 357.69 106.21L359.46 106.7C359.148 107.26 358.674 107.713 358.1 108C357.497 108.365 356.805 108.559 356.1 108.56ZM357.54 104.37C357.511 103.99 357.344 103.634 357.07 103.37C356.8 103.116 356.441 102.98 356.07 102.99C355.887 102.984 355.704 103.014 355.532 103.079C355.361 103.145 355.204 103.243 355.07 103.37C354.803 103.637 354.64 103.992 354.61 104.37H357.54Z" fill="#1F9CD8"/>
<path d="M364.25 108.43V99.2004H368.19C368.609 99.1953 369.023 99.2878 369.4 99.4704C369.759 99.6437 370.082 99.8848 370.35 100.18C370.613 100.475 370.823 100.814 370.97 101.18C371.119 101.539 371.197 101.922 371.2 102.31C371.203 102.71 371.132 103.107 370.99 103.48C370.85 103.846 370.647 104.185 370.39 104.48C370.132 104.776 369.815 105.015 369.46 105.18C369.081 105.357 368.668 105.446 368.25 105.44H366.38V108.44L364.25 108.43ZM366.38 103.59H368.1C368.226 103.588 368.351 103.558 368.463 103.501C368.576 103.443 368.674 103.361 368.75 103.26C368.949 102.985 369.045 102.649 369.02 102.31C369.025 102.121 368.998 101.931 368.94 101.75C368.89 101.607 368.812 101.474 368.71 101.36C368.619 101.259 368.506 101.18 368.38 101.13C368.265 101.085 368.143 101.061 368.02 101.06H366.36L366.38 103.59Z" fill="#1F9CD8"/>
<path d="M372.2 98.9404H374.28V106C374.28 106.52 374.5 106.78 374.94 106.78C375.053 106.794 375.167 106.794 375.28 106.78C375.4 106.751 375.514 106.704 375.62 106.64L375.89 108.2C375.602 108.332 375.3 108.43 374.99 108.49C374.677 108.556 374.359 108.589 374.04 108.59C373.79 108.607 373.54 108.575 373.303 108.494C373.066 108.413 372.847 108.286 372.66 108.12C372.492 107.94 372.362 107.727 372.28 107.495C372.197 107.263 372.163 107.016 372.18 106.77L372.2 98.9404Z" fill="#1F9CD8"/>
<path d="M378.79 108.56C378.47 108.564 378.151 108.509 377.85 108.4C377.577 108.303 377.327 108.152 377.114 107.956C376.901 107.76 376.73 107.523 376.61 107.26C376.487 106.99 376.425 106.697 376.43 106.4C376.426 106.081 376.498 105.766 376.64 105.48C376.784 105.202 376.989 104.959 377.24 104.77C377.517 104.561 377.828 104.402 378.16 104.3C378.542 104.183 378.94 104.126 379.34 104.13C379.618 104.129 379.896 104.152 380.17 104.2C380.412 104.238 380.647 104.309 380.87 104.41V104.1C380.87 103.313 380.413 102.92 379.5 102.92C379.135 102.918 378.772 102.982 378.43 103.11C378.052 103.257 377.693 103.448 377.36 103.68L376.75 102.38C377.183 102.095 377.654 101.872 378.15 101.72C378.653 101.57 379.175 101.496 379.7 101.5C380.559 101.447 381.408 101.706 382.09 102.23C382.38 102.5 382.606 102.832 382.751 103.2C382.896 103.569 382.957 103.965 382.93 104.36V106.12C382.915 106.274 382.95 106.428 383.03 106.56C383.074 106.606 383.126 106.644 383.185 106.669C383.243 106.695 383.306 106.709 383.37 106.71V108.47C383.209 108.508 383.045 108.535 382.88 108.55H382.48C382.17 108.57 381.861 108.489 381.6 108.32C381.396 108.164 381.26 107.934 381.22 107.68V107.37C380.93 107.749 380.557 108.057 380.13 108.27C379.712 108.469 379.253 108.568 378.79 108.56V108.56ZM379.4 107.02C379.625 107.02 379.849 106.979 380.06 106.9C380.256 106.834 380.436 106.728 380.59 106.59C380.674 106.537 380.745 106.465 380.797 106.38C380.849 106.295 380.881 106.199 380.89 106.1V105.45C380.699 105.379 380.501 105.325 380.3 105.29C380.105 105.252 379.908 105.232 379.71 105.23C379.377 105.217 379.049 105.308 378.77 105.49C378.655 105.562 378.561 105.663 378.496 105.782C378.431 105.901 378.398 106.034 378.4 106.17C378.397 106.289 378.422 106.406 378.472 106.514C378.523 106.622 378.597 106.716 378.69 106.79C378.895 106.941 379.146 107.015 379.4 107V107.02Z" fill="#1F9CD8"/>
<path d="M388.91 108C388.584 108.135 388.25 108.248 387.91 108.34C387.549 108.445 387.176 108.499 386.8 108.5C386.553 108.501 386.308 108.467 386.07 108.4C385.851 108.34 385.646 108.234 385.47 108.09C385.289 107.937 385.148 107.741 385.06 107.52C384.954 107.253 384.903 106.968 384.91 106.68V103.16H384V101.59H384.87V99.4404H387V101.61H388.39V103.18H387V106C386.989 106.073 386.992 106.148 387.009 106.219C387.027 106.291 387.058 106.359 387.102 106.418C387.146 106.478 387.201 106.528 387.264 106.566C387.327 106.604 387.397 106.629 387.47 106.64H387.6C387.763 106.638 387.925 106.611 388.08 106.56C388.227 106.515 388.371 106.458 388.51 106.39L388.91 108Z" fill="#1F9CD8"/>
<path d="M390.22 108.43V103.74H389.35V102.17H390.22V101.61C390.215 101.217 390.272 100.825 390.39 100.45C390.491 100.128 390.654 99.8288 390.87 99.5699C391.075 99.3295 391.331 99.1381 391.62 99.0099C391.935 98.8721 392.276 98.8039 392.62 98.8099C393.234 98.822 393.84 98.9581 394.4 99.2099L394.02 100.77C393.872 100.706 393.718 100.656 393.56 100.62C393.406 100.582 393.249 100.562 393.09 100.56C392.577 100.56 392.32 100.893 392.32 101.56V102.2H393.91V103.77H392.3V108.46L390.22 108.43Z" fill="#1F9CD8"/>
<path d="M398.21 108.56C397.679 108.567 397.152 108.469 396.66 108.27C396.228 108.095 395.837 107.833 395.51 107.5C395.198 107.176 394.956 106.792 394.8 106.37C394.478 105.502 394.478 104.548 394.8 103.68C394.956 103.259 395.198 102.874 395.51 102.55C395.837 102.215 396.228 101.95 396.66 101.77C397.152 101.57 397.679 101.471 398.21 101.48C398.741 101.47 399.269 101.568 399.76 101.77C400.188 101.951 400.576 102.217 400.9 102.55C401.21 102.875 401.452 103.26 401.61 103.68C401.776 104.111 401.861 104.569 401.86 105.03C401.862 105.491 401.781 105.948 401.62 106.38C401.463 106.802 401.221 107.186 400.91 107.51C400.583 107.843 400.192 108.105 399.76 108.28C399.267 108.475 398.74 108.571 398.21 108.56ZM396.69 105C396.659 105.47 396.805 105.933 397.1 106.3C397.234 106.458 397.401 106.584 397.59 106.668C397.778 106.753 397.983 106.795 398.19 106.79C398.397 106.793 398.602 106.748 398.79 106.66C398.97 106.575 399.13 106.452 399.26 106.3C399.402 106.132 399.51 105.939 399.58 105.73C399.66 105.499 399.701 105.255 399.7 105.01C399.722 104.542 399.568 104.082 399.27 103.72C399.138 103.563 398.972 103.438 398.785 103.353C398.598 103.269 398.395 103.227 398.19 103.23C397.985 103.229 397.782 103.272 397.596 103.356C397.409 103.441 397.243 103.565 397.11 103.72C396.968 103.888 396.86 104.082 396.79 104.29C396.718 104.52 396.684 104.76 396.69 105V105Z" fill="#1F9CD8"/>
<path d="M407.4 103.39C406.932 103.392 406.468 103.477 406.03 103.64C405.664 103.763 405.353 104.011 405.15 104.34V108.44H403.15V101.61H405V103C405.207 102.571 405.516 102.2 405.9 101.92C406.243 101.669 406.655 101.529 407.08 101.52H407.42L407.4 103.39Z" fill="#1F9CD8"/>
<path d="M419.1 108.43H417V104.6C417.032 104.248 416.944 103.895 416.75 103.6C416.675 103.501 416.578 103.422 416.467 103.368C416.356 103.314 416.233 103.287 416.11 103.29C415.965 103.291 415.822 103.322 415.69 103.38C415.544 103.44 415.408 103.525 415.29 103.63C415.164 103.742 415.053 103.87 414.96 104.01C414.86 104.159 414.779 104.32 414.72 104.49V108.4H412.64V104.6C412.672 104.248 412.584 103.895 412.39 103.6C412.315 103.501 412.218 103.422 412.107 103.368C411.996 103.314 411.873 103.287 411.75 103.29C411.449 103.3 411.162 103.417 410.94 103.62C410.667 103.853 410.466 104.158 410.36 104.5V108.41H408.3V101.61H410.17V102.75C410.407 102.345 410.753 102.016 411.17 101.8C411.638 101.576 412.152 101.467 412.67 101.48C412.924 101.474 413.177 101.507 413.42 101.58C413.618 101.644 413.804 101.742 413.97 101.87C414.122 101.985 414.25 102.127 414.35 102.29C414.445 102.448 414.516 102.62 414.56 102.8C414.798 102.383 415.143 102.038 415.56 101.8C416.01 101.565 416.512 101.448 417.02 101.46C417.368 101.451 417.713 101.534 418.02 101.7C418.276 101.85 418.49 102.063 418.64 102.32C418.788 102.579 418.886 102.864 418.93 103.16C419.009 103.442 419.065 103.729 419.1 104.02V108.43Z" fill="#1F9CD8"/>
<path d="M158.89 80.1504V49.6104H165.95V74.0004H180.75V80.1904L158.89 80.1504Z" fill="#1F9CD8"/>
<path d="M205.76 74.0004V80.1904H184.3V49.6104H205.38V55.8004H191.38V61.7404H203.38V67.4604H191.38V74.0004H205.76Z" fill="#1F9CD8"/>
<path d="M220 49.6104H226.37L237.51 80.1504H230.28L227.91 73.3103H218.41L216.09 80.1504H208.86L220 49.6104ZM226.75 68.4503L223.19 57.6504L219.54 68.4503H226.75Z" fill="#1F9CD8"/>
<path d="M240.59 80.1496V49.6095H253.59C254.975 49.6009 256.344 49.9123 257.59 50.5195C258.779 51.1007 259.845 51.9053 260.73 52.8895C261.603 53.8654 262.3 54.9854 262.79 56.1995C263.281 57.3855 263.536 58.6559 263.54 59.9395C263.544 61.2623 263.303 62.5745 262.83 63.8096C262.363 65.0219 261.686 66.1424 260.83 67.1196C259.976 68.0991 258.927 68.8894 257.75 69.4396C256.498 70.0235 255.131 70.3174 253.75 70.2996H247.56V80.1496H240.59ZM247.65 64.1496H253.41C253.826 64.1469 254.236 64.0491 254.609 63.8637C254.981 63.6782 255.307 63.41 255.56 63.0796C256.224 62.1728 256.546 61.0607 256.47 59.9395C256.484 59.3114 256.389 58.6855 256.19 58.0895C256.028 57.6142 255.773 57.1758 255.44 56.7995C255.142 56.4699 254.773 56.2132 254.36 56.0495C253.975 55.8942 253.565 55.8128 253.15 55.8096H247.64L247.65 64.1496Z" fill="#1F9CD8"/>
<path d="M266.43 42.6104C267.491 42.6104 268.508 43.0318 269.259 43.7819C270.009 44.5321 270.43 45.5495 270.43 46.6104V83.6104C270.43 84.6712 270.009 85.6886 269.259 86.4388C268.508 87.1889 267.491 87.6104 266.43 87.6104H154.43C153.369 87.6104 152.352 87.1889 151.602 86.4388C150.852 85.6886 150.43 84.6712 150.43 83.6104V46.6104C150.43 45.5495 150.852 44.5321 151.602 43.7819C152.352 43.0318 153.369 42.6104 154.43 42.6104H266.43ZM266.43 40.6104H154.43C152.839 40.6104 151.313 41.2425 150.188 42.3677C149.062 43.4929 148.43 45.0191 148.43 46.6104V83.6104C148.43 85.2017 149.062 86.7278 150.188 87.853C151.313 88.9782 152.839 89.6104 154.43 89.6104H266.43C268.021 89.6104 269.548 88.9782 270.673 87.853C271.798 86.7278 272.43 85.2017 272.43 83.6104V46.6104C272.43 45.0191 271.798 43.4929 270.673 42.3677C269.548 41.2425 268.021 40.6104 266.43 40.6104Z" fill="#01568A"/>
</g>
<defs>
<clipPath id="clip0">
<rect width="419.28" height="114" fill="white"/>
</clipPath>
</defs>
</svg>
