<?xml version="1.0" encoding="iso-8859-1"?>
<!-- Generator: Adobe Illustrator 19.0.0, SVG Export Plug-In . SVG Version: 6.00 Build 0)  -->
<svg version="1.1" id="Layer_1" xmlns="http://www.w3.org/2000/svg" xmlns:xlink="http://www.w3.org/1999/xlink" x="0px" y="0px"
	 viewBox="0 0 511.989 511.989" style="enable-background:new 0 0 511.989 511.989;" xml:space="preserve">
<g>
	<g>
		<path d="M380.866,88.451L295.54,3.125c-2-2-4.719-3.125-7.547-3.125H10.671C4.765,0,0,4.766,0,10.656v490.661
			c0,5.891,4.766,10.672,10.671,10.672h362.648c5.906,0,10.672-4.781,10.672-10.672V95.997
			C383.991,93.169,382.866,90.451,380.866,88.451z M298.665,36.421l48.904,48.905h-48.904V36.421z M362.663,490.645H21.327V21.327
			h255.994v74.67c0,5.891,4.781,10.656,10.672,10.656h74.67V490.645z"/>
	</g>
</g>
<g>
	<g>
		<path d="M511.988,117.325c0-23.562-19.109-42.671-42.671-42.671s-42.655,19.109-42.655,42.671v287.994h13.218l-13.218,46.217
			l42.655,28.453l42.671-28.453l-13.234-46.217h13.234V117.325z M469.317,454.349l-17.875-11.922l10.625-37.107h14.5l10.625,37.107
			L469.317,454.349z M490.661,383.991h-42.672V117.325c0-11.765,9.578-21.328,21.328-21.328c11.766,0,21.344,9.562,21.344,21.328
			V383.991z"/>
	</g>
</g>
<g>
	<g>
		<path d="M138.669,63.999c-0.031,0-0.062,0-0.078,0s-0.016,0-0.016,0c-0.016,0-0.031,0-0.031,0
			c-46.999,0.062-85.217,38.312-85.217,85.326c0.001,47.045,38.281,85.326,85.342,85.326c47.046,0,85.326-38.28,85.326-85.326
			S185.715,63.999,138.669,63.999z M127.903,212.417c-9.719-1.656-18.703-5.5-26.421-11.031l26.421-26.405V212.417z
			 M127.903,144.809l-41.468,41.468c-7.406-10.437-11.766-23.203-11.766-36.952c0.001-31.625,23.047-57.952,53.234-63.093V144.809z
			 M149.231,212.448V174.98l26.5,26.499C167.981,206.979,158.981,210.823,149.231,212.448z M190.809,186.387l-41.577-41.577V86.201
			c30.28,5.063,53.436,31.437,53.436,63.124C202.668,163.121,198.262,175.918,190.809,186.387z"/>
	</g>
</g>
<g>
	<g>
		<path d="M309.322,277.321H74.857c-5.89,0-10.671,4.781-10.671,10.672s4.781,10.656,10.671,10.656h234.464
			c5.906,0,10.672-4.766,10.672-10.656S315.228,277.321,309.322,277.321z"/>
	</g>
</g>
<g>
	<g>
		<path d="M309.322,341.319H74.857c-5.89,0-10.671,4.766-10.671,10.672c0,5.891,4.781,10.656,10.671,10.656h234.464
			c5.906,0,10.672-4.766,10.672-10.656C319.993,346.085,315.228,341.319,309.322,341.319z"/>
	</g>
</g>
<g>
	<g>
		<path d="M202.668,405.319H74.857c-5.89,0-10.671,4.764-10.671,10.67c0,5.891,4.781,10.656,10.671,10.656h127.81
			c5.875,0,10.656-4.766,10.656-10.656C213.323,410.083,208.543,405.319,202.668,405.319z"/>
	</g>
</g>
<g>
</g>
<g>
</g>
<g>
</g>
<g>
</g>
<g>
</g>
<g>
</g>
<g>
</g>
<g>
</g>
<g>
</g>
<g>
</g>
<g>
</g>
<g>
</g>
<g>
</g>
<g>
</g>
<g>
</g>
</svg>
