<svg id="icons" enable-background="new 0 0 64 64" height="512" viewBox="0 0 64 64" width="512" xmlns="http://www.w3.org/2000/svg"><g><g><g><path d="m36 64c-.553 0-1-.447-1-1 0-3.309 2.691-6 6-6 .553 0 1 .447 1 1s-.447 1-1 1c-2.206 0-4 1.794-4 4 0 .553-.447 1-1 1z"/></g><g><path d="m44 59h-3c-.553 0-1-.447-1-1s.447-1 1-1h3c.553 0 1 .447 1 1s-.447 1-1 1z"/></g><g><path d="m60 64c-.553 0-1-.447-1-1 0-2.206-1.794-4-4-4-.553 0-1-.447-1-1s.447-1 1-1c3.309 0 6 2.691 6 6 0 .553-.447 1-1 1z"/></g><g><path d="m55 59h-3c-.553 0-1-.447-1-1s.447-1 1-1h3c.553 0 1 .447 1 1s-.447 1-1 1z"/></g><g><path d="m44 59c-.553 0-1-.447-1-1v-3.936c0-.553.447-1 1-1s1 .447 1 1v3.936c0 .553-.447 1-1 1z"/></g><g><path d="m52 59c-.553 0-1-.447-1-1v-3.936c0-.553.447-1 1-1s1 .447 1 1v3.936c0 .553-.447 1-1 1z"/></g><g><path d="m53 33h-6c-.553 0-1-.447-1-1s.447-1 1-1h6c.553 0 1 .447 1 1s-.447 1-1 1z"/></g><g><g><path d="m47.999 56c-5.514 0-9.999-4.485-9.999-9.998 0-.553.447-1 1-1s1 .447 1 1c0 4.41 3.588 7.998 7.999 7.998 4.412 0 8.001-3.588 8.001-7.998 0-.553.447-1 1-1s1 .447 1 1c0 5.513-4.486 9.998-10.001 9.998z"/></g><g><path d="m39 47.051c-.553 0-1-.447-1-1v-6.051c0-.553.447-1 1-1s1 .447 1 1v6.051c0 .553-.447 1-1 1z"/></g><g><path d="m57 47.002c-.553 0-1-.447-1-1v-6.002c0-.553.447-1 1-1s1 .447 1 1v6.002c0 .553-.447 1-1 1z"/></g><g><path d="m57 40.998c-.553 0-1-.447-1-1 0-1.653-1.346-2.998-3-2.998-.553 0-1-.447-1-1s.447-1 1-1c2.757 0 5 2.242 5 4.998 0 .553-.447 1-1 1z"/></g><g><path d="m53 37c-.553 0-1-.447-1-1v-4c0-.553.447-1 1-1s1 .447 1 1v4c0 .553-.447 1-1 1z"/></g><g><path d="m39 41c-.553 0-1-.447-1-1 0-4.963 4.037-9 9-9 .553 0 1 .447 1 1s-.447 1-1 1c-3.859 0-7 3.141-7 7 0 .553-.447 1-1 1z"/></g><g><g><path d="m56.999 44.025c-.192 0-.387-.056-.559-.171l-3-2.025c-.458-.31-.578-.931-.27-1.389.31-.457.93-.577 1.389-.27l3 2.025c.458.31.578.931.27 1.389-.193.287-.509.441-.83.441z"/></g><g><path d="m48.5 43c-3.612 0-6.687-1.008-6.815-1.051-.523-.175-.807-.74-.634-1.264.174-.523.74-.809 1.264-.635.029.011 2.908.95 6.185.95 3.178 0 5.04-.888 5.059-.897.493-.241 1.094-.037 1.337.457s.043 1.09-.449 1.336c-.092.044-2.261 1.104-5.947 1.104z"/></g><g><path d="m39.001 44.025c-.321 0-.637-.154-.83-.44-.309-.458-.188-1.079.27-1.389l3-2.025c.459-.308 1.08-.188 1.389.27s.188 1.079-.27 1.389l-3 2.025c-.172.115-.367.17-.559.17z"/></g></g></g><g><path d="m45.999 60c-.15 0-.303-.034-.446-.105l-2-1c-.494-.247-.694-.848-.447-1.342.248-.494.848-.693 1.342-.447l2 1c.494.247.694.848.447 1.342-.176.35-.529.552-.896.552z"/></g><g><path d="m46.001 60c-.367 0-.72-.202-.896-.553-.247-.494-.047-1.095.447-1.342l2-1c.494-.246 1.094-.047 1.342.447.247.494.047 1.095-.447 1.342l-2 1c-.143.072-.296.106-.446.106z"/></g><g><path d="m50.001 60c-.367 0-.72-.202-.896-.553-.247-.494-.047-1.095.447-1.342l2-1c.495-.246 1.094-.047 1.342.447.247.494.047 1.095-.447 1.342l-2 1c-.143.072-.296.106-.446.106z"/></g><g><path d="m49.999 60c-.15 0-.303-.034-.446-.105l-2-1c-.494-.247-.694-.848-.447-1.342.248-.494.849-.693 1.342-.447l2 1c.494.247.694.848.447 1.342-.176.35-.529.552-.896.552z"/></g><g><path d="m47.999 29.002c-.153 0-.306-.035-.446-.105l-1.788-.893h-27.53l-1.789.893c-.281.141-.611.141-.893 0l-1.789-.893h-9.764c-.553 0-1-.447-1-1v-26.004c0-.553.447-1 1-1h56c.553 0 1 .447 1 1v26.004c0 .553-.447 1-1 1h-9.765l-1.79.893c-.14.07-.293.105-.446.105zm-29.999-2.998h28c.155 0 .308.036.446.105l1.553.775 1.555-.775c.139-.069.291-.105.446-.105h9v-24.004h-54v24.004h9c.155 0 .308.036.446.105l1.554.776 1.554-.775c.138-.07.291-.106.446-.106z"/></g><g><path d="m7 46.959c-.553 0-1-.447-1-1v-5.959c0-.553.447-1 1-1s1 .447 1 1v5.959c0 .553-.447 1-1 1z"/></g><g><path d="m25 47c-.553 0-1-.447-1-1v-1.996c0-.553.447-1 1-1s1 .447 1 1v1.996c0 .553-.447 1-1 1z"/></g><g><path d="m5 63c-.553 0-1-.447-1-1 0-2.757 2.243-5 5-5 .553 0 1 .447 1 1s-.447 1-1 1c-1.654 0-3 1.346-3 3 0 .553-.447 1-1 1z"/></g><g><path d="m13 59h-4c-.553 0-1-.447-1-1s.447-1 1-1h4c.553 0 1 .447 1 1s-.447 1-1 1z"/></g><g><path d="m27 63c-.553 0-1-.447-1-1 0-1.654-1.346-3-3-3-.553 0-1-.447-1-1s.447-1 1-1c2.757 0 5 2.243 5 5 0 .553-.447 1-1 1z"/></g><g><path d="m23 59h-4c-.553 0-1-.447-1-1s.447-1 1-1h4c.553 0 1 .447 1 1s-.447 1-1 1z"/></g><g><path d="m13 59c-.553 0-1-.447-1-1v-3.514c0-.553.447-1 1-1s1 .447 1 1v3.514c0 .553-.447 1-1 1z"/></g><g><path d="m19 59c-.553 0-1-.447-1-1v-3.514c0-.553.447-1 1-1s1 .447 1 1v3.514c0 .553-.447 1-1 1z"/></g><g><path d="m15.999 56c-5.514 0-9.999-4.485-9.999-9.998 0-.553.447-1 1-1s1 .447 1 1c0 4.41 3.588 7.998 7.999 7.998 4.412 0 8.001-3.588 8.001-7.998 0-.553.447-1 1-1s1 .447 1 1c0 5.513-4.486 9.998-10.001 9.998z"/></g><g><path d="m16 62c-.256 0-.512-.098-.707-.293l-3-3c-.391-.391-.391-1.023 0-1.414s1.023-.391 1.414 0l3 3c.391.391.391 1.023 0 1.414-.195.195-.451.293-.707.293z"/></g><g><path d="m16 62c-.256 0-.512-.098-.707-.293-.391-.391-.391-1.023 0-1.414l3-3c.391-.391 1.023-.391 1.414 0s.391 1.023 0 1.414l-3 3c-.195.195-.451.293-.707.293z"/></g><g><path d="m13 41c-2.206 0-4-1.794-4-4 0-.553.447-1 1-1s1 .447 1 1c0 1.103.897 2 2 2 .553 0 1 .447 1 1s-.447 1-1 1z"/></g><g><path d="m7 41c-.553 0-1-.447-1-1s.447-1 1-1c1.103 0 2-.897 2-2 0-.553.447-1 1-1s1 .447 1 1c0 2.206-1.794 4-4 4z"/></g><g><path d="m7 37c-.553 0-1-.447-1-1 0-2.206 1.794-4 4-4 .553 0 1 .447 1 1s-.447 1-1 1c-1.103 0-2 .897-2 2 0 .553-.447 1-1 1z"/></g><g><path d="m27 51c-.553 0-1-.447-1-1v-9c0-.553.447-1 1-1s1 .447 1 1v9c0 .553-.447 1-1 1z"/></g><g><path d="m7 41c-.553 0-1-.447-1-1v-4c0-.553.447-1 1-1s1 .447 1 1v4c0 .553-.447 1-1 1z"/></g><g><path d="m17 41h-4c-.553 0-1-.447-1-1s.447-1 1-1h4c.553 0 1 .447 1 1s-.447 1-1 1z"/></g><g><path d="m27 42c-.553 0-1-.447-1-1 0-4.963-4.037-9-9-9-1.948 0-3.803.612-5.362 1.771-.446.328-1.071.235-1.399-.206-.329-.443-.237-1.07.206-1.399 1.907-1.417 4.174-2.166 6.555-2.166 6.065 0 11 4.935 11 11 0 .553-.447 1-1 1z"/></g><g><path d="m27 51.002c-.553 0-1-.447-1-1 0-4.963-4.037-9-9-9-.553 0-1-.447-1-1s.447-1 1-1c6.065 0 11 4.935 11 11 0 .553-.447 1-1 1z"/></g><g><path d="m11.041 33.969h-1.041c-.553 0-1-.447-1-1s.447-1 1-1h1.041c.553 0 1 .447 1 1s-.447 1-1 1z"/></g><g><path d="m10 38c-.553 0-1-.447-1-1v-4.031c0-.553.447-1 1-1s1 .447 1 1v4.031c0 .553-.447 1-1 1z"/></g><g><path d="m56 6h-13c-.553 0-1-.447-1-1s.447-1 1-1h13c.553 0 1 .447 1 1s-.447 1-1 1z"/></g><g><path d="m56 9h-13c-.553 0-1-.447-1-1s.447-1 1-1h13c.553 0 1 .447 1 1s-.447 1-1 1z"/></g><g><path d="m56 12h-13c-.553 0-1-.447-1-1s.447-1 1-1h13c.553 0 1 .447 1 1s-.447 1-1 1z"/></g><g><path d="m56 15h-13c-.553 0-1-.447-1-1s.447-1 1-1h13c.553 0 1 .447 1 1s-.447 1-1 1z"/></g><g><path d="m56 18h-13c-.553 0-1-.447-1-1s.447-1 1-1h13c.553 0 1 .447 1 1s-.447 1-1 1z"/></g><g><path d="m56 21h-13c-.553 0-1-.447-1-1s.447-1 1-1h13c.553 0 1 .447 1 1s-.447 1-1 1z"/></g><g><path d="m53 24h-7c-.553 0-1-.447-1-1s.447-1 1-1h7c.553 0 1 .447 1 1s-.447 1-1 1z"/></g><g><path d="m21 6h-13c-.553 0-1-.447-1-1s.447-1 1-1h13c.553 0 1 .447 1 1s-.447 1-1 1z"/></g><g><path d="m21 9h-13c-.553 0-1-.447-1-1s.447-1 1-1h13c.553 0 1 .447 1 1s-.447 1-1 1z"/></g><g><path d="m21 12h-13c-.553 0-1-.447-1-1s.447-1 1-1h13c.553 0 1 .447 1 1s-.447 1-1 1z"/></g><g><path d="m21 15h-13c-.553 0-1-.447-1-1s.447-1 1-1h13c.553 0 1 .447 1 1s-.447 1-1 1z"/></g><g><path d="m21 18h-13c-.553 0-1-.447-1-1s.447-1 1-1h13c.553 0 1 .447 1 1s-.447 1-1 1z"/></g><g><path d="m21 21h-13c-.553 0-1-.447-1-1s.447-1 1-1h13c.553 0 1 .447 1 1s-.447 1-1 1z"/></g><g><path d="m18 24h-7c-.553 0-1-.447-1-1s.447-1 1-1h7c.553 0 1 .447 1 1s-.447 1-1 1z"/></g><g><path d="m27 64c-.553 0-1-.447-1-1v-1c0-.553.447-1 1-1s1 .447 1 1v1c0 .553-.447 1-1 1z"/></g><g><path d="m5 64c-.553 0-1-.447-1-1v-1c0-.553.447-1 1-1s1 .447 1 1v1c0 .553-.447 1-1 1z"/></g></g><g><g><path d="m36.973 18.004h-9.99c-.553 0-1-.447-1-1v-3c0-.553.447-1 1-1h9.99c.553 0 1 .447 1 1v3c0 .553-.448 1-1 1zm-8.991-2h7.99v-1h-7.99z"/></g><g><path d="m34.972 23.995h-5.988c-.488 0-.906-.354-.986-.835l-1.001-5.991c-.049-.29.033-.587.224-.812.189-.225.469-.354.763-.354h7.99c.294 0 .573.129.763.354s.272.521.224.812l-1.001 5.991c-.082.482-.5.835-.988.835zm-5.142-2h4.295l.667-3.991h-5.629z"/></g><g><path d="m31.979 15.006c-.553 0-1-.447-1-1v-3.996c0-.553.447-1 1-1s1 .447 1 1v3.996c0 .553-.447 1-1 1z"/></g><g><path d="m31.979 11.01c-.553 0-1-.447-1-1 0-3.308 2.69-5.998 5.998-5.998.553 0 1 .447 1 1s-.447 1-1 1c-2.204 0-3.998 1.794-3.998 3.998 0 .553-.447 1-1 1z"/></g><g><path d="m31.977 13.007c-.553 0-1-.447-1-1 0-2.205-1.794-3.999-3.999-3.999-.553 0-1-.447-1-1s.447-1 1-1c3.308 0 5.999 2.691 5.999 5.999 0 .553-.448 1-1 1z"/></g></g></g></svg>