<svg version="1.1" viewBox="0.0 0.0 100.0 100.0" fill="none" stroke="none" stroke-linecap="square" stroke-miterlimit="10" xmlns:xlink="http://www.w3.org/1999/xlink" xmlns="http://www.w3.org/2000/svg"><clipPath id="p.0"><path d="m0 0l100.0 0l0 100.0l-100.0 0l0 -100.0z" clip-rule="nonzero"/></clipPath><g clip-path="url(#p.0)"><path fill="#000000" fill-opacity="0.0" d="m0 0l100.0 0l0 100.0l-100.0 0z" fill-rule="evenodd"/><path fill="#000000" fill-opacity="0.0" d="m0.75824594 0.15164803l0.3149606 95.08662" fill-rule="evenodd"/><path stroke="#000000" stroke-width="3.0" stroke-linejoin="round" stroke-linecap="butt" d="m0.75824594 0.15164803l0.3149606 95.08662" fill-rule="evenodd"/><path fill="#000000" fill-opacity="0.0" d="m-0.27296588 0.62204725l42.3937 0" fill-rule="evenodd"/><path stroke="#000000" stroke-width="3.0" stroke-linejoin="round" stroke-linecap="butt" d="m-0.27296588 0.62204725l42.3937 0" fill-rule="evenodd"/><path fill="#000000" fill-opacity="0.0" d="m0.40682414 94.72966l49.228344 0" fill-rule="evenodd"/><path stroke="#000000" stroke-width="3.0" stroke-linejoin="round" stroke-linecap="butt" d="m0.40682414 94.72966l49.228344 0" fill-rule="evenodd"/><path fill="#000000" fill-opacity="0.0" d="m39.64039 84.91076l0 0c5.077549 0 9.34911 3.739273 9.93354 8.695702l-9.93354 1.131073z" fill-rule="evenodd"/><path fill="#000000" fill-opacity="0.0" d="m39.64039 84.91076l0 0c5.077549 0 9.34911 3.739273 9.93354 8.695702" fill-rule="evenodd"/><path stroke="#000000" stroke-width="3.0" stroke-linejoin="round" stroke-linecap="butt" d="m39.64039 84.91076l0 0c5.077549 0 9.34911 3.739273 9.93354 8.695702" fill-rule="evenodd"/><path fill="#000000" fill-opacity="0.0" d="m0.8057438 84.91076l38.834644 0" fill-rule="evenodd"/><path stroke="#000000" stroke-width="3.0" stroke-linejoin="round" stroke-linecap="butt" d="m0.8057438 84.91076l38.834644 0" fill-rule="evenodd"/><path fill="#000000" fill-opacity="0.0" d="m49.633514 0l0 96.44095" fill-rule="evenodd"/><path stroke="#000000" stroke-width="3.0" stroke-linejoin="round" stroke-linecap="butt" d="m49.633514 0l0 96.44095" fill-rule="evenodd"/><path fill="#000000" fill-opacity="0.0" d="m9.181094 16.099977l25.858269 0" fill-rule="evenodd"/><path stroke="#000000" stroke-width="3.0" stroke-linejoin="round" stroke-linecap="butt" d="m9.181094 16.099977l25.858269 0" fill-rule="evenodd"/><path fill="#000000" fill-opacity="0.0" d="m9.181094 28.434025l25.858269 0" fill-rule="evenodd"/><path stroke="#000000" stroke-width="3.0" stroke-linejoin="round" stroke-linecap="butt" d="m9.181094 28.434025l25.858269 0" fill-rule="evenodd"/><path fill="#000000" fill-opacity="0.0" d="m9.181094 42.58153l25.858269 0" fill-rule="evenodd"/><path stroke="#000000" stroke-width="3.0" stroke-linejoin="round" stroke-linecap="butt" d="m9.181094 42.58153l25.858269 0" fill-rule="evenodd"/><path fill="#000000" fill-opacity="0.0" d="m99.24175 0.15164803l-0.31495667 95.08662" fill-rule="evenodd"/><path stroke="#000000" stroke-width="3.0" stroke-linejoin="round" stroke-linecap="butt" d="m99.24175 0.15164803l-0.31495667 95.08662" fill-rule="evenodd"/><path fill="#000000" fill-opacity="0.0" d="m99.727036 94.73753l-49.354332 0" fill-rule="evenodd"/><path stroke="#000000" stroke-width="3.0" stroke-linejoin="round" stroke-linecap="butt" d="m99.727036 94.73753l-49.354332 0" fill-rule="evenodd"/><path fill="#000000" fill-opacity="0.0" d="m60.359615 84.91076l0 0c-5.077549 0 -9.34911 3.739273 -9.93354 8.695702l9.93354 1.131073z" fill-rule="evenodd"/><path fill="#000000" fill-opacity="0.0" d="m60.359615 84.91076l0 0c-5.077549 0 -9.34911 3.739273 -9.93354 8.695702" fill-rule="evenodd"/><path stroke="#000000" stroke-width="3.0" stroke-linejoin="round" stroke-linecap="butt" d="m60.359615 84.91076l0 0c-5.077549 0 -9.34911 3.739273 -9.93354 8.695702" fill-rule="evenodd"/><path fill="#000000" fill-opacity="0.0" d="m99.19426 84.91076l-38.834644 0" fill-rule="evenodd"/><path stroke="#000000" stroke-width="3.0" stroke-linejoin="round" stroke-linecap="butt" d="m99.19426 84.91076l-38.834644 0" fill-rule="evenodd"/><path fill="#000000" fill-opacity="0.0" d="m50.366486 0l0 96.44095" fill-rule="evenodd"/><path stroke="#000000" stroke-width="3.0" stroke-linejoin="round" stroke-linecap="butt" d="m50.366486 0l0 96.44095" fill-rule="evenodd"/><path fill="#000000" fill-opacity="0.0" d="m90.81891 16.099977l-25.858269 0" fill-rule="evenodd"/><path stroke="#000000" stroke-width="3.0" stroke-linejoin="round" stroke-linecap="butt" d="m90.81891 16.099977l-25.858269 0" fill-rule="evenodd"/><path fill="#000000" fill-opacity="0.0" d="m90.81891 28.434025l-25.858269 0" fill-rule="evenodd"/><path stroke="#000000" stroke-width="3.0" stroke-linejoin="round" stroke-linecap="butt" d="m90.81891 28.434025l-25.858269 0" fill-rule="evenodd"/><path fill="#000000" fill-opacity="0.0" d="m90.81891 42.58153l-25.858269 0" fill-rule="evenodd"/><path stroke="#000000" stroke-width="3.0" stroke-linejoin="round" stroke-linecap="butt" d="m90.81891 42.58153l-25.858269 0" fill-rule="evenodd"/><path fill="#000000" fill-opacity="0.0" d="m41.842556 0.6221874l0 0c2.0984192 0 4.1085854 0.73877966 5.577633 2.0499c1.4690475 1.3111205 2.2734032 3.0842984 2.2318573 4.9200563l-7.80949 -0.13531113z" fill-rule="evenodd"/><path fill="#000000" fill-opacity="0.0" d="m41.842556 0.6221874l0 0c2.0984192 0 4.1085854 0.73877966 5.577633 2.0499c1.4690475 1.3111205 2.2734032 3.0842984 2.2318573 4.9200563" fill-rule="evenodd"/><path stroke="#000000" stroke-width="3.0" stroke-linejoin="round" stroke-linecap="butt" d="m41.842556 0.6221874l0 0c2.0984192 0 4.1085854 0.73877966 5.577633 2.0499c1.4690475 1.3111205 2.2734032 3.0842984 2.2318573 4.9200563" fill-rule="evenodd"/><path fill="#000000" fill-opacity="0.0" d="m100.13648 0.61417323l-42.204723 0" fill-rule="evenodd"/><path stroke="#000000" stroke-width="3.0" stroke-linejoin="round" stroke-linecap="butt" d="m100.13648 0.61417323l-42.204723 0" fill-rule="evenodd"/><path fill="#000000" fill-opacity="0.0" d="m58.171227 0.61431336l0 0c-2.098423 0 -4.108589 0.73877966 -5.5776367 2.0499c-1.4690437 1.3111205 -2.2734032 3.0842984 -2.2318573 4.9200563l7.809494 -0.13531113z" fill-rule="evenodd"/><path fill="#000000" fill-opacity="0.0" d="m58.171227 0.61431336l0 0c-2.098423 0 -4.108589 0.73877966 -5.5776367 2.0499c-1.4690437 1.3111205 -2.2734032 3.0842984 -2.2318573 4.9200563" fill-rule="evenodd"/><path stroke="#000000" stroke-width="3.0" stroke-linejoin="round" stroke-linecap="butt" d="m58.171227 0.61431336l0 0c-2.098423 0 -4.108589 0.73877966 -5.5776367 2.0499c-1.4690437 1.3111205 -2.2734032 3.0842984 -2.2318573 4.9200563" fill-rule="evenodd"/></g></svg>