<svg id="Layer_3" enable-background="new 0 0 64 64" height="512" viewBox="0 0 64 64" width="512" xmlns="http://www.w3.org/2000/svg"><g><path d="m26 14c-6.617 0-12 5.383-12 12s5.383 12 12 12 12-5.383 12-12-5.383-12-12-12zm0 22c-5.514 0-10-4.486-10-10s4.486-10 10-10 10 4.486 10 10-4.486 10-10 10z"/><path d="m61.879 56.464-10.879-10.878v-39.586c0-.552-.447-1-1-1h-3v-3c0-.552-.447-1-1-1h-34c-.266 0-.52.105-.707.293l-10 10c-.188.187-.293.442-.293.707v46c0 .552.447 1 1 1h3v3c0 .552.447 1 1 1h44c.553 0 1-.448 1-1v-5.587l5.465 5.465c.723.724 1.683 1.122 2.707 1.122 2.11 0 3.828-1.717 3.828-3.829 0-1.022-.398-1.983-1.121-2.707zm-12.879-49.464v36.586l-2-2v-34.586zm-38-2.586v6.586h-6.586zm-8 8.586h9c.553 0 1-.448 1-1v-9h32v36.586l-1.655-1.655c.399-.755.29-1.71-.345-2.345l-2.619-2.619c1.026-2.11 1.619-4.468 1.619-6.967 0-8.822-7.178-16-16-16s-16 7.178-16 16 7.178 16 16 16c2.499 0 4.857-.593 6.967-1.619l2.619 2.619c.39.39.902.585 1.414.585.321 0 .64-.086.931-.24l7.069 7.069v6.586h-42zm34 28.586-2.223-2.223c1.823-1.201 3.385-2.763 4.586-4.586l2.223 2.223zm-11-1.586c-7.72 0-14-6.28-14-14s6.28-14 14-14 14 6.28 14 14-6.28 14-14 14zm23 21h-42v-2h39c.553 0 1-.448 1-1v-5.586l2 2zm10.172 0c-.481 0-.952-.195-1.293-.536l-18.465-18.464 2.586-2.586 18.465 18.464c.345.346.535.805.535 1.293 0 1.009-.82 1.829-1.828 1.829z"/><path d="m17 7h24v2h-24z"/><path d="m7 51h34v2h-34z"/><path d="m7 47h34v2h-34z"/><path d="m7 43h26v2h-26z"/><path d="m28.793 24.855c.743-.727 1.207-1.736 1.207-2.855 0-2.206-1.794-4-4-4s-4 1.794-4 4c0 1.119.464 2.128 1.207 2.855-1.331.9-2.207 2.422-2.207 4.145v3c0 .552.447 1 1 1h8c.553 0 1-.448 1-1v-3c0-1.723-.876-3.245-2.207-4.145zm-4.793-2.855c0-1.103.897-2 2-2s2 .897 2 2-.897 2-2 2-2-.897-2-2zm5 9h-6v-2c0-1.654 1.346-3 3-3s3 1.346 3 3z"/></g></svg>