<svg width="100%" height="100%" viewBox="0 0 500 287" version="1.1" xmlns="http://www.w3.org/2000/svg" xmlns:xlink="http://www.w3.org/1999/xlink" xml:space="preserve" xmlns:serif="http://www.serif.com/" style="fill-rule:evenodd;clip-rule:evenodd;stroke-linecap:round;stroke-linejoin:round;stroke-miterlimit:1.5;">
    <g id="Layer1" transform="matrix(10.7081,0,0,9.8507,-2546.64,-2365.36)">
        <g transform="matrix(0.0891072,0,0,0.101516,228.885,231.695)">
            <path d="M311.557,250.615L194.642,300" style="fill:none;stroke:black;stroke-width:20.46px;"/>
        </g>
        <g transform="matrix(0.0933872,0,0,0.0822125,227.551,235.718)">
            <path d="M311.557,208.367L200,140" style="fill:none;stroke:black;stroke-width:21.98px;"/>
        </g>
        <g transform="matrix(0.0933872,0,0,0.101516,227.551,231.695)">
            <circle cx="357.443" cy="229.491" r="50.509" style="fill:none;stroke:black;stroke-width:20px;"/>
        </g>
        <g transform="matrix(0.0933872,0,0,0.101516,227.551,231.695)">
            <circle cx="160" cy="133" r="40" style="fill:none;stroke:black;stroke-width:20px;"/>
        </g>
        <g transform="matrix(0.0933872,0,0,0.101516,227.551,231.695)">
            <circle cx="160" cy="320" r="40" style="fill:none;stroke:black;stroke-width:20px;"/>
        </g>
        <g transform="matrix(-0.0891072,0,0,0.101516,293.457,231.695)">
            <path d="M311.557,250.615L194.642,300" style="fill:none;stroke:black;stroke-width:20.46px;"/>
        </g>
        <g transform="matrix(-0.0933872,0,0,0.0822125,294.79,235.718)">
            <path d="M311.557,208.367L200,140" style="fill:none;stroke:black;stroke-width:21.98px;"/>
        </g>
        <g transform="matrix(-0.0933872,0,0,0.101516,294.79,231.695)">
            <circle cx="160" cy="133" r="40" style="fill:none;stroke:black;stroke-width:20px;"/>
        </g>
        <g transform="matrix(-0.0933872,0,0,0.101516,294.79,231.695)">
            <circle cx="160" cy="320" r="40" style="fill:none;stroke:black;stroke-width:20px;"/>
        </g>
    </g>
</svg>
