<?xml version="1.0" encoding="UTF-8" standalone="no"?><!DOCTYPE svg  PUBLIC '-//W3C//DTD SVG 1.1//EN'  'http://www.w3.org/Graphics/SVG/1.1/DTD/svg11.dtd'><svg xmlns="http://www.w3.org/2000/svg" xmlns:xlink="http://www.w3.org/1999/xlink"><symbol viewBox="0 0 87.384 95.279" id="access" xmlns="http://www.w3.org/2000/svg"><defs><clipPath id="aaa" clipPathUnits="userSpaceOnUse"><path d="M0 71.459h65.538V0H0z"/></clipPath></defs><g clip-path="url(#aaa)" transform="matrix(1.33333 0 0 -1.33333 0 95.279)"><path d="M7.613 31.462c5.195 4.96 13.961 10.361 26.212 7.88 16.752-3.37 24.932 11.882 26.074 14.242l5.64-3.574c-1.128-2.089-3.622-6.208-7.623-10.004-5.186-4.968-13.94-10.37-26.194-7.896C14.938 35.495 6.77 20.172 5.638 17.874L0 21.448c1.12 2.097 3.63 6.201 7.613 10.014" fill="#404040"/><path d="M37.337 67.885l-5.638 3.574c-1.417-1.906-4.061-5.93-5.805-11.156-1.501-4.493-2.508-10.49-.866-16.927a31.81 31.81 0 007.7-.157c-4.955 11.924 3.15 22.88 4.609 24.666M28.202 3.574L33.84 0c1.41 1.914 4.067 5.923 5.796 11.166 1.508 4.48 2.505 10.487.89 16.9a32.225 32.225 0 00-7.726.18c4.966-11.952-3.184-22.915-4.598-24.672" fill="#404040"/><path d="M64.596 48.423c-.552-.87-2.273-.762-3.823.22L32.507 66.56c-1.567.994-2.382 2.493-1.83 3.363.544.856 2.246.76 3.815-.233l28.265-17.916c1.549-.982 2.383-2.493 1.839-3.35M34.875 1.532c.551.871-.285 2.375-1.834 3.358L4.774 22.806c-1.567.993-3.267 1.095-3.818.225-.547-.862.269-2.359 1.836-3.352L31.06 1.763c1.547-.982 3.269-1.093 3.815-.23" fill="#404040"/></g></symbol><symbol class="absvg-inline--fa abfa-angle-down abfa-w-10" viewBox="0 0 320 512" id="angle-down-solid" xmlns="http://www.w3.org/2000/svg"><path fill="#dedede" d="M143 352.3L7 216.3c-9.4-9.4-9.4-24.6 0-33.9l22.6-22.6c9.4-9.4 24.6-9.4 33.9 0l96.4 96.4 96.4-96.4c9.4-9.4 24.6-9.4 33.9 0l22.6 22.6c9.4 9.4 9.4 24.6 0 33.9l-136 136c-9.2 9.4-24.4 9.4-33.8 0z"/></symbol><symbol viewBox="0 0 140 230" id="arrow_white" xmlns="http://www.w3.org/2000/svg"><path fill="#fff" d="M0 0l140 115L0 230z"/></symbol><symbol viewBox="0 0 78.937 78.973" id="assignments" xmlns="http://www.w3.org/2000/svg"><defs><clipPath id="ada" clipPathUnits="userSpaceOnUse"><path d="M0 59.229h59.203V0H0z"/></clipPath></defs><g clip-path="url(#ada)" transform="matrix(1.33333 0 0 -1.33333 0 78.973)"><path d="M30.986 18.144c.494-.481.114-1.097-.875-1.376l-6.998-1.895c-.964-.253-1.534.317-1.28 1.287l1.888 6.999c.292.995.901 1.375 1.382.893zM37.58 21.453l13.122 13.104 2.765 2.84-3.589 3.6-1.902 1.915-3.664 3.64-2.814-2.817L28.4 30.632c-1.19-2.023-.925-4.723.8-6.466l1.913-1.914c1.75-1.744 4.412-2.01 6.467-.799M46.138 48.56l2.295-2.358 4.717-4.723 2.307-2.39 2.777 2.764a3.33 3.33 0 010 4.698l-4.742 4.723a3.28 3.28 0 01-4.666 0z" fill="#404040"/><path d="M40.725 13.09h-9.041V3.823l-.012-.037H8.19a4.544 4.544 0 00-4.538 4.533v42.6c0 1.21.469 2.34 1.318 3.195a4.547 4.547 0 003.22 1.338h28.02c1.204 0 2.333-.482 3.196-1.338a4.445 4.445 0 001.319-3.195v-2.725l.976.963c.278.298.608.52.95.69.178.496.47.927.838 1.313l.86.875a7.66 7.66 0 01-2.243 4.888c-1.42 1.413-3.36 2.308-5.527 2.308H7.786c-2.144 0-4.096-.895-5.504-2.308A7.666 7.666 0 010 51.438V7.817C0 3.506 3.487 0 7.786 0H31.912c.837 0 1.624.368 2.219.945l9.344 9.344c.559.532.863 1.3.9 2.073.026.115.026.228.026.355h-.026v10.302l-3.65-3.626z" fill="#404040"/><path d="M9.242 44.42h25.903a1.87 1.87 0 011.865 1.857c0 1.022-.85 1.839-1.865 1.839H9.242a1.838 1.838 0 01-1.85-1.84 1.85 1.85 0 011.85-1.856M9.242 40.705a1.84 1.84 0 01-1.85-1.845c0-1.02.823-1.838 1.85-1.838h20.312l3.702 3.683zM25.8 33.231l.064.09H9.242c-1.027 0-1.85-.85-1.85-1.853a1.85 1.85 0 011.85-1.857h14.86c.216.995.57 1.965 1.116 2.897.165.26.368.501.583.723M20.982 25.91H9.242a1.838 1.838 0 01-1.85-1.858c0-.983.822-1.839 1.85-1.839h10.396l.521 1.94a5.59 5.59 0 00.823 1.756M18.258 17.142l.38 1.376H9.242a1.855 1.855 0 01-1.85-1.863c0-1.015.823-1.833 1.85-1.833h8.914c-.152.723-.115 1.528.102 2.32" fill="#404040"/></g></symbol><symbol viewBox="0 0 1280 1280" id="bullet" xmlns="http://www.w3.org/2000/svg"><path d="M619.5 31c-123.6 6.4-242.7 50.7-340.2 126.7-40.2 31.3-80.3 72.2-110.8 112.8-60.6 81-100 175.3-114.4 274-4.8 33.2-5.5 44.1-5.5 87.5s.7 54.3 5.5 87.5c11.4 78 39.2 155.5 80 223.1C252.8 1139.3 472.2 1251 701 1231.4c171.3-14.7 327.5-101.6 430.8-239.9 49.1-65.7 85.6-144.6 104.1-225 14.8-64.5 18.8-135.2 11.5-200.5C1219.3 314.4 1038 108 792 47.5 738.3 34.3 674.4 28.2 619.5 31zm71 225.4c64.8 7.5 125.1 30.4 177.2 67.3 26 18.4 57.2 47.8 76.6 72.2 44.2 55.6 70.7 118.5 80.4 191.1 2.5 18.9 2.5 71.6 0 90.5-10.2 75.8-39.7 142.9-87.6 199.5-12.4 14.5-36.8 38.3-50.9 49.5-57.9 45.9-123.6 73-197.7 81.5-26.5 3-64.4 2.2-93-2-123.6-18.3-228.3-93.9-284.1-205.3-20.9-41.6-33.8-86.9-38.4-134.7-1.4-14.6-1.4-52 0-67.5 6.8-74.6 35.2-144.9 82.6-204.2 10-12.5 33.8-37 47.3-48.6 61.1-52.6 137.2-84.1 219.1-90.6 15.4-1.3 52.4-.5 68.5 1.3z"/></symbol><symbol viewBox="0 0 111.706 113.952" id="calendar" xmlns="http://www.w3.org/2000/svg"><defs><clipPath id="afa" clipPathUnits="userSpaceOnUse"><path d="M0 85.464h83.779V0H0z"/></clipPath></defs><g clip-path="url(#afa)" transform="matrix(1.33333 0 0 -1.33333 0 113.952)"><path d="M63.898 32.834a9.244 9.244 0 01-1.867 2.825 8.36 8.36 0 01-2.752 1.863c-2.162.946-4.682.982-7.58-.388l.838 4.767h8.213c.988 0 1.742.204 2.27.656.544.463.817 1.055.817 1.796 0 1.145-.546 2.52-3.214 2.52h-9.45c-1.132 0-1.974-.263-2.498-.819-.525-.525-.86-1.318-1.029-2.442l-1.533-8.593c-.21-1.171-.21-1.245-.21-1.292 0-.636.294-1.228.817-1.723.526-.487 1.157-.744 1.828-.744.631 0 1.366.335 2.268 1.023.818.62 1.45 1.045 1.89 1.291.253.153.84.331 2.016.331.756 0 1.471-.194 2.078-.54.631-.368 1.137-.925 1.493-1.675.398-.772.566-1.696.566-2.767 0-1.013-.168-1.911-.525-2.704-.336-.761-.84-1.391-1.49-1.816-.608-.425-1.366-.646-2.206-.646a4.11 4.11 0 00-2.498.813c-.758.531-1.365 1.334-1.806 2.332-.547 1.302-1.45 1.969-2.604 1.969a2.247 2.247 0 01-1.723-.751c-.46-.484-.693-1.019-.693-1.586 0-.84.275-1.79.883-2.877.588-1.081 1.576-2.026 2.982-2.856 1.365-.824 3.192-1.249 5.397-1.249 1.996 0 3.738.446 5.271 1.312 1.531.861 2.71 2.048 3.506 3.539.8 1.459 1.22 3.134 1.22 4.935a9.254 9.254 0 01-.675 3.496m-23.393-8.479c-.566.436-1.386.646-2.373.646h-8.65c.145.199.293.389.44.551.65.788 1.888 1.922 3.654 3.371 1.806 1.465 3.107 2.573 3.863 3.25.8.72 1.576 1.701 2.332 2.966.777 1.25 1.176 2.683 1.176 4.232 0 .992-.21 1.958-.59 2.882a7.499 7.499 0 01-1.553 2.435 7.602 7.602 0 01-2.308 1.681c-1.346.598-2.983.892-4.873.892-1.555 0-2.94-.236-4.096-.714-1.176-.457-2.164-1.076-2.94-1.859-.777-.755-1.365-1.601-1.744-2.561-.377-.94-.566-1.859-.566-2.725 0-.782.232-1.433.693-1.901.461-.467 1.071-.692 1.764-.692.797 0 1.428.273 1.85.792.378.462.712 1.129 1.007 1.959.358 1.007.502 1.292.567 1.391.818 1.27 1.91 1.89 3.36 1.89a4.07 4.07 0 001.91-.468 3.304 3.304 0 001.324-1.26c.335-.54.503-1.17.503-1.848 0-.661-.168-1.333-.482-2.005-.316-.698-.82-1.402-1.449-2.058-.612-.672-1.406-1.365-2.352-2.042-.588-.368-1.49-1.15-2.814-2.363a97.918 97.918 0 01-4.305-4.263c-.422-.43-.818-1.034-1.137-1.774-.355-.772-.545-1.386-.545-1.885 0-.772.317-1.459.883-2.011.567-.572 1.365-.866 2.373-.866h13.21c.902 0 1.595.246 2.038.74.461.473.692 1.066.692 1.754 0 .782-.274 1.407-.862 1.863m39.946 39.733V6.581c-.91-4.722-8.584-3.209-12.145-3.209H7.481c-5.005 0-4.153 4.876-4.153 8.415V68.822c0 4.575 9.262 3.104 11.461 3.104h4.73v-9.2c0-2.096 3.25-2.096 3.25 0v9.2H40.7v-9.2c0-2.096 3.25-2.096 3.25 0v9.2h17.932v-9.2c0-2.096 3.25-2.096 3.25 0v9.2h10.872c4.834 0 4.446-4.463 4.446-7.838m1.414 9.251c-2.06 2.667-7.449 1.837-10.363 1.837h-6.369v8.716c0 2.096-3.25 2.096-3.25 0v-8.716H43.951v8.716c0 2.096-3.25 2.096-3.25 0v-8.716H22.768v8.716c0 2.096-3.25 2.096-3.25 0v-8.716H9.241c-4.185 0-9.163-.84-9.163-6.271V13.022c0-3.871-.657-7.836 1.836-11.063C3.974-.707 9.372.122 12.276.122h61.822c4.358 0 8.81.419 9.542 5.827.035.137.061.282.061.444V62.276c0 3.871.656 7.836-1.836 11.063"/></g></symbol><symbol class="agsvg-inline--fa agfa-check agfa-w-16" viewBox="0 0 512 512" id="check-solid" xmlns="http://www.w3.org/2000/svg"><path fill="#fff" d="M173.898 439.404l-166.4-166.4c-9.997-9.997-9.997-26.206 0-36.204l36.203-36.204c9.997-9.998 26.207-9.998 36.204 0L192 312.69 432.095 72.596c9.997-9.997 26.207-9.997 36.204 0l36.203 36.204c9.997 9.997 9.997 26.206 0 36.204l-294.4 294.401c-9.998 9.997-26.207 9.997-36.204-.001z"/></symbol><symbol fill="none" viewBox="0 0 24 24" id="chevron-down" xmlns="http://www.w3.org/2000/svg"><path d="M6 9l6 6 6-6" stroke="#666" stroke-width="2" stroke-linecap="round" stroke-linejoin="round"/></symbol><symbol viewBox="0 0 110.53 110.523" id="completion" xmlns="http://www.w3.org/2000/svg"><defs><clipPath id="aia" clipPathUnits="userSpaceOnUse"><path d="M0 82.893h82.897V0H0z"/></clipPath></defs><g clip-path="url(#aia)" transform="matrix(1.33333 0 0 -1.33333 0 110.523)"><path d="M39.493 12.17h.132c1.542-.1 2.417-1.68 3.435-3.511.204-.367.475-.854.735-1.27.193.445.398.975.545 1.357.757 1.952 1.415 3.639 2.926 3.94.136.03.285.052.427.052 1.34 0 2.482-1.185 3.803-2.55.287-.286.675-.696 1.03-1.027.075.482.136 1.042.183 1.45.226 2.076.42 3.886 1.801 4.567.306.152.655.23 1.022.23 1.12 0 2.318-.717 3.708-1.55.356-.208.837-.496 1.268-.732a29.984 29.984 0 01-.202 1.45c-.316 2.068-.595 3.856.561 4.876.438.388 1.025.588 1.752.588.923 0 2-.308 3.162-.632.446-.128.962-.28 1.408-.386-.172.459-.4.968-.575 1.349-.847 1.918-1.565 3.576-.717 4.855.763 1.14 2.297 1.234 3.805 1.234.315 0 .633 0 .948-.015.531 0 1.092-.006 1.466 0-.288.404-.647.834-.892 1.157-1.32 1.63-2.456 3.045-1.966 4.503.488 1.464 2.255 1.91 4.28 2.412.402.1.948.244 1.407.38-.373.31-.819.64-1.164.883-1.68 1.236-3.144 2.299-3.044 3.843.087 1.544 1.666 2.419 3.503 3.439.36.2.85.474 1.264.733-.446.2-.96.395-1.349.546-1.953.76-3.649 1.407-3.95 2.929-.302 1.507.99 2.765 2.5 4.223.3.286.703.675 1.033 1.033a37.07 37.07 0 01-1.45.18c-2.083.222-3.878.423-4.567 1.802-.69 1.379.245 2.93 1.322 4.732.215.352.502.84.732 1.272-.445-.05-.949-.13-1.45-.201-.893-.144-1.797-.29-2.587-.29-.388 0-1.549 0-2.298.836-1.023 1.163-.52 2.9.06 4.917.1.396.256.935.372 1.416a20.812 20.812 0 01-1.339-.576c-1.286-.56-2.5-1.098-3.529-1.098-.514 0-.959.122-1.337.38-1.284.848-1.256 2.658-1.223 4.754.006.417.013.977 0 1.466a25.446 25.446 0 01-1.15-.905c-1.382-1.105-2.57-2.068-3.802-2.068-.244 0-.48.043-.707.115-1.46.488-1.899 2.248-2.412 4.28-.099.403-.237.947-.379 1.407-.305-.373-.635-.834-.879-1.163-1.199-1.637-2.236-3.06-3.713-3.06l-.133.008c-1.539.092-2.419 1.673-3.439 3.512-.197.358-.47.846-.729 1.263-.196-.445-.398-.977-.545-1.35-.76-1.961-1.416-3.65-2.926-3.95a2.016 2.016 0 00-.427-.043c-1.34 0-2.482 1.178-3.799 2.543-.29.294-.679.696-1.034 1.033-.079-.488-.138-1.041-.184-1.451-.226-2.081-.419-3.884-1.8-4.573a2.311 2.311 0 00-1.02-.231c-1.122 0-2.32.726-3.714 1.552-.35.215-.833.503-1.263.732.054-.48.136-1.041.205-1.442.315-2.076.595-3.864-.56-4.884-.443-.387-1.034-.59-1.757-.59-.916 0-2.007.31-3.158.64-.45.13-.959.28-1.408.38.176-.458.402-.968.567-1.35.847-1.91 1.58-3.574.725-4.853-.753-1.135-2.297-1.236-3.809-1.236-.313 0-.633.008-.952.015-.523 0-1.08.007-1.458 0 .284-.402.636-.832.898-1.156 1.31-1.63 2.445-3.038 1.953-4.503-.487-1.464-2.245-1.91-4.28-2.412-.398-.101-.944-.237-1.406-.374.376-.315.832-.646 1.162-.89 1.692-1.235 3.153-2.3 3.06-3.842-.098-1.543-1.68-2.42-3.513-3.44-.36-.201-.85-.473-1.263-.732.442-.194.966-.395 1.35-.545 1.957-.762 3.644-1.408 3.948-2.923.307-1.516-.994-2.772-2.498-4.23a27.217 27.217 0 01-1.033-1.034c.48-.071 1.037-.13 1.446-.178 2.085-.224 3.881-.426 4.573-1.804.687-1.378-.244-2.928-1.324-4.731a34.636 34.636 0 01-.732-1.265c.445.052.952.122 1.447.202.891.137 1.806.279 2.582.279.387 0 1.562 0 2.302-.831 1.022-1.164.522-2.903-.052-4.921-.11-.394-.268-.932-.38-1.406.452.172.965.395 1.347.566 1.285.56 2.495 1.106 3.525 1.106.506 0 .96-.128 1.332-.387 1.29-.847 1.26-2.657 1.225-4.754a32.477 32.477 0 010-1.465c.391.288.832.646 1.148.906 1.383 1.105 2.575 2.067 3.803 2.067.245 0 .481-.042.707-.115 1.462-.488 1.9-2.24 2.41-4.28.104-.401.237-.947.375-1.407.31.373.64.833.881 1.163 1.202 1.637 2.24 3.059 3.716 3.059M44.143 0c-1.772 0-2.772 1.793-3.92 3.862-.276.495-.676 1.22-1.006 1.707-.39-.448-.879-1.117-1.213-1.573-1.323-1.793-2.458-3.351-4.08-3.351-.149 0-.3 0-.447.03-1.833.363-2.372 2.519-2.946 4.785-.134.55-.334 1.352-.527 1.918-.49-.338-1.132-.858-1.576-1.211-1.514-1.22-2.825-2.274-4.177-2.274-.374 0-.733.087-1.054.245-1.677.818-1.64 3.036-1.604 5.37.01.56.022 1.394-.017 1.985-.562-.198-1.317-.528-1.837-.756-1.408-.622-2.74-1.203-3.866-1.203-.846 0-1.397.323-1.71.597-1.409 1.227-.804 3.35-.158 5.602.153.55.382 1.337.5 1.927-.563-.041-1.276-.15-1.97-.261-.972-.141-1.983-.298-2.833-.298h-.007c-.492 0-1.932 0-2.706 1.155-1.047 1.552.095 3.455 1.294 5.46.29.488.715 1.187.98 1.723-.586.118-1.403.205-1.968.267-2.327.252-4.53.488-5.136 2.266-.606 1.762.986 3.304 2.666 4.932.41.393 1 .968 1.393 1.416-.539.26-1.302.558-1.829.763C2.201 35.93.137 36.726.006 38.59c-.123 1.872 1.806 2.943 3.855 4.083.497.275 1.22.669 1.713 1.008-.453.385-1.113.872-1.574 1.203-1.888 1.392-3.674 2.698-3.32 4.53.358 1.84 2.505 2.376 4.78 2.942.55.142 1.347.346 1.914.535-.334.489-.85 1.133-1.204 1.574-1.47 1.825-2.859 3.555-2.036 5.23.79 1.613 2.926 1.613 4.338 1.613.337 0 .691 0 1.038-.01.33-.005.665-.005.988-.005.432 0 .76.006.998.023-.196.566-.527 1.313-.76 1.833-.943 2.147-1.836 4.168-.605 5.584.496.567 1.215.866 2.135.866 1.011 0 2.207-.346 3.474-.708.625-.18 1.357-.393 1.918-.495a25.376 25.376 0 01-.255 1.965c-.357 2.32-.7 4.509.854 5.546a2.44 2.44 0 001.383.409c1.232 0 2.55-.787 4.075-1.706.488-.291 1.193-.716 1.726-.976.114.59.207 1.4.264 1.959.252 2.337.491 4.53 2.262 5.145a2.5 2.5 0 00.764.125c1.47 0 2.721-1.29 4.172-2.792.398-.41.968-1 1.415-1.392.261.534.56 1.305.764 1.824.846 2.188 1.647 4.256 3.513 4.39h.156c1.78 0 2.772-1.794 3.922-3.862.28-.497.676-1.22 1.007-1.707.393.448.876 1.117 1.212 1.573 1.321 1.8 2.456 3.358 4.081 3.358.15 0 .3-.007.445-.04 1.832-.36 2.373-2.508 2.943-4.781.137-.551.338-1.353.527-1.921.496.348 1.136.86 1.577 1.212 1.517 1.228 2.827 2.274 4.176 2.274a2.51 2.51 0 001.06-.237c1.674-.825 1.642-3.036 1.604-5.38-.009-.565-.026-1.391.015-1.982.566.197 1.321.527 1.832.756 1.417.62 2.75 1.21 3.882 1.21.834 0 1.384-.321 1.698-.597 1.418-1.227.804-3.36.158-5.608-.158-.551-.376-1.338-.488-1.92.552.032 1.276.142 1.968.253.96.148 1.966.298 2.832.298.472 0 1.935 0 2.705-1.156 1.038-1.55-.094-3.453-1.29-5.452-.299-.487-.725-1.196-.976-1.73.582-.111 1.402-.203 1.951-.268 2.344-.252 4.547-.487 5.145-2.265.613-1.762-.976-3.304-2.658-4.924-.41-.402-1.009-.975-1.4-1.416.534-.267 1.305-.566 1.825-.771 2.202-.842 4.262-1.643 4.387-3.51.127-1.871-1.807-2.94-3.853-4.073-.504-.283-1.21-.676-1.715-1.015a29.514 29.514 0 011.573-1.203c1.89-1.384 3.682-2.691 3.32-4.531-.36-1.833-2.5-2.376-4.783-2.942-.55-.142-1.337-.338-1.904-.534.331-.49.851-1.134 1.195-1.574 1.464-1.825 2.865-3.555 2.03-5.231-.786-1.613-2.908-1.613-4.326-1.613-.346 0-.693 0-1.039.009-.329.008-.66.008-.99.008-.425 0-.755-.008-.992-.024.19-.566.52-1.314.756-1.833.944-2.148 1.842-4.17.614-5.585-.504-.567-1.228-.857-2.14-.857-1.024 0-2.219.337-3.477.7-.63.18-1.353.393-1.923.504.05-.6.177-1.418.255-1.967.363-2.32.692-4.508-.853-5.555a2.45 2.45 0 00-1.383-.408c-1.228 0-2.554.794-4.08 1.714-.484.284-1.188.709-1.723.968-.113-.581-.2-1.4-.267-1.96-.253-2.336-.492-4.53-2.258-5.143a2.463 2.463 0 00-.758-.126c-1.476 0-2.727 1.298-4.182 2.8-.39.402-.959.992-1.41 1.386-.26-.536-.56-1.298-.764-1.826-.849-2.186-1.648-4.247-3.512-4.381L44.148 0z" fill="#434861"/><path d="M41.45 23.39c-9.973 0-18.06 8.08-18.06 18.062 0 9.97 8.087 18.05 18.06 18.05 9.97 0 18.054-8.08 18.054-18.05 0-9.981-8.084-18.062-18.054-18.062m21.525 16.714c.071 1.138 1.232 1.782 2.57 2.533.268.147.633.346.938.527-.329.153-.717.299-.998.41-1.43.558-2.675 1.04-2.896 2.148-.224 1.114.727 2.04 1.83 3.108.221.21.514.504.76.762-.35.053-.76.1-1.066.13-1.524.164-2.85.316-3.354 1.325-.504 1.02.175 2.158.973 3.483.153.258.364.61.53.927a22.13 22.13 0 01-1.058-.153c-.656-.093-1.325-.2-1.9-.2-.285 0-1.146 0-1.686.61-.756.857-.388 2.135.035 3.613.083.293.193.692.276 1.039-.334-.13-.709-.3-.986-.416-.945-.417-1.835-.81-2.592-.81-.375 0-.704.094-.982.28-.943.623-.923 1.954-.899 3.496.008.3.011.716.002 1.067a25.98 25.98 0 01-.847-.656c-1.018-.815-1.892-1.52-2.795-1.52a1.66 1.66 0 00-.516.083c-1.076.358-1.402 1.647-1.774 3.149-.075.288-.173.693-.278 1.032-.223-.282-.466-.61-.648-.856-.883-1.208-1.645-2.252-2.73-2.252l-.097.007c-1.132.069-1.779 1.237-2.527 2.574-.147.27-.346.633-.534.932-.147-.322-.297-.71-.405-.991-.557-1.443-1.038-2.674-2.149-2.903a1.832 1.832 0 00-.317-.028c-.982 0-1.822.866-2.792 1.863-.21.218-.499.517-.759.763-.056-.352-.099-.763-.132-1.067-.164-1.525-.31-2.851-1.323-3.355a1.61 1.61 0 00-.752-.17c-.825 0-1.708.523-2.727 1.138-.262.158-.613.37-.93.534.04-.352.102-.763.15-1.057.234-1.524.44-2.837-.414-3.588-.323-.293-.757-.434-1.29-.434-.67 0-1.472.229-2.32.469-.332.094-.707.199-1.035.282.126-.335.293-.716.417-.998.624-1.406 1.157-2.627.53-3.565-.55-.84-1.685-.903-2.8-.903h-.696c-.386.01-.795.01-1.076.006.212-.288.473-.617.663-.851.965-1.196 1.798-2.233 1.438-3.307-.362-1.078-1.655-1.402-3.147-1.772-.294-.081-.692-.174-1.038-.28.281-.223.613-.47.86-.646 1.243-.915 2.315-1.701 2.246-2.826-.072-1.138-1.235-1.784-2.58-2.534-.265-.14-.629-.341-.93-.528.325-.152.713-.298.996-.411 1.433-.551 2.676-1.031 2.9-2.146.224-1.114-.733-2.04-1.838-3.108-.217-.211-.513-.492-.759-.762.351-.053.765-.095 1.063-.13 1.532-.163 2.854-.31 3.36-1.324.506-1.021-.177-2.16-.97-3.478-.155-.264-.369-.616-.539-.933.328.036.701.094 1.064.153.651.099 1.327.199 1.898.199.285 0 1.147 0 1.692-.61.75-.856.385-2.134-.042-3.612-.078-.293-.193-.693-.274-1.032.334.128.71.293.987.41.944.423 1.836.809 2.59.809.375 0 .703-.093.981-.275.944-.628.924-1.953.898-3.495-.003-.306-.012-.716 0-1.074.29.21.613.47.846.657 1.016.82 1.893 1.525 2.795 1.525.18 0 .352-.03.52-.082 1.076-.364 1.395-1.654 1.771-3.155.072-.287.176-.692.278-1.032.226.28.47.61.648.856.883 1.207 1.646 2.252 2.73 2.252h.096c1.133-.071 1.778-1.232 2.528-2.581.147-.27.346-.626.535-.932.145.328.296.71.404.992.557 1.44 1.035 2.679 2.145 2.908.103.01.211.023.318.023.984 0 1.826-.868 2.794-1.864.212-.223.5-.517.76-.763.053.35.1.763.131 1.067.168 1.53.308 2.85 1.327 3.36.224.112.478.17.75.17.823 0 1.706-.527 2.726-1.143.262-.158.613-.37.93-.534-.037.353-.103.764-.15 1.062-.234 1.519-.436 2.833.414 3.589.323.288.76.428 1.287.428.675 0 1.478-.223 2.32-.47.34-.093.715-.198 1.043-.28-.128.34-.293.715-.422.996-.62 1.409-1.158 2.628-.527 3.567.55.838 1.688.908 2.802.908.223 0 .458-.005.692-.005.388-.013.8-.013 1.068 0-.2.286-.47.609-.656.843-.963 1.197-1.796 2.24-1.432 3.308.352 1.08 1.642 1.402 3.144 1.777.293.077.692.17 1.032.275-.28.223-.609.469-.855.646-1.245.914-2.313 1.7-2.242 2.827" fill="#7f7887"/></g></symbol><symbol fill="#58ab54" viewBox="0 0 24 24" id="contact_support-24px" xmlns="http://www.w3.org/2000/svg"><path d="M0 0h24v24H0z" fill="none"/><path d="M11.5 2C6.81 2 3 5.81 3 10.5S6.81 19 11.5 19h.5v3c4.86-2.34 8-7 8-11.5C20 5.81 16.19 2 11.5 2zm1 14.5h-2v-2h2v2zm0-3.5h-2c0-3.25 3-3 3-5 0-1.1-.9-2-2-2s-2 .9-2 2h-2c0-2.21 1.79-4 4-4s4 1.79 4 4c0 2.5-3 2.75-3 5z"/></symbol><symbol viewBox="0 0 59.219 102.102" id="courses" xmlns="http://www.w3.org/2000/svg"><defs><clipPath id="aka" clipPathUnits="userSpaceOnUse"><path d="M0 76.576h44.414V0H0z"/></clipPath></defs><g clip-path="url(#aka)" transform="matrix(1.33333 0 0 -1.33333 0 102.102)"><path d="M30.19 27.3l-7.983 5.8-7.983-5.8 3.05 9.385-7.983 5.8h9.867l3.05 9.384 3.048-9.384h9.867l-7.982-5.8zM0 76.577V3.69C0 .647 3.652-1.121 6.023.8l16.19 12.945L38.416.8c2.371-1.921 5.997-.153 5.997 2.89v72.886z"/></g></symbol><symbol fill="#58ab54" viewBox="0 0 24 24" id="description-24px" xmlns="http://www.w3.org/2000/svg"><path d="M0 0h24v24H0z" fill="none"/><path d="M14 2H6c-1.1 0-1.99.9-1.99 2L4 20c0 1.1.89 2 1.99 2H18c1.1 0 2-.9 2-2V8l-6-6zm2 16H8v-2h8v2zm0-4H8v-2h8v2zm-3-5V3.5L18.5 9H13z"/></symbol><symbol fill="#57ac53" viewBox="0 0 24 24" id="e-learning" xmlns="http://www.w3.org/2000/svg"><path d="M12 3L1 9l11 6 9-4.91V17h2V9M5 13.18v4L12 21l7-3.82v-4L12 17l-7-3.82z"/></symbol><symbol viewBox="0 0 26 26" id="external-link" xmlns="http://www.w3.org/2000/svg"><path d="M12.313 0c-1.887.004-1.747.508-.75 1.5l3.218 3.219L9.25 10.25a2.907 2.907 0 000 4.125l2.438 2.406a2.91 2.91 0 004.124 0l5.532-5.5 3.156 3.156c1.102 1.102 1.5 1.137 1.5-.75V3.408C26-.032 26.035 0 22.594 0zM4.875 5A4.876 4.876 0 000 9.875v11.25A4.876 4.876 0 004.875 26h11.25A4.876 4.876 0 0021 21.125V14.75l-3 3v3.375C18 22.16 17.16 23 16.125 23H4.875A1.875 1.875 0 013 21.125V9.875C3 8.84 3.84 8 4.875 8h3.438l3-3z"/></symbol><symbol viewBox="0 0 48.005 75.279" id="file" xmlns="http://www.w3.org/2000/svg"><defs><clipPath id="aoa" clipPathUnits="userSpaceOnUse"><path d="M0 56.459h36.004V0H0z"/></clipPath></defs><g clip-path="url(#aoa)" transform="matrix(1.33333 0 0 -1.33333 0 75.28)"><path d="M4.89 54.132a2.565 2.565 0 01-2.562-2.561V4.888c0-1.41 1.15-2.56 2.562-2.56h26.226a2.565 2.565 0 012.56 2.56V40.97L20.516 54.13zM31.116 0H4.89A4.896 4.896 0 000 4.888V51.57a4.895 4.895 0 004.89 4.888h16.107c.309 0 .605-.121.823-.341l13.842-13.842c.22-.218.342-.514.342-.824V4.888A4.893 4.893 0 0031.116 0"/><path d="M22.16 52.485v-7.309a2.564 2.564 0 012.563-2.559h7.308zM34.84 40.29H24.723a4.893 4.893 0 00-4.89 4.887v10.121a1.164 1.164 0 001.986.821l13.843-13.843a1.16 1.16 0 00-.822-1.986"/></g></symbol><symbol viewBox="0 0 48 48" id="file-alt" xmlns="http://www.w3.org/2000/svg"><path clip-rule="evenodd" d="M37 47H11a4 4 0 01-4-4V5a4 4 0 014-4h19c.32 0 .593.161.776.395l9.829 9.829A.981.981 0 0141 12v31a4 4 0 01-4 4zM31 4.381V11h6.619L31 4.381zM39 13h-9a1 1 0 01-1-1V3H11a2 2 0 00-2 2v38a2 2 0 002 2h26a2 2 0 002-2V13zm-6 26H15a1 1 0 110-2h18a1 1 0 110 2zm0-8H15a1 1 0 110-2h18a1 1 0 110 2zm0-8H15a1 1 0 110-2h18a1 1 0 110 2z" fill-rule="evenodd"/></symbol><symbol id="file-link" viewBox="0 0 24 24" xmlns="http://www.w3.org/2000/svg"><defs id="aqdefs4"><style id="aqstyle2"/></defs><g data-name="&lt;Group>" id="aq_Group_" color="#000" font-style="normal" font-variant="normal" font-weight="400" font-stretch="normal" font-size="medium" font-family="sans-serif" letter-spacing="normal" word-spacing="normal" writing-mode="lr-tb" direction="ltr" dominant-baseline="auto" text-anchor="start" clip-rule="nonzero" visibility="visible" color-interpolation="sRGB" color-interpolation-filters="linearRGB" fill="#1d1d1b" fill-opacity="1" fill-rule="nonzero" stroke="none" stroke-width="1" stroke-linecap="round" stroke-linejoin="round" stroke-miterlimit="4" stroke-dasharray="none" stroke-dashoffset="0" stroke-opacity="1" color-rendering="auto" image-rendering="auto" shape-rendering="auto" text-rendering="auto"><path style="line-height:normal;font-variant-ligatures:normal;font-variant-position:normal;font-variant-caps:normal;font-variant-numeric:normal;font-variant-alternates:normal;font-feature-settings:normal;text-indent:0;text-align:start;text-decoration-line:none;text-decoration-style:solid;text-decoration-color:#000;text-transform:none;text-orientation:mixed;white-space:normal;shape-padding:0;isolation:auto;mix-blend-mode:normal;solid-color:#000;solid-opacity:1" d="M13.36 9.78a1 1 0 00-.68 1.724 2.485 2.485 0 010 3.572l-2.862 2.81a1 1 0 00-.011.014 2.485 2.485 0 01-3.573 0 1 1 0 00-.013-.015 2.483 2.483 0 010-3.57 1 1 0 00.006-.008l.86-.86a1 1 0 10-1.413-1.414l-.854.852c-1.79 1.753-1.79 4.665-.006 6.422a4.513 4.513 0 006.415-.002l2.851-2.801c1.792-1.756 1.792-4.672 0-6.428a1 1 0 00-.72-.297z" id="aq_Path_" text-decoration="none" baseline-shift="baseline" display="inline" overflow="visible" opacity="1" vector-effect="none"/><path style="line-height:normal;font-variant-ligatures:normal;font-variant-position:normal;font-variant-caps:normal;font-variant-numeric:normal;font-variant-alternates:normal;font-feature-settings:normal;text-indent:0;text-align:start;text-decoration-line:none;text-decoration-style:solid;text-decoration-color:#000;text-transform:none;text-orientation:mixed;white-space:normal;shape-padding:0;isolation:auto;mix-blend-mode:normal;solid-color:#000;solid-opacity:1" d="M16.31 3.355c-1.165 0-2.33.447-3.206 1.338l-.002.002c-.002.002-.005.002-.006.004L10.3 7.496c-1.792 1.756-1.792 4.672 0 6.428a1 1 0 101.398-1.428 2.485 2.485 0 010-3.572 1 1 0 00.008-.006l2.81-2.81a1 1 0 00.006-.008 2.485 2.485 0 013.573 0 1 1 0 00.013.015 2.483 2.483 0 010 3.57 1 1 0 00-.006.008l-.86.86a1 1 0 101.413 1.414l.854-.852c1.79-1.753 1.79-4.665.006-6.422a4.482 4.482 0 00-3.205-1.338z" id="aq_Path_2" text-decoration="none" baseline-shift="baseline" display="inline" overflow="visible" opacity="1" vector-effect="none"/></g></symbol><symbol viewBox="0 0 373.6 373.6" fill="#fff" id="filter" xmlns="http://www.w3.org/2000/svg"><path d="M343.7 0H29.9c-5.5 0-10.1 4.9-10.1 10.5v64.2c0 .3 0 .6.1 1 0 .1.1.3.1.4 0 .2.1.3.1.5s.1.3.1.5c0 .1.1.3.1.4.1.2.1.4.2.5 0 .1.1.2.1.4.1.2.1.3.2.5.1.1.1.2.2.4s.2.3.2.4c.1.1.1.3.2.4.1.1.2.3.3.4.1.1.2.3.3.4.1.1.2.2.3.4.1.1.2.1.2.2l114.3 124.6v157.5c0 3.9 2.2 7.4 5.7 9.1 1.3.6 2.7.9 4.2.9 2.4 0 4.7-.8 6.5-2.4l80.2-68.3c2.2-1.9 3.5-4.7 3.4-7.6v-89.2L351 81.4l.2-.2c.1-.1.2-.2.3-.4.1-.1.2-.2.3-.4.1-.2.2-.3.3-.4s.2-.3.2-.4c.1-.1.2-.3.3-.4.1-.1.1-.2.2-.4s.2-.3.2-.5c0-.1.1-.2.1-.4.1-.2.1-.3.2-.5 0-.1.1-.3.1-.4 0-.2.1-.3.1-.5s.1-.3.1-.5c0-.1.1-.3.1-.4 0-.3.1-.6.1-1V10.4c0-5.5-4.5-10.4-10.1-10.4zM219.5 195.6c-1.7 1.8-2.7 4.1-2.7 6.6v88.4l-60 51.3V202.2c0-2.5-1-4.8-2.7-6.6L52.6 85H321L219.5 195.6zM333.8 65h-294V20h294v45z"/></symbol><symbol fill="#57ac53" viewBox="0 0 24 24" id="glossary" xmlns="http://www.w3.org/2000/svg"><path d="M21 5c-1.11-.35-2.33-.5-3.5-.5-1.95 0-4.05.4-5.5 1.5-1.45-1.1-3.55-1.5-5.5-1.5S2.45 4.9 1 6v14.65c0 .25.25.5.5.5.1 0 .15-.05.25-.05C3.1 20.45 5.05 20 6.5 20c1.95 0 4.05.4 5.5 1.5 1.35-.85 3.8-1.5 5.5-1.5 1.65 0 3.35.3 4.75 1.05.1.05.15.05.25.05.25 0 .5-.25.5-.5V6c-.6-.45-1.25-.75-2-1m0 13.5c-1.1-.35-2.3-.5-3.5-.5-1.7 0-4.15.65-5.5 1.5V8c1.35-.85 3.8-1.5 5.5-1.5 1.2 0 2.4.15 3.5.5v11.5z"/></symbol><symbol viewBox="0 0 334.15 334.15" id="icons--icon-case-law" xmlns="http://www.w3.org/2000/svg"><path d="M304.51 267.825c-6.067 0-11.851-1.851-16.71-5.283l-.418.398-4.473-4.698-101.171-110.553a224.089 224.089 0 01-11.408 9.512 22.677 22.677 0 012.744 10.848c0 6.08-2.365 11.787-6.671 16.08-8.573 8.586-23.561 8.593-32.153-.006l-62.109-62.115c-8.856-8.869-8.856-23.291 0-32.153 7.018-7.025 18.445-8.535 26.922-3.927a223.39 223.39 0 0118.734-21.286c11.118-11.118 23.233-20.971 35.393-28.824-6.408-8.882-5.617-21.382 2.365-29.371 8.599-8.593 23.574-8.593 32.16-.013l62.115 62.115c8.869 8.869 8.869 23.304 0 32.173-7.719 7.725-20.714 8.644-29.377 2.365a197.688 197.688 0 01-8.297 11.819l116.737 106.833-.533.54a28.803 28.803 0 015.174 16.53c0 7.751-3.021 15.039-8.496 20.514s-12.777 8.502-20.528 8.502zm-16.472-23.085l5.174 5.63c5.836 5.848 16.626 5.977 22.725-.129 3.059-3.053 4.73-7.108 4.73-11.427s-1.677-8.374-4.73-11.427l-.784-.617-4.936-4.537.077-.077-115.632-105.83 3.753-4.692c5.855-7.32 10.938-14.66 15.109-21.826l4.197-7.211 9.023 9.023c3.734 3.74 10.257 3.747 13.991.006 3.863-3.856 3.863-10.135 0-13.991L178.62 15.526c-3.74-3.728-10.244-3.734-13.985.006-3.843 3.85-3.843 10.122.006 13.978l9.043 9.03-7.217 4.203c-13.477 7.847-27.166 18.561-39.589 30.99a209.598 209.598 0 00-21.363 25.007l-4.422 6.086-5.887-5.887c-3.734-3.734-10.251-3.734-13.985 0-3.85 3.856-3.85 10.129 0 13.985l62.109 62.109c3.74 3.74 10.257 3.74 13.978.006a9.798 9.798 0 002.905-6.992 9.836 9.836 0 00-2.898-6.999l-5.881-5.881 6.093-4.422c6.793-4.936 13.593-10.591 20.206-16.819l4.743-4.467 105.522 115.31.04-.029zm-98.903 89.41H.617v-6.427c0-18.226 14.293-33.175 32.263-34.236 3.927-8.785 12.783-14.75 22.712-14.75h78.574c9.936 0 18.792 5.964 22.719 14.75 17.963 1.06 32.256 16.009 32.256 34.236v6.427h-.006zM14.454 321.297h160.838c-2.738-8.696-10.868-15.013-20.45-15.013h-7.873l-1.054-5.135c-1.138-5.534-6.086-9.557-11.761-9.557H55.586c-5.668 0-10.617 4.023-11.755 9.557l-1.054 5.135h-7.866c-9.589 0-17.719 6.317-20.457 15.013z"/></symbol><symbol viewBox="0 0 512 512" id="icons--icon-course" xmlns="http://www.w3.org/2000/svg"><path d="M256 386c42.239 0 85-13.739 85-40v-56.835l40-17.778V376c0 5.522 4.478 10 10 10s10-4.478 10-10V256c0-4.434-2.771-7.812-6.123-9.22l-134.816-59.918a9.994 9.994 0 00-8.123 0l-135 60a10.001 10.001 0 000 18.276L171 289.165V346c0 26.261 42.76 40 85 40zm65-40c0 5.981-22.115 20-65 20s-65-14.019-65-20v-47.945l60.938 27.084a10.01 10.01 0 008.124 0L321 298.054zm-175.379-89.999L256 206.943l110.379 49.058L256 305.057z"/><path d="M502 36H10C4.477 36 0 40.477 0 46v420c0 5.522 4.477 10 10 10h201c5.523 0 10-4.478 10-10s-4.477-10-10-10H20V146h472v310H301c-5.522 0-10 4.478-10 10s4.478 10 10 10h201c5.522 0 10-4.478 10-10V46c0-5.523-4.478-10-10-10zm-10 90H20V56h286v20c0 5.522 4.478 10 10 10s10-4.478 10-10V56h40v20c0 5.522 4.478 10 10 10s10-4.478 10-10V56h40v20c0 5.522 4.478 10 10 10s10-4.478 10-10V56h46z"/><circle cx="256" cy="466" r="10"/></symbol><symbol viewBox="0 0 64 64" id="icons--icon-expert" xmlns="http://www.w3.org/2000/svg"><path d="M36 64a1 1 0 01-1-1c0-3.309 2.691-6 6-6a1 1 0 110 2c-2.206 0-4 1.794-4 4a1 1 0 01-1 1z"/><path d="M44 59h-3a1 1 0 110-2h3a1 1 0 110 2zM60 64a1 1 0 01-1-1c0-2.206-1.794-4-4-4a1 1 0 110-2c3.309 0 6 2.691 6 6a1 1 0 01-1 1z"/><path d="M55 59h-3a1 1 0 110-2h3a1 1 0 110 2zM44 59a1 1 0 01-1-1v-3.936a1 1 0 112 0V58a1 1 0 01-1 1z"/><path d="M52 59a1 1 0 01-1-1v-3.936a1 1 0 112 0V58a1 1 0 01-1 1zM53 33h-6a1 1 0 110-2h6a1 1 0 110 2z"/><path d="M47.999 56C42.485 56 38 51.515 38 46.002a1 1 0 112 0C40 50.412 43.588 54 47.999 54 52.411 54 56 50.412 56 46.002a1 1 0 112 0C58 51.515 53.514 56 47.999 56z"/><path d="M39 47.051a1 1 0 01-1-1V40a1 1 0 112 0v6.051a1 1 0 01-1 1zM57 47.002a1 1 0 01-1-1V40a1 1 0 112 0v6.002a1 1 0 01-1 1z"/><path d="M57 40.998a1 1 0 01-1-1A3.003 3.003 0 0053 37a1 1 0 110-2c2.757 0 5 2.242 5 4.998a1 1 0 01-1 1z"/><path d="M53 37a1 1 0 01-1-1v-4a1 1 0 112 0v4a1 1 0 01-1 1zM39 41a1 1 0 01-1-1c0-4.963 4.037-9 9-9a1 1 0 110 2c-3.859 0-7 3.141-7 7a1 1 0 01-1 1zM56.999 44.025c-.192 0-.387-.056-.559-.171l-3-2.025a1.002 1.002 0 01-.27-1.389c.31-.457.93-.577 1.389-.27l3 2.025a1.002 1.002 0 01-.56 1.83z"/><path d="M48.5 43c-3.612 0-6.687-1.008-6.815-1.051a1.001 1.001 0 01.63-1.899c.029.011 2.908.95 6.185.95 3.178 0 5.04-.888 5.059-.897.493-.241 1.094-.037 1.337.457s.043 1.09-.449 1.336C54.355 41.94 52.186 43 48.5 43z"/><path d="M39.001 44.025a1 1 0 01-.56-1.829l3-2.025a1.001 1.001 0 011.119 1.659l-3 2.025c-.172.115-.367.17-.559.17zM45.999 60c-.15 0-.303-.034-.446-.105l-2-1a1 1 0 01.895-1.789l2 1A1 1 0 0145.999 60z"/><path d="M46.001 60a1 1 0 01-.449-1.895l2-1a1 1 0 01.895 1.789l-2 1a.99.99 0 01-.446.106zM50.001 60a1 1 0 01-.449-1.895l2-1a1.001 1.001 0 01.895 1.789l-2 1a.99.99 0 01-.446.106z"/><path d="M49.999 60c-.15 0-.303-.034-.446-.105l-2-1a1 1 0 01.895-1.789l2 1A1 1 0 0149.999 60zM47.999 29.002a.997.997 0 01-.446-.105l-1.788-.893h-27.53l-1.789.893a.995.995 0 01-.893 0l-1.789-.893H4a1 1 0 01-1-1V1a1 1 0 011-1h56a1 1 0 011 1v26.004a1 1 0 01-1 1h-9.765l-1.79.893a.997.997 0 01-.446.105zM18 26.004h28c.155 0 .308.036.446.105l1.553.775 1.555-.775c.139-.069.291-.105.446-.105h9V2H5v24.004h9c.155 0 .308.036.446.105l1.554.776 1.554-.775a.986.986 0 01.446-.106zM7 46.959a1 1 0 01-1-1V40a1 1 0 112 0v5.959a1 1 0 01-1 1zM25 47a1 1 0 01-1-1v-1.996a1 1 0 112 0V46a1 1 0 01-1 1zM5 63a1 1 0 01-1-1c0-2.757 2.243-5 5-5a1 1 0 110 2c-1.654 0-3 1.346-3 3a1 1 0 01-1 1z"/><path d="M13 59H9a1 1 0 110-2h4a1 1 0 110 2zM27 63a1 1 0 01-1-1c0-1.654-1.346-3-3-3a1 1 0 110-2c2.757 0 5 2.243 5 5a1 1 0 01-1 1z"/><path d="M23 59h-4a1 1 0 110-2h4a1 1 0 110 2zM13 59a1 1 0 01-1-1v-3.514a1 1 0 112 0V58a1 1 0 01-1 1z"/><path d="M19 59a1 1 0 01-1-1v-3.514a1 1 0 112 0V58a1 1 0 01-1 1z"/><path d="M15.999 56C10.485 56 6 51.515 6 46.002a1 1 0 112 0C8 50.412 11.588 54 15.999 54 20.411 54 24 50.412 24 46.002a1 1 0 112 0C26 51.515 21.514 56 15.999 56zM16 62a.997.997 0 01-.707-.293l-3-3a.999.999 0 111.414-1.414l3 3A.999.999 0 0116 62z"/><path d="M16 62a.999.999 0 01-.707-1.707l3-3a.999.999 0 111.414 1.414l-3 3A.997.997 0 0116 62zM13 41c-2.206 0-4-1.794-4-4a1 1 0 112 0c0 1.103.897 2 2 2a1 1 0 110 2z"/><path d="M7 41a1 1 0 110-2c1.103 0 2-.897 2-2a1 1 0 112 0c0 2.206-1.794 4-4 4zM7 37a1 1 0 01-1-1c0-2.206 1.794-4 4-4a1 1 0 110 2c-1.103 0-2 .897-2 2a1 1 0 01-1 1zM27 51a1 1 0 01-1-1v-9a1 1 0 112 0v9a1 1 0 01-1 1z"/><path d="M7 41a1 1 0 01-1-1v-4a1 1 0 112 0v4a1 1 0 01-1 1zM17 41h-4a1 1 0 110-2h4a1 1 0 110 2zM27 42a1 1 0 01-1-1c0-4.963-4.037-9-9-9a8.924 8.924 0 00-5.362 1.771 1 1 0 01-1.193-1.605A10.913 10.913 0 0117 30c6.065 0 11 4.935 11 11a1 1 0 01-1 1z"/><path d="M27 51.002a1 1 0 01-1-1c0-4.963-4.037-9-9-9a1 1 0 110-2c6.065 0 11 4.935 11 11a1 1 0 01-1 1zM11.041 33.969H10a1 1 0 110-2h1.041a1 1 0 110 2z"/><path d="M10 38a1 1 0 01-1-1v-4.031a1 1 0 112 0V37a1 1 0 01-1 1zM56 6H43a1 1 0 110-2h13a1 1 0 110 2zM56 9H43a1 1 0 110-2h13a1 1 0 110 2zM56 12H43a1 1 0 110-2h13a1 1 0 110 2zM56 15H43a1 1 0 110-2h13a1 1 0 110 2zM56 18H43a1 1 0 110-2h13a1 1 0 110 2zM56 21H43a1 1 0 110-2h13a1 1 0 110 2zM53 24h-7a1 1 0 110-2h7a1 1 0 110 2zM21 6H8a1 1 0 110-2h13a1 1 0 110 2z"/><g><path d="M21 9H8a1 1 0 110-2h13a1 1 0 110 2z"/></g><g><path d="M21 12H8a1 1 0 110-2h13a1 1 0 110 2z"/></g><g><path d="M21 15H8a1 1 0 110-2h13a1 1 0 110 2z"/></g><g><path d="M21 18H8a1 1 0 110-2h13a1 1 0 110 2z"/></g><g><path d="M21 21H8a1 1 0 110-2h13a1 1 0 110 2z"/></g><g><path d="M18 24h-7a1 1 0 110-2h7a1 1 0 110 2z"/></g><g><path d="M27 64a1 1 0 01-1-1v-1a1 1 0 112 0v1a1 1 0 01-1 1z"/></g><g><path d="M5 64a1 1 0 01-1-1v-1a1 1 0 112 0v1a1 1 0 01-1 1z"/></g><g><path d="M36.973 18.004h-9.99a1 1 0 01-1-1v-3a1 1 0 011-1h9.99a1 1 0 011 1v3a1 1 0 01-1 1zm-8.991-2h7.99v-1h-7.99z"/><path d="M34.972 23.995h-5.988a1 1 0 01-.986-.835l-1.001-5.991a.998.998 0 01.224-.812.996.996 0 01.763-.354h7.99a1.004 1.004 0 01.987 1.166L35.96 23.16c-.082.482-.5.835-.988.835zm-5.142-2h4.295l.667-3.991h-5.629zM31.979 15.006a1 1 0 01-1-1V10.01a1 1 0 112 0v3.996a1 1 0 01-1 1z"/><path d="M31.979 11.01a1 1 0 01-1-1 6.004 6.004 0 015.998-5.998 1 1 0 110 2 4.003 4.003 0 00-3.998 3.998 1 1 0 01-1 1z"/><path d="M31.977 13.007a1 1 0 01-1-1 4.004 4.004 0 00-3.999-3.999 1 1 0 110-2 6.006 6.006 0 015.999 5.999 1 1 0 01-1 1z"/></g></symbol><symbol viewBox="0 0 414.295 414.295" id="icons--icon-goals-declatations" xmlns="http://www.w3.org/2000/svg"><path d="M342.804 129.011l69.12-69.12a8 8 0 00-5.36-13.68l.24.48-37.6-1.28-1.28-37.6a8 8 0 00-13.68-5.36l-69.04 68.72a8 8 0 00-2.32 5.92v8C200.799 28.544 88.417 49.247 31.87 131.331S-3.975 325.798 78.11 382.345c82.084 56.547 194.467 35.844 251.014-46.24 42.471-61.651 42.471-143.122 0-204.774h8a8.004 8.004 0 005.68-2.32zm2.4 104.8c.12 90.928-73.495 164.737-164.423 164.857-90.928.12-164.737-73.495-164.857-164.423-.12-90.928 73.495-164.737 164.423-164.857a164.64 164.64 0 01103.497 36.423l.4 13.36-32 32c-45.521-39.897-114.766-35.337-154.663 10.184-39.897 45.521-35.337 114.766 10.184 154.663 45.521 39.897 114.766 35.337 154.663-10.184 35.846-40.9 36.279-101.899 1.016-143.303l32-32 13.2.48a164.486 164.486 0 0136.56 102.8zm-169.76 5.36a8 8 0 0011.28 0l16-16a23.993 23.993 0 012.4 10.32c0 13.255-10.745 24-24 24s-24-10.745-24-24 10.745-24 24-24c3.576.021 7.102.841 10.32 2.4l-16 16a8 8 0 000 11.28zm27.68-39.04c-18.422-12.192-43.24-7.142-55.432 11.28s-7.142 43.24 11.28 55.432 43.24 7.142 55.432-11.28a40 40 0 000-44.152l37.92-37.92c33.243 39.472 28.192 98.419-11.28 131.662-39.472 33.243-98.419 28.192-131.662-11.28-33.243-39.472-28.192-98.419 11.28-131.662 34.782-29.292 85.6-29.292 120.382 0l-37.92 37.92zm97.28-85.92l-1.12-34.08 53.6-53.6.88 26.64a8 8 0 008 8l26.64.88-53.92 53.28-34.08-1.12z"/></symbol><symbol viewBox="0 0 100 100" fill="none" stroke-linecap="square" stroke-miterlimit="10" id="icons--icon-learning-material" xmlns="http://www.w3.org/2000/svg"><clipPath id="axa"><path d="M0 0h100v100H0V0z"/></clipPath><g clip-path="url(#axa)"><path fill="none" d="M0 0h100v100H0zM.758.152l.315 95.086"/><path stroke="#000" stroke-width="3" stroke-linejoin="round" stroke-linecap="butt" d="M.758.152l.315 95.086"/><path fill="none" d="M-.273.622h42.394"/><path stroke="#000" stroke-width="3" stroke-linejoin="round" stroke-linecap="butt" d="M-.273.622h42.394"/><path fill="none" d="M.407 94.73h49.228"/><path stroke="#000" stroke-width="3" stroke-linejoin="round" stroke-linecap="butt" d="M.407 94.73h49.228"/><path fill="none" d="M39.64 84.91c5.078 0 9.35 3.74 9.934 8.696l-9.934 1.132zM39.64 84.91c5.078 0 9.35 3.74 9.934 8.696"/><path stroke="#000" stroke-width="3" stroke-linejoin="round" stroke-linecap="butt" d="M39.64 84.91h0c5.078 0 9.35 3.74 9.934 8.696"/><path fill="none" d="M.806 84.91H39.64"/><path stroke="#000" stroke-width="3" stroke-linejoin="round" stroke-linecap="butt" d="M.806 84.91H39.64"/><path fill="none" d="M49.634 0v96.441"/><path stroke="#000" stroke-width="3" stroke-linejoin="round" stroke-linecap="butt" d="M49.634 0v96.441"/><path fill="none" d="M9.181 16.1H35.04"/><path stroke="#000" stroke-width="3" stroke-linejoin="round" stroke-linecap="butt" d="M9.181 16.1H35.04"/><path fill="none" d="M9.181 28.434H35.04"/><path stroke="#000" stroke-width="3" stroke-linejoin="round" stroke-linecap="butt" d="M9.181 28.434H35.04"/><path fill="none" d="M9.181 42.582H35.04"/><path stroke="#000" stroke-width="3" stroke-linejoin="round" stroke-linecap="butt" d="M9.181 42.582H35.04"/><path fill="none" d="M99.242.152l-.315 95.086"/><path stroke="#000" stroke-width="3" stroke-linejoin="round" stroke-linecap="butt" d="M99.242.152l-.315 95.086"/><path fill="none" d="M99.727 94.738H50.373"/><path stroke="#000" stroke-width="3" stroke-linejoin="round" stroke-linecap="butt" d="M99.727 94.738H50.373"/><path fill="none" d="M60.36 84.91c-5.078 0-9.35 3.74-9.934 8.696l9.934 1.132zM60.36 84.91c-5.078 0-9.35 3.74-9.934 8.696"/><path stroke="#000" stroke-width="3" stroke-linejoin="round" stroke-linecap="butt" d="M60.36 84.91h0c-5.078 0-9.35 3.74-9.934 8.696"/><path fill="none" d="M99.194 84.91H60.36"/><path stroke="#000" stroke-width="3" stroke-linejoin="round" stroke-linecap="butt" d="M99.194 84.91H60.36"/><path fill="none" d="M50.366 0v96.441"/><path stroke="#000" stroke-width="3" stroke-linejoin="round" stroke-linecap="butt" d="M50.366 0v96.441"/><path fill="none" d="M90.819 16.1H64.96"/><path stroke="#000" stroke-width="3" stroke-linejoin="round" stroke-linecap="butt" d="M90.819 16.1H64.96"/><path fill="none" d="M90.819 28.434H64.96"/><path stroke="#000" stroke-width="3" stroke-linejoin="round" stroke-linecap="butt" d="M90.819 28.434H64.96"/><path fill="none" d="M90.819 42.582H64.96"/><path stroke="#000" stroke-width="3" stroke-linejoin="round" stroke-linecap="butt" d="M90.819 42.582H64.96"/><path fill="none" d="M41.843.622c2.098 0 4.108.739 5.577 2.05 1.47 1.311 2.274 3.084 2.232 4.92l-7.81-.135z"/><path fill="none" d="M41.843.622c2.098 0 4.108.739 5.577 2.05 1.47 1.311 2.274 3.084 2.232 4.92"/><path stroke="#000" stroke-width="3" stroke-linejoin="round" stroke-linecap="butt" d="M41.843.622h0c2.098 0 4.108.739 5.577 2.05 1.47 1.311 2.274 3.084 2.232 4.92"/><path fill="none" d="M100.136.614H57.932"/><path stroke="#000" stroke-width="3" stroke-linejoin="round" stroke-linecap="butt" d="M100.136.614H57.932"/><path fill="none" d="M58.171.614c-2.098 0-4.108.74-5.577 2.05-1.47 1.311-2.274 3.085-2.232 4.92l7.81-.135z"/><path fill="none" d="M58.171.614c-2.098 0-4.108.74-5.577 2.05-1.47 1.311-2.274 3.085-2.232 4.92"/><path stroke="#000" stroke-width="3" stroke-linejoin="round" stroke-linecap="butt" d="M58.171.614h0c-2.098 0-4.108.74-5.577 2.05-1.47 1.311-2.274 3.085-2.232 4.92"/></g></symbol><symbol viewBox="0 0 357 450" fill-rule="evenodd" clip-rule="evenodd" stroke-linecap="round" stroke-linejoin="round" stroke-miterlimit="1.5" id="icons--icon-multilateral-documents" xmlns="http://www.w3.org/2000/svg"><path d="M207.726 181.873H55.148c-6.02 0-10.899 4.88-10.899 10.899 0 6.019 4.88 10.898 10.899 10.898h152.578c6.019 0 10.898-4.88 10.898-10.898 0-6.02-4.88-10.899-10.898-10.899zM164.132 225.467H55.148c-6.02 0-10.899 4.88-10.899 10.899 0 6.018 4.88 10.898 10.899 10.898h108.984c6.02 0 10.899-4.88 10.899-10.898 0-6.02-4.88-10.899-10.899-10.899zM164.132 269.06H55.148c-6.02 0-10.899 4.88-10.899 10.9 0 6.018 4.88 10.898 10.899 10.898h108.984c6.02 0 10.899-4.88 10.899-10.899 0-6.018-4.88-10.898-10.899-10.898zM164.132 312.655H55.148c-6.02 0-10.899 4.88-10.899 10.898 0 6.019 4.88 10.899 10.899 10.899h108.984c6.02 0 10.899-4.88 10.899-10.899 0-6.019-4.88-10.898-10.899-10.898zM207.726 379.498h-65.39c-6.02 0-10.9 4.88-10.9 10.899 0 6.019 4.88 10.898 10.9 10.898h65.39c6.019 0 10.898-4.88 10.898-10.898 0-6.019-4.88-10.899-10.898-10.899z" fill-rule="nonzero"/><path d="M310.109 404.889V96.406l-49.453-49.452L69.18 46" fill="none" stroke="#000" stroke-width="20"/><path d="M10.41 79.5l-.41 360h265.178l.32-308.483L226.043 79.5H10.41z" fill="none" stroke="#000" stroke-width="20" stroke-miterlimit="6"/><path d="M346.108 368.889V60.406l-49.452-49.452L105.18 10" fill="none" stroke="#000" stroke-width="20"/></symbol><symbol viewBox="0 0 500 287" fill-rule="evenodd" clip-rule="evenodd" stroke-linecap="round" stroke-linejoin="round" stroke-miterlimit="1.5" id="icons--icon-multilateral-treaties" xmlns="http://www.w3.org/2000/svg"><path d="M311.557 250.615L194.642 300" fill="none" stroke="#000" stroke-width="20.46" transform="matrix(.95417 0 0 1 -95.717 -83.002)"/><path d="M311.557 208.367L200 140" fill="none" stroke="#000" stroke-width="21.98" transform="matrix(1 0 0 .80985 -110.001 -43.373)"/><circle cx="357.443" cy="229.491" r="50.509" fill="none" stroke="#000" stroke-width="20" transform="matrix(1 0 0 1 -110.001 -83.002)"/><circle cx="160" cy="133" r="40" fill="none" stroke="#000" stroke-width="20" transform="matrix(1 0 0 1 -110.001 -83.002)"/><circle cx="160" cy="320" r="40" fill="none" stroke="#000" stroke-width="20" transform="matrix(1 0 0 1 -110.001 -83.002)"/><path d="M311.557 250.615L194.642 300" fill="none" stroke="#000" stroke-width="20.46" transform="matrix(-.95417 0 0 1 595.727 -83.002)"/><path d="M311.557 208.367L200 140" fill="none" stroke="#000" stroke-width="21.98" transform="matrix(-1 0 0 .80985 610 -43.373)"/><circle cx="160" cy="133" r="40" fill="none" stroke="#000" stroke-width="20" transform="matrix(-1 0 0 1 610 -83.002)"/><circle cx="160" cy="320" r="40" fill="none" stroke="#000" stroke-width="20" transform="matrix(-1 0 0 1 610 -83.002)"/></symbol><symbol viewBox="0 -35 490.91 490" id="icons--icon-national-legislations" xmlns="http://www.w3.org/2000/svg"><path d="M483.621 253.07l-55.996-119.937 24.172 6.933c5.308 1.524 10.848-1.543 12.367-6.855a9.995 9.995 0 00-6.851-12.367l-168.07-48.23c.034-.72.054-1.438.054-2.16.004-19.958-13.469-37.4-32.781-42.427-19.313-5.03-39.582 3.621-49.313 21.043L39.117.844C33.81-.68 28.27 2.39 26.747 7.699c-1.52 5.309 1.546 10.844 6.855 12.367l33.171 9.52L6.7 158.258A10.004 10.004 0 000 167.69c-.012 32.465 19.555 61.73 49.559 74.125 30.004 12.399 64.523 5.477 87.43-17.527a79.244 79.244 0 0023.921-56.598 10 10 0 00-7.289-9.62L97.79 38.487l103.883 29.805a44.204 44.204 0 00-.055 2.164c.031 20.348 14.035 38.008 33.84 42.672V311.21h-27.602c-22.054 0-40.398 17.7-40.398 39.758v5.804c-18.559 3.907-31.883 20.227-32 39.196v14a10.558 10.558 0 0010.398 10.242H345.06a10.558 10.558 0 0010.398-10.242v-14c-.117-18.969-13.441-35.29-32-39.196v-5.804c0-22.059-18.348-39.758-40.398-39.758h-27.602V113.129a44 44 0 0028.254-21.297l113.187 32.48L336.7 253.258a10 10 0 00-6.703 9.43c-.008 32.464 19.559 61.73 49.563 74.125 30.003 12.398 64.52 5.48 87.425-17.524a79.263 79.263 0 0023.926-56.601 10 10 0 00-7.289-9.618zM80.203 47.613l51.168 109.598H29.04zm0 179.797c-29.453.172-54.644-21.125-59.371-50.2h119.2c-5.09 29.052-30.333 50.235-59.829 50.2zM335.457 395.97v4.242h-180v-4.242c0-11.028 9.375-19.758 20.398-19.758H315.06c11.023 0 20.398 8.73 20.398 19.758zm-32-45v5.242h-116v-5.242c0-11.028 9.375-19.758 20.398-19.758h75.204c11.023 0 20.398 8.73 20.398 19.758zm-58-256.676a23.853 23.853 0 01-22.555-16.035A23.853 23.853 0 01258.32 50.36a23.852 23.852 0 0110.309 25.68 10.051 10.051 0 00-.563 1.952 23.872 23.872 0 01-22.609 16.301zm215.914 157.918H359.04l51.164-109.598zm-51.168 70.2c-29.453.171-54.644-21.126-59.371-50.2h119.2c-5.09 29.05-30.333 50.234-59.829 50.2zm0 0"/></symbol><symbol viewBox="0 0 64 64" id="icons--icon-resource" xmlns="http://www.w3.org/2000/svg"><path d="M26 14c-6.617 0-12 5.383-12 12s5.383 12 12 12 12-5.383 12-12-5.383-12-12-12zm0 22c-5.514 0-10-4.486-10-10s4.486-10 10-10 10 4.486 10 10-4.486 10-10 10z"/><path d="M61.879 56.464L51 45.586V6a1 1 0 00-1-1h-3V2a1 1 0 00-1-1H12a.996.996 0 00-.707.293l-10 10A.997.997 0 001 12v46a1 1 0 001 1h3v3a1 1 0 001 1h44a1 1 0 001-1v-5.587l5.465 5.465A3.797 3.797 0 0059.172 63 3.833 3.833 0 0063 59.171a3.806 3.806 0 00-1.121-2.707zM49 7v36.586l-2-2V7zM11 4.414V11H4.414zM3 13h9a1 1 0 001-1V3h32v36.586l-1.655-1.655c.399-.755.29-1.71-.345-2.345l-2.619-2.619A15.883 15.883 0 0042 26c0-8.822-7.178-16-16-16s-16 7.178-16 16 7.178 16 16 16c2.499 0 4.857-.593 6.967-1.619L35.586 43c.39.39.902.585 1.414.585.321 0 .64-.086.931-.24L45 50.414V57H3zm34 28.586l-2.223-2.223a16.104 16.104 0 004.586-4.586L41.586 37zM26 40c-7.72 0-14-6.28-14-14s6.28-14 14-14 14 6.28 14 14-6.28 14-14 14zm23 21H7v-2h39a1 1 0 001-1v-5.586l2 2zm10.172 0a1.84 1.84 0 01-1.293-.536L39.414 42 42 39.414l18.465 18.464A1.83 1.83 0 0159.172 61z"/><path d="M17 7h24v2H17zM7 51h34v2H7zM7 47h34v2H7zM7 43h26v2H7zM28.793 24.855A3.982 3.982 0 0030 22c0-2.206-1.794-4-4-4s-4 1.794-4 4c0 1.119.464 2.128 1.207 2.855A4.999 4.999 0 0021 29v3a1 1 0 001 1h8a1 1 0 001-1v-3a4.999 4.999 0 00-2.207-4.145zM24 22c0-1.103.897-2 2-2s2 .897 2 2-.897 2-2 2-2-.897-2-2zm5 9h-6v-2c0-1.654 1.346-3 3-3s3 1.346 3 3z"/></symbol><symbol viewBox="0 0 512 512" id="icons--icon-support-request" xmlns="http://www.w3.org/2000/svg"><path d="M143.938 382.813c18.64-14.516 30.664-37.149 30.664-62.547 0-43.707-35.563-79.266-79.27-79.266s-79.266 35.559-79.266 79.266c0 25.398 12.024 48.03 30.66 62.546C20.423 398.462 0 428.017 0 464.868V497c0 8.285 6.715 15 15 15h160.668c8.281 0 15-6.715 15-15v-32.133c0-36.844-20.418-66.402-46.73-82.055zm-97.872-62.547c0-27.164 22.102-49.266 49.27-49.266 27.164 0 49.266 22.102 49.266 49.266 0 27.168-22.102 49.27-49.266 49.27-27.168 0-49.27-22.102-49.27-49.27zM160.668 482H30v-17.133c0-36.086 29.195-65.332 65.332-65.332 36.086 0 65.332 29.195 65.332 65.332V482zm0 0M448.8 0H256c-34.906 0-63.2 28.242-63.2 63.2v289.198c0 12.27 14.071 19.446 24 12l60.266-45.199h171.735C483.707 319.2 512 290.957 512 256V63.2C512 28.292 483.758 0 448.8 0zM482 256c0 18.352-14.84 33.2-33.2 33.2H272.067a15.015 15.015 0 00-9 3l-40.265 30.198V63.2C222.8 44.848 237.64 30 256 30h192.8c18.352 0 33.2 14.84 33.2 33.2zm0 0"/><path d="M432.734 80.332H272.066c-8.285 0-15 6.719-15 15 0 8.285 6.715 15 15 15h160.668c8.282 0 15-6.715 15-15 0-8.281-6.714-15-15-15zm0 0M432.734 144.602H272.066c-8.285 0-15 6.714-15 15 0 8.28 6.715 15 15 15h160.668c8.282 0 15-6.72 15-15 0-8.286-6.714-15-15-15zm0 0M352.398 208.867h-80.332c-8.285 0-15 6.715-15 15s6.715 15 15 15h80.332c8.286 0 15-6.715 15-15s-6.714-15-15-15zm0 0"/></symbol><symbol viewBox="0 0 511.989 511.989" id="icons--icon-treaty" xmlns="http://www.w3.org/2000/svg"><path d="M380.866 88.451L295.54 3.125c-2-2-4.719-3.125-7.547-3.125H10.671C4.765 0 0 4.766 0 10.656v490.661c0 5.891 4.766 10.672 10.671 10.672h362.648c5.906 0 10.672-4.781 10.672-10.672V95.997c0-2.828-1.125-5.546-3.125-7.546zm-82.201-52.03l48.904 48.905h-48.904V36.421zm63.998 454.224H21.327V21.327h255.994v74.67c0 5.891 4.781 10.656 10.672 10.656h74.67v383.992zM511.988 117.325c0-23.562-19.109-42.671-42.671-42.671s-42.655 19.109-42.655 42.671v287.994h13.218l-13.218 46.217 42.655 28.453 42.671-28.453-13.234-46.217h13.234V117.325zm-42.671 337.024l-17.875-11.922 10.625-37.107h14.5l10.625 37.107-17.875 11.922zm21.344-70.358h-42.672V117.325c0-11.765 9.578-21.328 21.328-21.328 11.766 0 21.344 9.562 21.344 21.328v266.666z"/><path d="M138.669 63.999h-.125c-46.999.062-85.217 38.312-85.217 85.326.001 47.045 38.281 85.326 85.342 85.326 47.046 0 85.326-38.28 85.326-85.326s-38.28-85.326-85.326-85.326zm-10.766 148.418a63.672 63.672 0 01-26.421-11.031l26.421-26.405v37.436zm0-67.608l-41.468 41.468a63.675 63.675 0 01-11.766-36.952c.001-31.625 23.047-57.952 53.234-63.093v58.577zm21.328 67.639V174.98l26.5 26.499c-7.75 5.5-16.75 9.344-26.5 10.969zm41.578-26.061l-41.577-41.577V86.201c30.28 5.063 53.436 31.437 53.436 63.124 0 13.796-4.406 26.593-11.859 37.062zM309.322 277.321H74.857c-5.89 0-10.671 4.781-10.671 10.672s4.781 10.656 10.671 10.656h234.464c5.906 0 10.672-4.766 10.672-10.656s-4.765-10.672-10.671-10.672zM309.322 341.319H74.857a10.666 10.666 0 00-10.671 10.672c0 5.891 4.781 10.656 10.671 10.656h234.464c5.906 0 10.672-4.766 10.672-10.656a10.656 10.656 0 00-10.671-10.672zM202.668 405.319H74.857c-5.89 0-10.671 4.764-10.671 10.67 0 5.891 4.781 10.656 10.671 10.656h127.81c5.875 0 10.656-4.766 10.656-10.656 0-5.906-4.78-10.67-10.655-10.67z"/></symbol><symbol fill="#57ac53" id="law-guidance" xml:space="preserve" viewBox="0 0 24 24" xmlns="http://www.w3.org/2000/svg"><style>.best0{fill:none}</style><path class="best0" d="M0 0h24v24H0V0z"/><path d="M12 2c-4.7 0-8.5 3.8-8.5 8.5S7.3 19 12 19h.5v3c4.9-2.3 8-7 8-11.5C20.5 5.8 16.7 2 12 2zm1 13.4h-2v-6h2v6zm0-8h-2v-2h2v2z"/></symbol><symbol fill="#57ac53" viewBox="0 0 24 24" id="legislation" xmlns="http://www.w3.org/2000/svg"><path d="M11.5 1L2 6v2h19V6m-5 4v7h3v-7M2 22h19v-3H2m8-9v7h3v-7m-9 0v7h3v-7H4z"/></symbol><symbol viewBox="0 0 128 128" id="legislation-justice" xmlns="http://www.w3.org/2000/svg"><path d="M119 5a9.01 9.01 0 00-8.768 7h-4.12a3.993 3.993 0 00-3.049-1.5H103a3.998 3.998 0 00-3.12 1.5H77.84a13.981 13.981 0 00-27.68 0H30.11a3.993 3.993 0 00-3.048-1.5H27a3.998 3.998 0 00-3.12 1.5h-6.112a9 9 0 100 4h4.398L2.255 69.096a3.99 3.99 0 00-.236 1.716C2.016 70.876 2 70.936 2 71a16.018 16.018 0 0016 16h16a16.018 16.018 0 0016-16c0-.064-.016-.124-.019-.188a3.99 3.99 0 00-.193-1.597L31.733 16h18.41a13.89 13.89 0 008.083 10.755L52.776 103H48a8.01 8.01 0 00-8 8v1h-.5a8.009 8.009 0 00-8 8v4a4 4 0 004 4h57a4 4 0 004-4v-4a8.009 8.009 0 00-8-8H88v-1a8.009 8.009 0 00-8-8h-4.776l-5.45-76.245A13.89 13.89 0 0077.857 16h20.309L78.255 69.096a3.99 3.99 0 00-.236 1.716c-.003.064-.019.124-.019.188a16.018 16.018 0 0016 16h16a16.018 16.018 0 0016-16c0-.064-.016-.124-.019-.188a3.99 3.99 0 00-.193-1.597L107.733 16h2.499A8.997 8.997 0 10119 5zM9 19a5 5 0 115-5 5 5 0 01-5 5zm25 64H18A12 12 0 016 71h40a12 12 0 01-12 12zm10.812-16h-37.5L27 14.5zM88.5 116a4 4 0 014 4v4h-57v-4a4 4 0 014-4h49zm-8.5-9a4 4 0 014 4v1H44v-1a4 4 0 014-4zm-9.753-17.525L71.214 103H56.786l.965-13.5H70a1.973 1.973 0 00.247-.025zm-4.69-65.608L69.963 85.5H58.037l4.406-61.633a10 10 0 113.114 0zM110 83H94a12 12 0 01-12-12h40a12 12 0 01-12 12zm10.812-16h-37.5L103 14.5zM119 19a5 5 0 115-5 5 5 0 01-5 5z"/></symbol><symbol viewBox="0 0 50 50" id="link-icon" xmlns="http://www.w3.org/2000/svg"><path d="M38.288 10.297l1.414 1.415-14.99 14.99-1.414-1.414z"/><path d="M40 20h-2v-8h-8v-2h10zM35 38H15c-1.7 0-3-1.3-3-3V15c0-1.7 1.3-3 3-3h11v2H15c-.6 0-1 .4-1 1v20c0 .6.4 1 1 1h20c.6 0 1-.4 1-1V24h2v11c0 1.7-1.3 3-3 3z"/></symbol><symbol viewBox="0 0 48 48" id="microsoft-excel" xmlns="http://www.w3.org/2000/svg"><path fill="#169154" d="M29 6H15.744C14.781 6 14 6.781 14 7.744v7.259h15V6z"/><path fill="#18482a" d="M14 33.054v7.202c0 .963.781 1.744 1.743 1.744H29v-8.946H14z"/><path fill="#0c8045" d="M14 15.003h15v9.002H14z"/><path fill="#17472a" d="M14 24.005h15v9.05H14z"/><path fill="#29c27f" d="M42.256 6H29v9.003h15V7.744C44 6.781 43.219 6 42.256 6z"/><path fill="#27663f" d="M29 33.054V42h13.257c.962 0 1.743-.781 1.743-1.743v-7.202H29z"/><path fill="#19ac65" d="M29 15.003h15v9.002H29z"/><path fill="#129652" d="M29 24.005h15v9.05H29z"/><path fill="#0c7238" d="M22.319 34H5.681A1.682 1.682 0 014 32.319V15.681C4 14.753 4.753 14 5.681 14h16.638c.928 0 1.681.753 1.681 1.681v16.638c0 .928-.753 1.681-1.681 1.681z"/><path fill="#fff" d="M9.807 19h2.386l1.936 3.754L16.175 19h2.229l-3.071 5 3.141 5h-2.351l-2.11-3.93L11.912 29H9.526l3.193-5.018z"/></symbol><symbol fill="#fff" viewBox="0 0 306 306" id="next" xmlns="http://www.w3.org/2000/svg"><path d="M94.35 0l-35.7 35.7L175.95 153 58.65 270.3l35.7 35.7 153-153z"/></symbol><symbol viewBox="0 0 111.706 113.952" id="next-meetings" xmlns="http://www.w3.org/2000/svg"><defs><clipPath id="bka" clipPathUnits="userSpaceOnUse"><path d="M0 85.464h83.779V0H0z"/></clipPath></defs><g clip-path="url(#bka)" transform="matrix(1.33333 0 0 -1.33333 0 113.952)"><path d="M63.898 32.834a9.244 9.244 0 01-1.867 2.825 8.36 8.36 0 01-2.752 1.863c-2.162.946-4.682.982-7.58-.388l.838 4.767h8.213c.988 0 1.742.204 2.27.656.544.463.817 1.055.817 1.796 0 1.145-.546 2.52-3.214 2.52h-9.45c-1.132 0-1.974-.263-2.498-.819-.525-.525-.86-1.318-1.029-2.442l-1.533-8.593c-.21-1.171-.21-1.245-.21-1.292 0-.636.294-1.228.817-1.723.526-.487 1.157-.744 1.828-.744.631 0 1.366.335 2.268 1.023.818.62 1.45 1.045 1.89 1.291.253.153.84.331 2.016.331.756 0 1.471-.194 2.078-.54.631-.368 1.137-.925 1.493-1.675.398-.772.566-1.696.566-2.767 0-1.013-.168-1.911-.525-2.704-.336-.761-.84-1.391-1.49-1.816-.608-.425-1.366-.646-2.206-.646a4.11 4.11 0 00-2.498.813c-.758.531-1.365 1.334-1.806 2.332-.547 1.302-1.45 1.969-2.604 1.969a2.247 2.247 0 01-1.723-.751c-.46-.484-.693-1.019-.693-1.586 0-.84.275-1.79.883-2.877.588-1.081 1.576-2.026 2.982-2.856 1.365-.824 3.192-1.249 5.397-1.249 1.996 0 3.738.446 5.271 1.312 1.531.861 2.71 2.048 3.506 3.539.8 1.459 1.22 3.134 1.22 4.935a9.254 9.254 0 01-.675 3.496m-23.393-8.479c-.566.436-1.386.646-2.373.646h-8.65c.145.199.293.389.44.551.65.788 1.888 1.922 3.654 3.371 1.806 1.465 3.107 2.573 3.863 3.25.8.72 1.576 1.701 2.332 2.966.777 1.25 1.176 2.683 1.176 4.232 0 .992-.21 1.958-.59 2.882a7.499 7.499 0 01-1.553 2.435 7.602 7.602 0 01-2.308 1.681c-1.346.598-2.983.892-4.873.892-1.555 0-2.94-.236-4.096-.714-1.176-.457-2.164-1.076-2.94-1.859-.777-.755-1.365-1.601-1.744-2.561-.377-.94-.566-1.859-.566-2.725 0-.782.232-1.433.693-1.901.461-.467 1.071-.692 1.764-.692.797 0 1.428.273 1.85.792.378.462.712 1.129 1.007 1.959.358 1.007.502 1.292.567 1.391.818 1.27 1.91 1.89 3.36 1.89a4.07 4.07 0 001.91-.468 3.304 3.304 0 001.324-1.26c.335-.54.503-1.17.503-1.848 0-.661-.168-1.333-.482-2.005-.316-.698-.82-1.402-1.449-2.058-.612-.672-1.406-1.365-2.352-2.042-.588-.368-1.49-1.15-2.814-2.363a97.918 97.918 0 01-4.305-4.263c-.422-.43-.818-1.034-1.137-1.774-.355-.772-.545-1.386-.545-1.885 0-.772.317-1.459.883-2.011.567-.572 1.365-.866 2.373-.866h13.21c.902 0 1.595.246 2.038.74.461.473.692 1.066.692 1.754 0 .782-.274 1.407-.862 1.863m39.946 39.733V6.581c-.91-4.722-8.584-3.209-12.145-3.209H7.481c-5.005 0-4.153 4.876-4.153 8.415V68.822c0 4.575 9.262 3.104 11.461 3.104h4.73v-9.2c0-2.096 3.25-2.096 3.25 0v9.2H40.7v-9.2c0-2.096 3.25-2.096 3.25 0v9.2h17.932v-9.2c0-2.096 3.25-2.096 3.25 0v9.2h10.872c4.834 0 4.446-4.463 4.446-7.838m1.414 9.251c-2.06 2.667-7.449 1.837-10.363 1.837h-6.369v8.716c0 2.096-3.25 2.096-3.25 0v-8.716H43.951v8.716c0 2.096-3.25 2.096-3.25 0v-8.716H22.768v8.716c0 2.096-3.25 2.096-3.25 0v-8.716H9.241c-4.185 0-9.163-.84-9.163-6.271V13.022c0-3.871-.657-7.836 1.836-11.063C3.974-.707 9.372.122 12.276.122h61.822c4.358 0 8.81.419 9.542 5.827.035.137.061.282.061.444V62.276c0 3.871.656 7.836-1.836 11.063"/></g></symbol><symbol fill="#57ac53" viewBox="0 0 24 24" id="outlined_flag-24px" xmlns="http://www.w3.org/2000/svg"><path d="M0 0h24v24H0z" fill="none"/><path d="M14 6l-1-2H5v17h2v-7h5l1 2h7V6h-6zm4 8h-4l-1-2H7V6h5l1 2h5v6z"/></symbol><symbol fill="#57ac53" viewBox="0 0 24 24" id="partner-tools" xmlns="http://www.w3.org/2000/svg"><path d="M19 17h-8v-1c0-1.33 2.67-2 4-2s4 .67 4 2m-4-7c1.1 0 2 .9 2 2s-.9 2-2 2-2-.9-2-2a2 2 0 012-2m5-3h-8l-2-2H4c-1.11 0-2 .89-2 2v12c0 1.1.9 2 2 2h16c1.1 0 2-.9 2-2V8a2 2 0 00-2-2z"/></symbol><symbol viewBox="0 0 108.421 101.755" id="past-meetings" xmlns="http://www.w3.org/2000/svg"><defs><clipPath id="bna" clipPathUnits="userSpaceOnUse"><path d="M0 76.316h81.315V0H0z"/></clipPath></defs><g clip-path="url(#bna)" transform="matrix(1.33333 0 0 -1.33333 0 101.755)"><path d="M27.644 50.12c-.643 0-1.163.52-1.163 1.163V75.15c0 .643.52 1.166 1.163 1.166h31.422c.308 0 .605-.123.823-.342l13.874-13.876a1.16 1.16 0 00.342-.823v-9.917a1.164 1.164 0 10-2.328 0v9.436L58.583 73.987H28.808V51.283c0-.643-.521-1.164-1.164-1.164"/><path d="M60.23 62.44h9.9l-9.9 9.9zm12.71-2.328H59.066c-.645 0-1.165.52-1.165 1.163v13.876a1.164 1.164 0 001.987.823l13.875-13.877a1.165 1.165 0 00-.823-1.986M10.196 0c-3.69 0-6.872 2.998-7.093 6.683L.011 58.377c-.109 1.837.515 3.576 1.756 4.896 1.242 1.32 2.941 2.046 4.783 2.046h20.93v-4.328H6.55a2.208 2.208 0 01-1.63-.684 2.214 2.214 0 01-.588-1.671L7.423 6.94c.084-1.391 1.38-2.612 2.773-2.612h60.062c1.431 0 2.805 1.25 2.941 2.675l.91 9.602c.012.14.047.256.075.337l2.79 29.909c.06.62-.119 1.193-.502 1.616-.383.42-.937.652-1.558.652h-48.42c-.195 0-.387.026-.572.077a.883.883 0 01-.51-.178c-.367-.254-1.59-1.421-2.038-5.865-.923-9.188-4.41-32.262-4.444-32.472a2.174 2.174 0 00-2.458-1.811 2.147 2.147 0 00-1.422.857 2.144 2.144 0 00-.396 1.608c.034.225 3.491 23.084 4.413 32.249.46 4.586 1.808 7.641 4.005 9.077a5.14 5.14 0 002.817.861c.344 0 .633-.037.84-.075h48.185c1.854 0 3.544-.735 4.76-2.069 1.211-1.333 1.784-3.084 1.611-4.932l-2.86-30.676a1.429 1.429 0 00-.083-.353l-.835-8.822C77.162 2.958 73.91 0 70.258 0z"/><path d="M78.934 50.705c-1.022 1.123-2.45 1.742-4.02 1.742H26.63c-.492.106-1.708.23-3.011-.623-1.931-1.263-3.128-4.068-3.557-8.34-.923-9.174-4.385-32.07-4.42-32.3a1.162 1.162 0 112.3-.348c.036.23 3.509 23.182 4.436 32.417.459 4.563 1.739 6.086 2.46 6.586.695.482 1.292.337 1.297.337.116-.038.236-.057.358-.057h48.42c.907 0 1.723-.349 2.299-.98.575-.633.844-1.479.758-2.38l-2.802-30.035c-.02-.072-.057-.136-.064-.213l-.91-9.602c-.184-1.94-1.988-3.58-3.937-3.58H10.197c-1.93 0-3.656 1.626-3.772 3.552L3.334 58.576c-.054.914.25 1.772.858 2.416.606.645 1.443 1 2.358 1h19.93v2.327H6.55c-1.561 0-3.003-.615-4.054-1.73-1.05-1.118-1.58-2.59-1.486-4.153L4.102 6.742C4.29 3.576 7.026 1 10.197 1h60.06c3.153 0 5.957 2.553 6.255 5.69l.848 8.95c.023.073.06.142.068.223l2.86 30.676c.148 1.563-.332 3.042-1.354 4.166"/></g></symbol><symbol class="bovideo-overlay-play-button" viewBox="0 0 200 200" id="play" xmlns="http://www.w3.org/2000/svg"><circle cx="100" cy="100" r="90" fill="none" stroke="#fff" stroke-width="5"/><path fill="#fff" d="M70 55v90l75-45z"/></symbol><symbol fill="#57ac53" viewBox="0 0 512 512" id="policy-briefs" xmlns="http://www.w3.org/2000/svg"><path d="M351 8.787V100h91.213zM286.875 192h-61.75c-11.688 20.403-31.424 34.318-54.125 38.603v71.995c0 54.256 33.971 101.385 85 118.66 51.029-17.275 85-64.404 85-118.66v-71.995c-22.701-4.285-42.437-18.201-54.125-38.603zm22.158 97.322l-56.568 56.568c-2.929 2.929-6.768 4.394-10.606 4.394s-7.678-1.464-10.606-4.394l-28.284-28.284c-5.858-5.858-5.858-15.355 0-21.213 5.857-5.858 15.355-5.858 21.213 0l17.678 17.677 45.962-45.961c5.857-5.858 15.355-5.858 21.213 0 5.856 5.858 5.856 15.355-.002 21.213z"/><path d="M336 130c-8.284 0-15-6.716-15-15V0H116C85.673 0 61 24.673 61 55v402c0 30.327 24.673 55 55 55h280c30.327 0 55-24.673 55-55V130zm35 172.597c0 33.654-10.619 65.715-30.708 92.716-20.089 27-47.747 46.384-79.982 56.054a14.991 14.991 0 01-8.62 0c-32.235-9.67-59.893-29.054-79.982-56.054C151.619 368.312 141 336.251 141 302.597V217c0-8.284 6.716-15 15-15 18.955 0 35.996-10.532 44.472-27.485l2.111-4.222A15 15 0 01216 162h80a15 15 0 0113.417 8.292l2.111 4.223C320.004 191.468 337.045 202 356 202c8.284 0 15 6.716 15 15z"/></symbol><symbol fill="#fff" viewBox="0 0 306 306" id="prev" xmlns="http://www.w3.org/2000/svg"><path d="M247.35 35.7L211.65 0l-153 153 153 153 35.7-35.7L130.05 153z"/></symbol><symbol fill="#57ac53" viewBox="0 0 24 24" id="reports" xmlns="http://www.w3.org/2000/svg"><path d="M6 2c-1.11 0-2 .89-2 2v16c0 1.1.9 2 2 2h4v-1.91L12.09 18H6v-2h8.09l2-2H6v-2h12.09L20 10.09V8l-6-6H6m7 1.5L18.5 9H13V3.5m7.15 9.5a.55.55 0 00-.4.16l-1.02 1.02 2.09 2.08 1.02-1.01c.21-.22.21-.58 0-.79l-1.3-1.3a.544.544 0 00-.39-.16m-2.01 1.77L12 20.92V23h2.08l6.15-6.15-2.09-2.08z"/></symbol><symbol viewBox="0 0 16 16" id="required" xmlns="http://www.w3.org/2000/svg"><path fill="#E00" d="M0 7.562l1.114-3.438c2.565.906 4.43 1.688 5.59 2.35-.306-2.921-.467-4.93-.484-6.027h3.511c-.05 1.597-.234 3.6-.558 6.003 1.664-.838 3.566-1.613 5.714-2.325L16 7.562c-2.05.678-4.06 1.131-6.028 1.356.984.856 2.372 2.381 4.166 4.575l-2.906 2.059c-.935-1.274-2.041-3.009-3.316-5.206-1.194 2.275-2.244 4.013-3.147 5.206l-2.856-2.059c1.872-2.307 3.211-3.832 4.017-4.575A86.77 86.77 0 010 7.562"/></symbol><symbol class="btsvg-inline--fa btfa-sliders-h btfa-w-16" viewBox="0 0 512 512" id="sliders-h-solid" xmlns="http://www.w3.org/2000/svg"><path fill="currentColor" d="M496 384H160v-16c0-8.8-7.2-16-16-16h-32c-8.8 0-16 7.2-16 16v16H16c-8.8 0-16 7.2-16 16v32c0 8.8 7.2 16 16 16h80v16c0 8.8 7.2 16 16 16h32c8.8 0 16-7.2 16-16v-16h336c8.8 0 16-7.2 16-16v-32c0-8.8-7.2-16-16-16zm0-160h-80v-16c0-8.8-7.2-16-16-16h-32c-8.8 0-16 7.2-16 16v16H16c-8.8 0-16 7.2-16 16v32c0 8.8 7.2 16 16 16h336v16c0 8.8 7.2 16 16 16h32c8.8 0 16-7.2 16-16v-16h80c8.8 0 16-7.2 16-16v-32c0-8.8-7.2-16-16-16zm0-160H288V48c0-8.8-7.2-16-16-16h-32c-8.8 0-16 7.2-16 16v16H16C7.2 64 0 71.2 0 80v32c0 8.8 7.2 16 16 16h208v16c0 8.8 7.2 16 16 16h32c8.8 0 16-7.2 16-16v-16h208c8.8 0 16-7.2 16-16V80c0-8.8-7.2-16-16-16z"/></symbol><symbol fill="#57ac53" viewBox="0 0 433.102 433.102" id="spanner" xmlns="http://www.w3.org/2000/svg"><path d="M429.902 56.782c0-1.024-1.024-2.048-1.536-2.048-1.024 0-2.048 0-2.56.512l-46.08 45.056-47.616-47.616 46.08-46.08c1.024-1.024 1.024-2.56 0-3.584-.512-.512-.512-.512-1.024-.512-34.816-7.68-70.656 2.56-96.768 26.624-24.576 24.576-18.432 53.248-14.336 72.192.512 2.56 1.024 5.632 1.536 7.68-16.384 17.408-140.288 141.824-158.72 159.232-2.048-.512-4.096-1.024-6.656-1.536-18.944-4.608-46.592-11.264-72.192 13.824-24.064 25.6-34.304 61.44-26.624 95.744.512 1.536 1.536 2.048 3.072 2.048.512 0 1.024-.512 1.024-.512l46.08-45.056 47.616 47.616-46.08 46.08c-1.024 1.024-1.024 2.56 0 3.584.512.512.512.512 1.024.512 7.168 1.536 14.848 2.56 22.528 2.56 27.648 0 54.272-10.24 74.24-29.696 24.576-24.576 18.432-53.248 14.336-72.192-.512-2.56-1.024-5.632-1.536-7.68 16.384-17.408 140.288-141.824 158.72-159.232l6.656 1.536c18.432 4.608 47.104 11.776 72.192-13.312 24.064-25.6 33.792-61.44 26.624-95.744z"/></symbol><symbol viewBox="0 0 85.102 88.107" id="tag" xmlns="http://www.w3.org/2000/svg"><path style="line-height:normal;font-variant-ligatures:normal;font-variant-position:normal;font-variant-caps:normal;font-variant-numeric:normal;font-variant-alternates:normal;font-feature-settings:normal;text-indent:0;text-align:start;text-decoration-line:none;text-decoration-style:solid;text-decoration-color:#000;text-transform:none;text-orientation:mixed;white-space:normal;shape-padding:0;isolation:auto;mix-blend-mode:normal;solid-color:#000;solid-opacity:1" d="M63.684 15.05l-17.674.012c-.91-.013-1.976-.033-3.174.374l-.219.076-.203.113a11.314 11.314 0 00-2.441 1.848l-.002.002-23.547 23.55-.012.014c-4.437 4.567-4.382 11.951.156 16.467L34.86 75.822l.002.002c4.569 4.554 12.035 4.55 16.614.002l.002-.004 23.285-23.314a11.952 11.952 0 001.812-2.309c-.007.01.22-.352.334-.68l-.035.094.125-.25.07-.283c.25-1.023.25-1.94.235-2.726V28.639c0-4.115-1.066-7.65-3.508-10.088-2.442-2.438-5.983-3.5-10.111-3.5zm0 5c3.3 0 5.32.783 6.58 2.04 1.26 1.257 2.039 3.265 2.039 6.549v17.81c.01.575-.024.946-.08 1.258a6.945 6.945 0 01-.979 1.246l-.004.006-23.29 23.32c-2.672 2.654-6.894 2.655-9.554.008l-.003-.004-18.295-18.32-.002-.002a6.687 6.687 0 01-.098-9.438L43.506 21.01c.335-.333.725-.602 1.125-.852.248-.059.591-.106 1.303-.095h.02z" font-weight="400" font-family="sans-serif" overflow="visible"/><path d="M54.768 36.971c.556.57 1.081 1.11-.031 0-1.063-1.087-.539-.547 0-.023-2.096-2.121-2.158-5.629-.106-7.842 2.143-2.282 5.892-2.375 8.127-.131 2.235 2.236 2.159 5.983-.154 8.135-2.162 2.059-5.708 1.982-7.836-.139z"/></symbol><symbol class="bwsvg-inline--fa bwfa-times bwfa-w-11" viewBox="0 0 352 512" id="times-solid" xmlns="http://www.w3.org/2000/svg"><path fill="currentColor" d="M242.72 256l100.07-100.07c12.28-12.28 12.28-32.19 0-44.48l-22.24-22.24c-12.28-12.28-32.19-12.28-44.48 0L176 189.28 75.93 89.21c-12.28-12.28-32.19-12.28-44.48 0L9.21 111.45c-12.28 12.28-12.28 32.19 0 44.48L109.28 256 9.21 356.07c-12.28 12.28-12.28 32.19 0 44.48l22.24 22.24c12.28 12.28 32.2 12.28 44.48 0L176 322.72l100.07 100.07c12.28 12.28 32.2 12.28 44.48 0l22.24-22.24c12.28-12.28 12.28-32.19 0-44.48L242.72 256z"/></symbol><symbol viewBox="0 0 85.102 88.107" id="treaty-tag-icon" xmlns="http://www.w3.org/2000/svg"><path fill="none" stroke="#58595B" stroke-width="5" stroke-miterlimit="10" d="M74.461 48.874c.013-.02.051-.076.089-.184.063-.152.089-.203.089-.203.164-.672.178-1.363.164-2.086V28.638c0-7.398-3.689-11.088-11.119-11.088l-17.712.013c-.862-.013-1.622 0-2.333.241a8.808 8.808 0 00-1.901 1.439L18.205 42.781c-3.499 3.601-3.461 9.382.127 12.952l18.295 18.32c3.614 3.602 9.459 3.602 13.085 0l23.291-23.322a9.455 9.455 0 001.458-1.857z"/><path fill="#58595B" d="M54.768 36.971c.556.57 1.081 1.11-.031 0-1.063-1.087-.539-.547 0-.023-2.096-2.121-2.158-5.629-.106-7.842 2.143-2.282 5.892-2.375 8.127-.131 2.235 2.236 2.159 5.983-.154 8.135-2.162 2.059-5.708 1.982-7.836-.139z"/></symbol><symbol viewBox="0 0 108.117 87.874" id="video" xmlns="http://www.w3.org/2000/svg"><defs><clipPath id="bya" clipPathUnits="userSpaceOnUse"><path d="M0 65.906h81.088V0H0z"/></clipPath><clipPath id="byb" clipPathUnits="userSpaceOnUse"><path d="M32.783 18.552l15.53 14.412-15.53 14.4z"/></clipPath></defs><g clip-path="url(#bya)" transform="matrix(1.33333 0 0 -1.33333 0 87.874)"><path d="M16.201 59.715c-5.532 0-10.024-4.497-10.024-10.018V16.213c0-5.514 4.492-10.023 10.024-10.023h48.664c5.53 0 10.026 4.509 10.026 10.023v33.484c0 5.52-4.496 10.018-10.026 10.018zM64.865 0H16.201C7.263 0 .001 7.287.001 16.213v33.484c0 8.914 7.262 16.209 16.2 16.209h48.664c8.951 0 16.223-7.295 16.223-16.21V16.214C81.088 7.287 73.816 0 64.865 0"/></g><g clip-path="url(#byb)" transform="matrix(1.33333 0 0 -1.33333 0 87.874)"><path d="M32.783 18.552l15.53 14.412-15.53 14.4z"/></g></symbol></svg>