<?xml version="1.0" encoding="UTF-8" standalone="no"?>
<svg
   xmlns:dc="http://purl.org/dc/elements/1.1/"
   xmlns:cc="http://creativecommons.org/ns#"
   xmlns:rdf="http://www.w3.org/1999/02/22-rdf-syntax-ns#"
   xmlns:svg="http://www.w3.org/2000/svg"
   xmlns="http://www.w3.org/2000/svg"
   viewBox="0 0 87.384132 95.278664"
   height="95.278664"
   width="87.384132"
   xml:space="preserve"
   id="svg2"
   version="1.1"><metadata
     id="metadata8"><rdf:RDF><cc:Work
         rdf:about=""><dc:format>image/svg+xml</dc:format><dc:type
           rdf:resource="http://purl.org/dc/dcmitype/StillImage" /></cc:Work></rdf:RDF></metadata><defs
     id="defs6"><clipPath
       id="clipPath18"
       clipPathUnits="userSpaceOnUse"><path
         id="path16"
         d="M 0,71.459 H 65.538 V 0 H 0 Z" /></clipPath></defs><g
     transform="matrix(1.3333333,0,0,-1.3333333,0,95.278667)"
     id="g10"><g
       id="g12"><g
         clip-path="url(#clipPath18)"
         id="g14"><g
           transform="translate(7.6133,31.4624)"
           id="g20"><path
             id="path22"
             style="fill:#404040;fill-opacity:1;fill-rule:nonzero;stroke:none"
             d="M 0,0 C 5.195,4.959 13.961,10.361 26.212,7.88 42.964,4.509 51.144,19.762 52.286,22.122 l 5.639,-3.574 C 56.798,16.459 54.304,12.34 50.303,8.544 45.117,3.576 36.363,-1.827 24.109,0.648 7.325,4.033 -0.844,-11.29 -1.975,-13.588 l -5.638,3.574 C -6.493,-7.917 -3.984,-3.813 0,0" /></g><g
           transform="translate(37.3369,67.8853)"
           id="g24"><path
             id="path26"
             style="fill:#404040;fill-opacity:1;fill-rule:nonzero;stroke:none"
             d="m 0,0 -5.638,3.574 c -1.417,-1.906 -4.061,-5.93 -5.805,-11.156 -1.501,-4.493 -2.508,-10.49 -0.866,-16.927 2.407,0.249 4.975,0.224 7.701,-0.157 C -9.564,-12.742 -1.458,-1.786 0,0" /></g><g
           transform="translate(28.2021,3.5737)"
           id="g28"><path
             id="path30"
             style="fill:#404040;fill-opacity:1;fill-rule:nonzero;stroke:none"
             d="m 0,0 5.638,-3.574 c 1.41,1.914 4.067,5.923 5.796,11.166 1.508,4.481 2.505,10.487 0.89,16.9 C 9.912,24.254 7.331,24.283 4.598,24.672 9.564,12.72 1.414,1.757 0,0" /></g><g
           transform="translate(64.5957,48.4233)"
           id="g32"><path
             id="path34"
             style="fill:#404040;fill-opacity:1;fill-rule:nonzero;stroke:none"
             d="m 0,0 c -0.552,-0.87 -2.273,-0.762 -3.823,0.22 l -28.266,17.916 c -1.567,0.994 -2.382,2.493 -1.83,3.363 0.544,0.856 2.246,0.76 3.815,-0.233 L -1.839,3.35 C -0.29,2.368 0.544,0.857 0,0" /></g><g
           transform="translate(34.875,1.5322)"
           id="g36"><path
             id="path38"
             style="fill:#404040;fill-opacity:1;fill-rule:nonzero;stroke:none"
             d="m 0,0 c 0.551,0.871 -0.285,2.375 -1.834,3.358 l -28.267,17.916 c -1.567,0.993 -3.267,1.095 -3.818,0.225 -0.547,-0.862 0.269,-2.359 1.836,-3.352 L -3.815,0.231 C -2.268,-0.751 -0.546,-0.862 0,0" /></g></g></g></g></svg>