<?xml version="1.0" encoding="UTF-8" standalone="no"?>
<svg
   xmlns:dc="http://purl.org/dc/elements/1.1/"
   xmlns:cc="http://creativecommons.org/ns#"
   xmlns:rdf="http://www.w3.org/1999/02/22-rdf-syntax-ns#"
   xmlns:svg="http://www.w3.org/2000/svg"
   xmlns="http://www.w3.org/2000/svg"
   viewBox="0 0 78.937469 78.972664"
   height="78.972664"
   width="78.937469"
   xml:space="preserve"
   id="svg2"
   version="1.1"><metadata
     id="metadata8"><rdf:RDF><cc:Work
         rdf:about=""><dc:format>image/svg+xml</dc:format><dc:type
           rdf:resource="http://purl.org/dc/dcmitype/StillImage" /></cc:Work></rdf:RDF></metadata><defs
     id="defs6"><clipPath
       id="clipPath18"
       clipPathUnits="userSpaceOnUse"><path
         id="path16"
         d="M 0,59.229 H 59.203 V 0 H 0 Z" /></clipPath></defs><g
     transform="matrix(1.3333333,0,0,-1.3333333,0,78.972667)"
     id="g10"><g
       id="g12"><g
         clip-path="url(#clipPath18)"
         id="g14"><g
           transform="translate(30.9863,18.1436)"
           id="g20"><path
             id="path22"
             style="fill:#404040;fill-opacity:1;fill-rule:nonzero;stroke:none"
             d="m 0,0 c 0.494,-0.481 0.114,-1.097 -0.875,-1.376 l -6.998,-1.895 c -0.964,-0.253 -1.534,0.317 -1.281,1.287 l 1.889,6.999 c 0.292,0.995 0.901,1.375 1.382,0.893 z" /></g><g
           transform="translate(37.5801,21.4531)"
           id="g24"><path
             id="path26"
             style="fill:#404040;fill-opacity:1;fill-rule:nonzero;stroke:none"
             d="m 0,0 13.122,13.104 2.765,2.839 -3.589,3.601 -1.902,1.915 L 6.732,25.098 3.918,22.282 -9.18,9.179 C -10.371,7.156 -10.105,4.456 -8.381,2.713 L -6.467,0.799 C -4.717,-0.945 -2.055,-1.211 0,0" /></g><g
           transform="translate(46.1377,48.5596)"
           id="g28"><path
             id="path30"
             style="fill:#404040;fill-opacity:1;fill-rule:nonzero;stroke:none"
             d="m 0,0 2.295,-2.358 4.717,-4.723 2.307,-2.39 2.777,2.764 c 1.293,1.3 1.293,3.398 0,4.698 L 7.354,2.714 c -1.281,1.299 -3.385,1.299 -4.666,0 z" /></g><g
           transform="translate(40.7246,13.0908)"
           id="g32"><path
             id="path34"
             style="fill:#404040;fill-opacity:1;fill-rule:nonzero;stroke:none"
             d="m 0,0 h -9.041 v -9.269 l -0.012,-0.037 h -3.043 -12.857 -7.582 c -2.51,0 -4.538,2.047 -4.538,4.533 v 42.6 c 0,1.211 0.469,2.34 1.318,3.195 0.862,0.856 2.003,1.338 3.22,1.338 h 28.021 c 1.203,0 2.332,-0.482 3.195,-1.338 C -0.457,40.167 0,39.038 0,37.827 v -2.725 l 0.976,0.963 c 0.278,0.298 0.608,0.52 0.951,0.691 0.177,0.495 0.469,0.926 0.837,1.312 l 0.861,0.875 c -0.139,1.896 -0.963,3.62 -2.244,4.888 -1.42,1.413 -3.36,2.308 -5.527,2.308 h -28.793 c -2.144,0 -4.096,-0.895 -5.504,-2.308 -1.42,-1.394 -2.282,-3.348 -2.282,-5.484 V -5.274 c 0,-4.311 3.487,-7.817 7.786,-7.817 h 7.822 13.16 3.144 c 0.837,0 1.624,0.368 2.219,0.945 l 9.344,9.344 c 0.559,0.532 0.863,1.3 0.9,2.073 0.026,0.115 0.026,0.228 0.026,0.355 H 3.65 V 9.928 L 0,6.302 Z" /></g><g
           transform="translate(9.2422,44.4199)"
           id="g36"><path
             id="path38"
             style="fill:#404040;fill-opacity:1;fill-rule:nonzero;stroke:none"
             d="m 0,0 h 25.903 c 1.015,0 1.865,0.831 1.865,1.857 0,1.022 -0.85,1.839 -1.865,1.839 L 0,3.696 C -1.027,3.696 -1.851,2.879 -1.851,1.857 -1.851,0.831 -1.027,0 0,0" /></g><g
           transform="translate(9.2422,40.7051)"
           id="g40"><path
             id="path42"
             style="fill:#404040;fill-opacity:1;fill-rule:nonzero;stroke:none"
             d="m 0,0 c -1.027,0 -1.851,-0.817 -1.851,-1.845 0,-1.02 0.824,-1.838 1.851,-1.838 H 20.312 L 24.014,0 Z" /></g><g
           transform="translate(25.8008,33.2314)"
           id="g44"><path
             id="path46"
             style="fill:#404040;fill-opacity:1;fill-rule:nonzero;stroke:none"
             d="m 0,0 0.063,0.089 h -16.622 c -1.027,0 -1.85,-0.85 -1.85,-1.852 0,-1.027 0.823,-1.857 1.85,-1.857 h 14.86 c 0.216,0.995 0.57,1.965 1.116,2.897 C -0.418,-0.463 -0.215,-0.222 0,0" /></g><g
           transform="translate(20.9824,25.9092)"
           id="g48"><path
             id="path50"
             style="fill:#404040;fill-opacity:1;fill-rule:nonzero;stroke:none"
             d="m 0,0 h -11.74 c -1.028,0 -1.851,-0.812 -1.851,-1.857 0,-0.983 0.823,-1.839 1.851,-1.839 h 10.396 l 0.521,1.94 C -0.646,-1.109 -0.367,-0.52 0,0" /></g><g
           transform="translate(18.2578,17.1416)"
           id="g52"><path
             id="path54"
             style="fill:#404040;fill-opacity:1;fill-rule:nonzero;stroke:none"
             d="m 0,0 0.38,1.376 h -9.396 c -1.027,0 -1.85,-0.837 -1.85,-1.863 0,-1.015 0.823,-1.833 1.85,-1.833 h 8.914 C -0.254,-1.597 -0.217,-0.792 0,0" /></g></g></g></g></svg>