<?xml version="1.0" standalone="no"?>
<!DOCTYPE svg PUBLIC "-//W3C//DTD SVG 20010904//EN"
 "http://www.w3.org/TR/2001/REC-SVG-20010904/DTD/svg10.dtd">
<svg version="1.0" xmlns="http://www.w3.org/2000/svg"
 width="10.000000pt" height="10.000000pt" viewBox="0 0 1280.000000 1280.000000"
 preserveAspectRatio="xMidYMid meet">
<metadata>
Created by potrace 1.15, written by Peter Selinger 2001-2017
</metadata>
<g transform="translate(0.000000,1280.000000) scale(0.100000,-0.100000)"
fill="#000000" stroke="none">
<path d="M6195 12490 c-1236 -64 -2427 -507 -3402 -1267 -402 -313 -803 -722
-1108 -1128 -606 -810 -1000 -1753 -1144 -2740 -48 -332 -55 -441 -55 -875 0
-434 7 -543 55 -875 114 -780 392 -1555 800 -2231 1187 -1967 3381 -3084 5669
-2888 1713 147 3275 1016 4308 2399 491 657 856 1446 1041 2250 148 645 188
1352 115 2005 -281 2516 -2094 4580 -4554 5185 -537 132 -1176 193 -1725 165z
m710 -2254 c648 -75 1251 -304 1772 -673 260 -184 572 -478 766 -722 442 -556
707 -1185 804 -1911 25 -189 25 -716 0 -905 -102 -758 -397 -1429 -876 -1995
-124 -145 -368 -383 -509 -495 -579 -459 -1236 -730 -1977 -815 -265 -30 -644
-22 -930 20 -1236 183 -2283 939 -2841 2053 -209 416 -338 869 -384 1347 -14
146 -14 520 0 675 68 746 352 1449 826 2042 100 125 338 370 473 486 611 526
1372 841 2191 906 154 13 524 5 685 -13z"/>
</g>
</svg>
