<?xml version="1.0" encoding="UTF-8" standalone="no"?>
<svg
   xmlns:dc="http://purl.org/dc/elements/1.1/"
   xmlns:cc="http://creativecommons.org/ns#"
   xmlns:rdf="http://www.w3.org/1999/02/22-rdf-syntax-ns#"
   xmlns:svg="http://www.w3.org/2000/svg"
   xmlns="http://www.w3.org/2000/svg"
   viewBox="0 0 110.53 110.52347"
   height="110.52347"
   width="110.53"
   xml:space="preserve"
   id="svg2"
   version="1.1"><metadata
     id="metadata8"><rdf:RDF><cc:Work
         rdf:about=""><dc:format>image/svg+xml</dc:format><dc:type
           rdf:resource="http://purl.org/dc/dcmitype/StillImage" /></cc:Work></rdf:RDF></metadata><defs
     id="defs6"><clipPath
       id="clipPath18"
       clipPathUnits="userSpaceOnUse"><path
         id="path16"
         d="M 0,82.893 H 82.897 V 0 H 0 Z" /></clipPath></defs><g
     transform="matrix(1.3333333,0,0,-1.3333333,0,110.52347)"
     id="g10"><g
       id="g12"><g
         clip-path="url(#clipPath18)"
         id="g14"><g
           transform="translate(39.4932,12.1699)"
           id="g20"><path
             id="path22"
             style="fill:#434861;fill-opacity:1;fill-rule:nonzero;stroke:none"
             d="m 0,0 h 0.132 c 1.542,-0.1 2.417,-1.68 3.435,-3.511 0.204,-0.367 0.475,-0.854 0.735,-1.27 0.193,0.445 0.398,0.975 0.545,1.357 0.757,1.952 1.415,3.639 2.926,3.941 0.136,0.029 0.285,0.051 0.427,0.051 1.34,0 2.482,-1.185 3.803,-2.549 0.287,-0.287 0.675,-0.697 1.029,-1.028 0.076,0.482 0.137,1.042 0.184,1.451 0.226,2.075 0.42,3.885 1.801,4.566 0.306,0.152 0.655,0.231 1.022,0.231 1.12,0 2.318,-0.718 3.708,-1.551 0.356,-0.208 0.837,-0.496 1.268,-0.732 -0.051,0.481 -0.137,1.041 -0.202,1.45 -0.316,2.068 -0.595,3.856 0.561,4.876 0.438,0.388 1.025,0.588 1.752,0.588 0.923,0 1.999,-0.308 3.162,-0.632 0.446,-0.128 0.962,-0.279 1.408,-0.386 -0.172,0.459 -0.401,0.968 -0.575,1.349 -0.847,1.918 -1.565,3.576 -0.717,4.855 0.763,1.14 2.297,1.234 3.805,1.234 0.315,0 0.633,0 0.948,-0.015 0.531,0 1.092,-0.006 1.466,0 -0.288,0.404 -0.647,0.834 -0.892,1.157 -1.321,1.63 -2.456,3.045 -1.966,4.503 0.488,1.464 2.255,1.91 4.279,2.412 0.403,0.101 0.949,0.244 1.408,0.38 -0.373,0.31 -0.819,0.64 -1.164,0.883 -1.68,1.236 -3.144,2.299 -3.044,3.843 0.087,1.544 1.666,2.419 3.503,3.439 0.359,0.201 0.849,0.474 1.264,0.733 -0.446,0.201 -0.961,0.395 -1.349,0.546 -1.953,0.76 -3.649,1.407 -3.95,2.929 -0.302,1.507 0.99,2.765 2.5,4.223 0.3,0.286 0.703,0.675 1.033,1.033 -0.488,0.073 -1.049,0.137 -1.451,0.18 -2.082,0.222 -3.877,0.423 -4.566,1.802 -0.69,1.379 0.245,2.93 1.322,4.732 0.215,0.352 0.502,0.841 0.732,1.272 -0.445,-0.05 -0.949,-0.13 -1.451,-0.201 -0.892,-0.144 -1.796,-0.289 -2.586,-0.289 -0.388,0 -1.549,0 -2.298,0.835 -1.023,1.163 -0.52,2.901 0.059,4.917 0.1,0.396 0.257,0.935 0.373,1.416 -0.458,-0.173 -0.967,-0.403 -1.339,-0.576 -1.286,-0.559 -2.5,-1.098 -3.529,-1.098 -0.514,0 -0.959,0.122 -1.337,0.381 -1.284,0.847 -1.256,2.657 -1.223,4.753 0.006,0.417 0.013,0.977 0,1.466 -0.391,-0.287 -0.831,-0.639 -1.15,-0.905 -1.382,-1.105 -2.571,-2.068 -3.802,-2.068 -0.244,0 -0.481,0.043 -0.707,0.115 C 9.831,57.576 9.393,59.336 8.88,61.368 8.781,61.771 8.643,62.315 8.501,62.775 8.196,62.402 7.866,61.941 7.622,61.612 6.423,59.975 5.386,58.553 3.909,58.553 L 3.776,58.56 c -1.539,0.092 -2.419,1.673 -3.439,3.512 -0.197,0.358 -0.471,0.846 -0.729,1.263 -0.196,-0.445 -0.398,-0.977 -0.545,-1.35 -0.761,-1.961 -1.416,-3.649 -2.926,-3.949 -0.136,-0.03 -0.284,-0.044 -0.427,-0.044 -1.34,0 -2.482,1.178 -3.799,2.543 -0.291,0.294 -0.679,0.696 -1.034,1.033 -0.079,-0.488 -0.138,-1.041 -0.184,-1.451 -0.226,-2.081 -0.419,-3.884 -1.8,-4.573 -0.311,-0.151 -0.652,-0.231 -1.021,-0.231 -1.121,0 -2.32,0.726 -3.713,1.552 -0.351,0.215 -0.833,0.503 -1.263,0.732 0.054,-0.48 0.136,-1.041 0.205,-1.442 0.315,-2.076 0.595,-3.864 -0.561,-4.884 -0.442,-0.387 -1.033,-0.589 -1.756,-0.589 -0.916,0 -2.007,0.31 -3.158,0.639 -0.45,0.13 -0.959,0.281 -1.408,0.38 0.176,-0.458 0.402,-0.968 0.567,-1.349 0.847,-1.91 1.579,-3.575 0.725,-4.854 -0.753,-1.135 -2.297,-1.236 -3.809,-1.236 -0.313,0 -0.633,0.008 -0.952,0.015 -0.523,0 -1.081,0.007 -1.458,0 0.284,-0.402 0.636,-0.832 0.898,-1.156 1.31,-1.63 2.445,-3.038 1.953,-4.503 -0.487,-1.464 -2.245,-1.91 -4.28,-2.412 -0.398,-0.101 -0.944,-0.237 -1.406,-0.374 0.376,-0.315 0.832,-0.646 1.162,-0.889 1.692,-1.236 3.153,-2.3 3.059,-3.843 -0.097,-1.543 -1.68,-2.419 -3.512,-3.439 -0.361,-0.202 -0.85,-0.474 -1.263,-0.733 0.442,-0.194 0.966,-0.395 1.35,-0.545 1.957,-0.762 3.644,-1.408 3.948,-2.923 0.307,-1.516 -0.994,-2.772 -2.498,-4.23 -0.297,-0.286 -0.699,-0.674 -1.033,-1.034 0.48,-0.071 1.037,-0.129 1.446,-0.178 2.085,-0.224 3.881,-0.426 4.573,-1.804 0.687,-1.378 -0.244,-2.928 -1.324,-4.731 -0.211,-0.352 -0.499,-0.834 -0.732,-1.265 0.445,0.052 0.952,0.122 1.447,0.202 0.891,0.137 1.806,0.279 2.582,0.279 0.387,0 1.562,0 2.302,-0.831 1.022,-1.164 0.522,-2.903 -0.052,-4.921 -0.11,-0.394 -0.268,-0.932 -0.381,-1.406 0.453,0.172 0.966,0.395 1.348,0.566 1.285,0.561 2.495,1.106 3.525,1.106 0.506,0 0.959,-0.128 1.332,-0.387 1.289,-0.847 1.26,-2.657 1.225,-4.754 -0.008,-0.416 -0.014,-0.976 0,-1.465 0.391,0.288 0.832,0.646 1.148,0.906 1.383,1.105 2.575,2.067 3.803,2.067 0.245,0 0.481,-0.042 0.707,-0.115 1.462,-0.488 1.9,-2.24 2.409,-4.279 0.105,-0.402 0.238,-0.948 0.376,-1.408 0.31,0.373 0.639,0.833 0.881,1.163 C -2.514,-1.422 -1.476,0 0,0 m 4.65,-12.17 c -1.772,0 -2.772,1.793 -3.921,3.862 -0.275,0.495 -0.675,1.22 -1.005,1.707 -0.391,-0.448 -0.879,-1.117 -1.213,-1.573 -1.323,-1.793 -2.458,-3.351 -4.081,-3.351 -0.148,0 -0.3,0 -0.446,0.031 -1.833,0.362 -2.372,2.518 -2.946,4.784 -0.134,0.55 -0.334,1.352 -0.527,1.918 -0.49,-0.338 -1.132,-0.858 -1.576,-1.211 -1.514,-1.22 -2.825,-2.274 -4.177,-2.274 -0.374,0 -0.733,0.087 -1.054,0.245 -1.677,0.818 -1.641,3.036 -1.604,5.371 0.01,0.559 0.022,1.393 -0.017,1.984 -0.562,-0.198 -1.317,-0.528 -1.837,-0.756 -1.408,-0.622 -2.741,-1.203 -3.866,-1.203 -0.846,0 -1.397,0.323 -1.71,0.597 -1.409,1.227 -0.804,3.351 -0.158,5.602 0.153,0.55 0.382,1.337 0.5,1.927 -0.563,-0.041 -1.276,-0.15 -1.971,-0.261 -0.971,-0.141 -1.982,-0.298 -2.832,-0.298 h -0.007 c -0.492,0 -1.932,0 -2.706,1.155 -1.047,1.552 0.095,3.455 1.294,5.461 0.29,0.487 0.715,1.186 0.979,1.722 -0.585,0.118 -1.402,0.205 -1.967,0.267 -2.327,0.252 -4.531,0.488 -5.136,2.266 -0.606,1.762 0.986,3.304 2.666,4.932 0.409,0.393 0.999,0.968 1.393,1.416 -0.539,0.26 -1.302,0.558 -1.829,0.763 -2.188,0.848 -4.252,1.643 -4.383,3.507 -0.123,1.872 1.806,2.943 3.855,4.083 0.497,0.275 1.22,0.669 1.713,1.008 -0.453,0.385 -1.113,0.872 -1.574,1.203 -1.888,1.392 -3.674,2.698 -3.32,4.531 0.358,1.84 2.505,2.375 4.779,2.941 0.551,0.142 1.348,0.346 1.915,0.535 -0.334,0.489 -0.85,1.133 -1.204,1.574 -1.471,1.825 -2.859,3.555 -2.036,5.231 0.79,1.612 2.926,1.612 4.338,1.612 0.337,0 0.691,0 1.038,-0.009 0.33,-0.006 0.665,-0.006 0.988,-0.006 0.432,0 0.759,0.006 0.998,0.023 -0.196,0.566 -0.527,1.313 -0.76,1.833 -0.943,2.147 -1.836,4.168 -0.605,5.584 0.496,0.567 1.215,0.866 2.135,0.866 1.011,0 2.207,-0.346 3.474,-0.708 0.625,-0.18 1.357,-0.393 1.918,-0.495 -0.043,0.589 -0.164,1.407 -0.255,1.965 -0.357,2.321 -0.7,4.509 0.854,5.546 0.392,0.268 0.873,0.409 1.383,0.409 1.232,0 2.55,-0.787 4.075,-1.706 0.488,-0.291 1.193,-0.716 1.726,-0.976 0.114,0.591 0.207,1.401 0.264,1.959 0.252,2.337 0.491,4.531 2.262,5.145 0.242,0.078 0.501,0.125 0.764,0.125 1.47,0 2.721,-1.29 4.172,-2.792 0.398,-0.409 0.968,-0.999 1.415,-1.392 0.261,0.534 0.56,1.305 0.764,1.824 0.846,2.188 1.647,4.256 3.513,4.39 h 0.156 c 1.779,0 2.772,-1.794 3.922,-3.862 0.279,-0.497 0.676,-1.22 1.007,-1.707 0.393,0.448 0.876,1.117 1.212,1.573 1.321,1.801 2.456,3.358 4.081,3.358 0.15,0 0.3,-0.007 0.445,-0.039 1.832,-0.361 2.373,-2.509 2.943,-4.782 0.137,-0.551 0.338,-1.353 0.527,-1.921 0.496,0.348 1.136,0.86 1.577,1.212 1.517,1.228 2.827,2.274 4.176,2.274 0.377,0 0.732,-0.086 1.059,-0.237 1.675,-0.825 1.643,-3.036 1.605,-5.379 -0.009,-0.566 -0.026,-1.392 0.015,-1.983 0.566,0.197 1.321,0.527 1.832,0.756 1.417,0.621 2.75,1.211 3.882,1.211 0.834,0 1.384,-0.322 1.698,-0.598 1.418,-1.227 0.804,-3.36 0.158,-5.608 -0.158,-0.551 -0.376,-1.338 -0.488,-1.92 0.552,0.032 1.276,0.142 1.968,0.253 0.96,0.148 1.966,0.298 2.832,0.298 0.472,0 1.935,0 2.705,-1.156 1.038,-1.55 -0.094,-3.453 -1.29,-5.452 -0.299,-0.487 -0.725,-1.196 -0.976,-1.73 0.582,-0.111 1.402,-0.203 1.951,-0.268 2.344,-0.252 4.547,-0.487 5.145,-2.265 0.613,-1.762 -0.976,-3.304 -2.658,-4.924 -0.41,-0.402 -1.009,-0.975 -1.4,-1.416 0.534,-0.267 1.305,-0.566 1.825,-0.771 2.202,-0.842 4.262,-1.643 4.387,-3.509 0.127,-1.872 -1.807,-2.941 -3.853,-4.074 -0.504,-0.283 -1.21,-0.676 -1.715,-1.015 0.456,-0.385 1.116,-0.873 1.573,-1.203 1.889,-1.384 3.682,-2.691 3.32,-4.531 -0.361,-1.833 -2.501,-2.376 -4.783,-2.942 -0.55,-0.142 -1.337,-0.338 -1.904,-0.534 0.331,-0.489 0.851,-1.134 1.195,-1.574 1.464,-1.825 2.865,-3.555 2.03,-5.231 -0.786,-1.613 -2.908,-1.613 -4.326,-1.613 -0.346,0 -0.693,0 -1.039,0.009 -0.329,0.008 -0.66,0.008 -0.991,0.008 -0.424,0 -0.754,-0.008 -0.991,-0.024 0.19,-0.566 0.52,-1.314 0.756,-1.833 0.944,-2.148 1.842,-4.169 0.614,-5.585 -0.504,-0.567 -1.228,-0.857 -2.14,-0.857 -1.024,0 -2.219,0.337 -3.477,0.7 -0.63,0.18 -1.353,0.393 -1.923,0.504 0.05,-0.599 0.177,-1.418 0.255,-1.967 0.363,-2.32 0.692,-4.508 -0.853,-5.555 -0.393,-0.267 -0.873,-0.408 -1.383,-0.408 -1.228,0 -2.554,0.794 -4.08,1.714 -0.484,0.284 -1.188,0.709 -1.723,0.968 -0.113,-0.581 -0.2,-1.399 -0.267,-1.959 -0.253,-2.337 -0.492,-4.53 -2.258,-5.144 -0.244,-0.079 -0.499,-0.126 -0.758,-0.126 -1.476,0 -2.727,1.298 -4.182,2.801 -0.39,0.401 -0.959,0.991 -1.411,1.385 C 8.824,-6.491 8.524,-7.253 8.321,-7.781 7.472,-9.967 6.673,-12.028 4.809,-12.162 L 4.655,-12.17 Z" /></g><g
           transform="translate(41.4502,23.3896)"
           id="g24"><path
             id="path26"
             style="fill:#7f7887;fill-opacity:1;fill-rule:nonzero;stroke:none"
             d="m 0,0 c -9.973,0 -18.061,8.081 -18.061,18.062 0,9.97 8.088,18.051 18.061,18.051 9.97,0 18.054,-8.081 18.054,-18.051 C 18.054,8.081 9.97,0 0,0 m 21.525,16.714 c 0.071,1.138 1.232,1.782 2.569,2.533 0.269,0.147 0.634,0.346 0.939,0.527 -0.329,0.153 -0.717,0.299 -0.998,0.411 -1.431,0.557 -2.675,1.039 -2.896,2.147 -0.224,1.114 0.727,2.041 1.829,3.108 0.222,0.211 0.515,0.504 0.761,0.762 -0.35,0.053 -0.761,0.1 -1.066,0.13 -1.524,0.164 -2.85,0.316 -3.354,1.325 -0.504,1.02 0.175,2.158 0.973,3.483 0.153,0.258 0.364,0.611 0.529,0.927 -0.318,-0.035 -0.693,-0.094 -1.057,-0.153 -0.656,-0.093 -1.325,-0.199 -1.9,-0.199 -0.285,0 -1.146,0 -1.686,0.61 -0.756,0.856 -0.388,2.134 0.035,3.612 0.083,0.293 0.193,0.692 0.276,1.039 -0.334,-0.129 -0.709,-0.3 -0.986,-0.416 -0.945,-0.417 -1.835,-0.81 -2.592,-0.81 -0.375,0 -0.704,0.094 -0.982,0.281 -0.943,0.622 -0.923,1.953 -0.899,3.495 0.008,0.3 0.011,0.716 0.002,1.067 C 10.733,40.382 10.409,40.124 10.175,39.937 9.157,39.122 8.283,38.418 7.38,38.418 7.201,38.418 7.025,38.447 6.864,38.5 5.788,38.858 5.462,40.147 5.09,41.649 5.015,41.937 4.917,42.342 4.812,42.681 4.589,42.399 4.346,42.071 4.164,41.825 3.281,40.617 2.519,39.573 1.434,39.573 L 1.337,39.58 c -1.132,0.069 -1.779,1.237 -2.527,2.574 -0.147,0.27 -0.346,0.633 -0.534,0.932 -0.147,-0.322 -0.297,-0.71 -0.405,-0.991 -0.557,-1.443 -1.038,-2.674 -2.149,-2.903 -0.103,-0.018 -0.208,-0.028 -0.317,-0.028 -0.982,0 -1.822,0.866 -2.792,1.863 -0.211,0.218 -0.499,0.517 -0.759,0.763 -0.056,-0.352 -0.099,-0.763 -0.132,-1.067 -0.164,-1.525 -0.311,-2.851 -1.323,-3.355 -0.228,-0.118 -0.48,-0.17 -0.752,-0.17 -0.825,0 -1.708,0.523 -2.727,1.138 -0.262,0.158 -0.613,0.37 -0.931,0.534 0.041,-0.352 0.103,-0.763 0.151,-1.057 0.234,-1.524 0.439,-2.837 -0.414,-3.588 -0.323,-0.293 -0.757,-0.434 -1.29,-0.434 -0.671,0 -1.472,0.229 -2.32,0.469 -0.332,0.094 -0.707,0.199 -1.035,0.282 0.126,-0.335 0.293,-0.716 0.417,-0.998 0.624,-1.406 1.157,-2.627 0.53,-3.565 -0.55,-0.839 -1.685,-0.903 -2.8,-0.903 h -0.696 c -0.386,0.011 -0.795,0.011 -1.076,0.006 0.212,-0.288 0.473,-0.617 0.663,-0.851 0.965,-1.196 1.798,-2.233 1.438,-3.307 -0.362,-1.078 -1.655,-1.402 -3.147,-1.772 -0.294,-0.081 -0.692,-0.174 -1.038,-0.28 0.281,-0.223 0.613,-0.47 0.859,-0.646 1.244,-0.915 2.316,-1.701 2.247,-2.826 -0.072,-1.138 -1.235,-1.784 -2.581,-2.534 -0.264,-0.14 -0.628,-0.341 -0.929,-0.528 0.325,-0.152 0.713,-0.298 0.996,-0.411 1.433,-0.551 2.676,-1.031 2.899,-2.146 0.225,-1.114 -0.732,-2.04 -1.837,-3.108 -0.217,-0.211 -0.513,-0.492 -0.759,-0.762 0.351,-0.053 0.765,-0.095 1.063,-0.129 1.532,-0.164 2.854,-0.31 3.36,-1.325 0.506,-1.021 -0.177,-2.159 -0.97,-3.478 -0.155,-0.264 -0.369,-0.616 -0.539,-0.933 0.328,0.036 0.701,0.094 1.064,0.153 0.651,0.099 1.327,0.199 1.898,0.199 0.285,0 1.147,0 1.692,-0.61 0.75,-0.856 0.385,-2.134 -0.042,-3.612 -0.078,-0.293 -0.193,-0.693 -0.274,-1.032 0.334,0.128 0.709,0.293 0.987,0.41 0.944,0.423 1.836,0.809 2.589,0.809 0.376,0 0.704,-0.093 0.982,-0.275 0.944,-0.628 0.924,-1.953 0.898,-3.495 -0.003,-0.306 -0.012,-0.716 0,-1.074 0.29,0.211 0.613,0.47 0.846,0.657 1.016,0.821 1.893,1.525 2.795,1.525 0.18,0 0.352,-0.029 0.519,-0.082 1.077,-0.364 1.396,-1.654 1.772,-3.155 0.072,-0.287 0.176,-0.692 0.278,-1.032 0.226,0.281 0.47,0.61 0.648,0.856 0.883,1.207 1.646,2.252 2.73,2.252 h 0.096 c 1.133,-0.071 1.778,-1.232 2.528,-2.581 0.147,-0.27 0.346,-0.626 0.535,-0.932 0.145,0.328 0.296,0.71 0.404,0.992 0.557,1.441 1.035,2.679 2.145,2.908 0.103,0.011 0.211,0.023 0.318,0.023 0.984,0 1.826,-0.868 2.794,-1.864 0.212,-0.223 0.499,-0.517 0.76,-0.763 0.053,0.351 0.099,0.763 0.131,1.067 0.168,1.531 0.308,2.851 1.327,3.36 0.224,0.112 0.478,0.171 0.75,0.171 0.823,0 1.706,-0.528 2.726,-1.144 0.262,-0.158 0.613,-0.369 0.93,-0.534 -0.037,0.353 -0.103,0.764 -0.15,1.062 -0.234,1.519 -0.436,2.833 0.414,3.589 0.323,0.288 0.759,0.428 1.287,0.428 0.675,0 1.478,-0.223 2.32,-0.469 0.339,-0.094 0.715,-0.199 1.043,-0.281 -0.128,0.34 -0.293,0.715 -0.422,0.996 -0.621,1.409 -1.158,2.628 -0.527,3.567 0.55,0.838 1.688,0.908 2.802,0.908 0.223,0 0.458,-0.005 0.692,-0.005 0.388,-0.013 0.799,-0.013 1.068,0 -0.2,0.286 -0.471,0.609 -0.656,0.843 -0.963,1.197 -1.796,2.241 -1.432,3.308 0.352,1.08 1.642,1.402 3.144,1.777 0.293,0.077 0.692,0.17 1.032,0.275 -0.281,0.223 -0.609,0.469 -0.855,0.646 -1.245,0.914 -2.313,1.701 -2.242,2.827" /></g></g></g></g></svg>