<?xml version="1.0" encoding="UTF-8" standalone="no"?>
<svg
  xmlns:dc="http://purl.org/dc/elements/1.1/"
  xmlns:cc="http://creativecommons.org/ns#"
  xmlns:rdf="http://www.w3.org/1999/02/22-rdf-syntax-ns#"
  xmlns:svg="http://www.w3.org/2000/svg"
  xmlns="http://www.w3.org/2000/svg"
  xmlns:sodipodi="http://sodipodi.sourceforge.net/DTD/sodipodi-0.dtd"
  xmlns:inkscape="http://www.inkscape.org/namespaces/inkscape"
  data-name="Layer 1"
  id="Layer_1"
  viewBox="0 0 24 24"
  version="1.1"
  sodipodi:docname="if_icon_set_outlinder-12_2519681.svg"
  inkscape:version="0.92.2 5c3e80d, 2017-08-06">
  <metadata
    id="metadata14">
    <rdf:RDF>
      <cc:Work
        rdf:about="">
        <dc:format>image/svg+xml</dc:format>
        <dc:type
          rdf:resource="http://purl.org/dc/dcmitype/StillImage" />
      </cc:Work>
    </rdf:RDF>
  </metadata>
  <sodipodi:namedview
    pagecolor="#ffffff"
    bordercolor="#666666"
    borderopacity="1"
    objecttolerance="10"
    gridtolerance="10"
    guidetolerance="10"
    inkscape:pageopacity="0"
    inkscape:pageshadow="2"
    inkscape:window-width="1270"
    inkscape:window-height="732"
    id="namedview12"
    showgrid="false"
    inkscape:zoom="9.8333333"
    inkscape:cx="11.898305"
    inkscape:cy="12"
    inkscape:window-x="113"
    inkscape:window-y="94"
    inkscape:window-maximized="0"
    inkscape:current-layer="_Group_" />
  <defs
    id="defs4">
    <style
      id="style2">.cls-1{fill:none;stroke:#1d1d1b;stroke-linecap:round;stroke-linejoin:round;stroke-width:1px;}</style>
  </defs>
  <title
    id="title6" />
  <g
    data-name="&lt;Group&gt;"
    id="_Group_">
    <path
      style="color:#000000;font-style:normal;font-variant:normal;font-weight:normal;font-stretch:normal;font-size:medium;line-height:normal;font-family:sans-serif;font-variant-ligatures:normal;font-variant-position:normal;font-variant-caps:normal;font-variant-numeric:normal;font-variant-alternates:normal;font-feature-settings:normal;text-indent:0;text-align:start;text-decoration:none;text-decoration-line:none;text-decoration-style:solid;text-decoration-color:#000000;letter-spacing:normal;word-spacing:normal;text-transform:none;writing-mode:lr-tb;direction:ltr;text-orientation:mixed;dominant-baseline:auto;baseline-shift:baseline;text-anchor:start;white-space:normal;shape-padding:0;clip-rule:nonzero;display:inline;overflow:visible;visibility:visible;opacity:1;isolation:auto;mix-blend-mode:normal;color-interpolation:sRGB;color-interpolation-filters:linearRGB;solid-color:#000000;solid-opacity:1;vector-effect:none;fill:#1d1d1b;fill-opacity:1;fill-rule:nonzero;stroke:none;stroke-width:1px;stroke-linecap:round;stroke-linejoin:round;stroke-miterlimit:4;stroke-dasharray:none;stroke-dashoffset:0;stroke-opacity:1;color-rendering:auto;image-rendering:auto;shape-rendering:auto;text-rendering:auto;enable-background:accumulate"
      d="m 13.359375,9.7792969 a 1.0001,1.0001 0 0 0 -0.679687,1.7246091 c 1.009499,0.989103 1.009499,2.583163 0,3.572266 l -2.8613286,2.810547 a 1.0001,1.0001 0 0 0 -0.011719,0.01367 c -0.989103,1.009499 -2.5831625,1.009499 -3.5722656,0 a 1.0001,1.0001 0 0 0 -0.013672,-0.01563 c -1.0094991,-0.989103 -1.0094991,-2.58121 0,-3.570313 a 1.0001,1.0001 0 0 0 0.00586,-0.0078 L 7.0878906,13.447266 A 1.0001,1.0001 0 1 0 5.6738281,12.033203 l -0.8535156,0.851563 c -1.7894418,1.753287 -1.7904682,4.665458 -0.00586,6.421875 1.7547016,1.782866 4.6602289,1.782255 6.4140629,-0.002 l 2.851562,-2.800782 c 1.791862,-1.755658 1.791862,-4.672075 0,-6.427734 A 1.0001,1.0001 0 0 0 13.359375,9.7792969 Z"
      id="_Path_"
      inkscape:connector-curvature="0" />
    <path
      style="color:#000000;font-style:normal;font-variant:normal;font-weight:normal;font-stretch:normal;font-size:medium;line-height:normal;font-family:sans-serif;font-variant-ligatures:normal;font-variant-position:normal;font-variant-caps:normal;font-variant-numeric:normal;font-variant-alternates:normal;font-feature-settings:normal;text-indent:0;text-align:start;text-decoration:none;text-decoration-line:none;text-decoration-style:solid;text-decoration-color:#000000;letter-spacing:normal;word-spacing:normal;text-transform:none;writing-mode:lr-tb;direction:ltr;text-orientation:mixed;dominant-baseline:auto;baseline-shift:baseline;text-anchor:start;white-space:normal;shape-padding:0;clip-rule:nonzero;display:inline;overflow:visible;visibility:visible;opacity:1;isolation:auto;mix-blend-mode:normal;color-interpolation:sRGB;color-interpolation-filters:linearRGB;solid-color:#000000;solid-opacity:1;vector-effect:none;fill:#1d1d1b;fill-opacity:1;fill-rule:nonzero;stroke:none;stroke-width:1px;stroke-linecap:round;stroke-linejoin:round;stroke-miterlimit:4;stroke-dasharray:none;stroke-dashoffset:0;stroke-opacity:1;color-rendering:auto;image-rendering:auto;shape-rendering:auto;text-rendering:auto;enable-background:accumulate"
      d="m 16.310547,3.3554688 c -1.165073,-1e-7 -2.330011,0.4467928 -3.207031,1.3378906 l -0.002,0.00195 c -0.0017,0.00174 -0.0041,0.00216 -0.0059,0.00391 l -2.794922,2.796875 c -1.7918613,1.7556586 -1.7918613,4.6720752 0,6.4277342 a 1.0001,1.0001 0 1 0 1.398438,-1.427734 c -1.009499,-0.989103 -1.009499,-2.5831628 0,-3.5722659 a 1.0001,1.0001 0 0 0 0.0078,-0.00586 l 2.810547,-2.8105469 a 1.0001,1.0001 0 0 0 0.0059,-0.00781 c 0.989103,-1.0094991 2.583162,-1.0094991 3.572265,0 a 1.0001,1.0001 0 0 0 0.01367,0.015625 c 1.009499,0.989103 1.009499,2.5812094 0,3.5703125 a 1.0001,1.0001 0 0 0 -0.0059,0.00781 l -0.861328,0.8593746 a 1.0001,1.0001 0 1 0 1.414062,1.414063 l 0.853516,-0.851563 C 21.299207,9.3619466 21.300234,6.449776 19.515625,4.6933594 18.638604,3.8022616 17.47562,3.3554688 16.310547,3.3554688 Z"
      id="_Path_2"
      inkscape:connector-curvature="0" />
  </g>
</svg>
