<?xml version="1.0" encoding="UTF-8" standalone="no"?>
<svg
   xmlns:dc="http://purl.org/dc/elements/1.1/"
   xmlns:cc="http://creativecommons.org/ns#"
   xmlns:rdf="http://www.w3.org/1999/02/22-rdf-syntax-ns#"
   xmlns:svg="http://www.w3.org/2000/svg"
   xmlns="http://www.w3.org/2000/svg"
   viewBox="0 0 48.005199 75.279335"
   height="75.279335"
   width="48.005199"
   xml:space="preserve"
   id="svg2"
   version="1.1"><metadata
     id="metadata8"><rdf:RDF><cc:Work
         rdf:about=""><dc:format>image/svg+xml</dc:format><dc:type
           rdf:resource="http://purl.org/dc/dcmitype/StillImage" /></cc:Work></rdf:RDF></metadata><defs
     id="defs6"><clipPath
       id="clipPath18"
       clipPathUnits="userSpaceOnUse"><path
         id="path16"
         d="M 0,56.459 H 36.004 V 0 H 0 Z" /></clipPath></defs><g
     transform="matrix(1.3333333,0,0,-1.3333333,0,75.279333)"
     id="g10"><g
       id="g12"><g
         clip-path="url(#clipPath18)"
         id="g14"><g
           transform="translate(4.8896,54.1318)"
           id="g20"><path
             id="path22"
             style="fill-opacity:1;fill-rule:nonzero;stroke:none"
             d="m 0,0 c -1.412,0 -2.562,-1.149 -2.562,-2.561 v -46.683 c 0,-1.41 1.15,-2.56 2.562,-2.56 h 26.226 c 1.412,0 2.561,1.15 2.561,2.56 v 36.083 L 15.625,0 Z M 26.226,-54.132 H 0 c -2.695,0 -4.89,2.193 -4.89,4.888 v 46.683 c 0,2.696 2.195,4.888 4.89,4.888 h 16.107 c 0.309,0 0.605,-0.121 0.823,-0.341 l 13.842,-13.842 c 0.22,-0.218 0.342,-0.514 0.342,-0.824 v -36.564 c 0,-2.695 -2.192,-4.888 -4.888,-4.888" /></g><g
           transform="translate(22.1602,52.4854)"
           id="g24"><path
             id="path26"
             style="fill-opacity:1;fill-rule:nonzero;stroke:none"
             d="M 0,0 V -7.309 C 0,-8.72 1.15,-9.868 2.563,-9.868 H 9.871 Z M 12.68,-12.196 H 2.563 c -2.697,0 -4.89,2.192 -4.89,4.887 V 2.812 c 0,0.469 0.284,0.894 0.719,1.074 0.434,0.179 0.935,0.08 1.267,-0.253 L 13.502,-10.21 c 0.334,-0.332 0.434,-0.833 0.253,-1.269 -0.18,-0.434 -0.604,-0.717 -1.075,-0.717" /></g></g></g></g></svg>
