<svg fill="#000000" xmlns="http://www.w3.org/2000/svg" data-name="Layer 1" viewBox="0 0 128 128" x="0px" y="0px"><title>Miscellaneous 66 final</title><path d="M119,5a9.01026,9.01026,0,0,0-8.76825,7h-4.1203a3.99278,3.99278,0,0,0-3.0481-1.49951L102.99957,10.5A3.99824,3.99824,0,0,0,99.88092,12H77.84027a13.98138,13.98138,0,0,0-27.68054,0H30.11145a3.99278,3.99278,0,0,0-3.0481-1.49951L26.99957,10.5A3.99824,3.99824,0,0,0,23.88092,12H17.76825a9,9,0,1,0,0,4h4.39728L2.2547,69.09552a3.99065,3.99065,0,0,0-.23578,1.71661C2.01593,70.87573,2,70.93567,2,71A16.01814,16.01814,0,0,0,18,87H34A16.0181,16.0181,0,0,0,50,71c0-.06427-.01593-.12408-.01892-.18756a3.98963,3.98963,0,0,0-.19318-1.59766L31.73291,16H50.14276a13.88949,13.88949,0,0,0,8.08331,10.75549L52.77606,103H48a8.00909,8.00909,0,0,0-8,8v1h-.5a8.009,8.009,0,0,0-8,8v4a4,4,0,0,0,4,4h57a4,4,0,0,0,4-4v-4a8.009,8.009,0,0,0-8-8H88v-1a8.009,8.009,0,0,0-8-8H75.22394l-5.45-76.24451A13.88942,13.88942,0,0,0,77.85724,16H98.16553L78.2547,69.09552a3.99065,3.99065,0,0,0-.23578,1.71661C78.01593,70.87573,78,70.93567,78,71A16.01814,16.01814,0,0,0,94,87h16a16.0181,16.0181,0,0,0,16-16c0-.06427-.01593-.12408-.01892-.18756a3.98963,3.98963,0,0,0-.19318-1.59766L107.73291,16h2.49884A8.997,8.997,0,1,0,119,5ZM9,19a5,5,0,1,1,5-5A5,5,0,0,1,9,19ZM34,83H18A12,12,0,0,1,6,71H46A12,12,0,0,1,34,83ZM44.81249,67h-37.5L27,14.5ZM88.5,116a4,4,0,0,1,4,4v4h-57v-4a4,4,0,0,1,4-4h49ZM80,107a4,4,0,0,1,4,4v1H44v-1a4,4,0,0,1,4-4ZM70.24695,89.4751,71.21375,103H56.78625l.965-13.5H70A1.97315,1.97315,0,0,0,70.24695,89.4751Zm-4.6897-65.6084L69.96283,85.5H58.03717l4.40558-61.6333a10,10,0,1,1,3.1145,0ZM110,83H94A12,12,0,0,1,82,71h40A12,12,0,0,1,110,83Zm10.81249-16h-37.5L103,14.5ZM119,19a5,5,0,1,1,5-5A5,5,0,0,1,119,19Z"></path></svg>