<?xml version="1.0" encoding="UTF-8" standalone="no"?>
<svg
   xmlns:dc="http://purl.org/dc/elements/1.1/"
   xmlns:cc="http://creativecommons.org/ns#"
   xmlns:rdf="http://www.w3.org/1999/02/22-rdf-syntax-ns#"
   xmlns:svg="http://www.w3.org/2000/svg"
   xmlns="http://www.w3.org/2000/svg"
   viewBox="0 0 111.70573 113.95187"
   height="113.95187"
   width="111.70573"
   xml:space="preserve"
   id="svg2"
   version="1.1"><metadata
     id="metadata8"><rdf:RDF><cc:Work
         rdf:about=""><dc:format>image/svg+xml</dc:format><dc:type
           rdf:resource="http://purl.org/dc/dcmitype/StillImage" /></cc:Work></rdf:RDF></metadata><defs
     id="defs6"><clipPath
       id="clipPath18"
       clipPathUnits="userSpaceOnUse"><path
         id="path16"
         d="M 0,85.464 H 83.779 V 0 H 0 Z" /></clipPath></defs><g
     transform="matrix(1.3333333,0,0,-1.3333333,0,113.95187)"
     id="g10"><g
       id="g12"><g
         clip-path="url(#clipPath18)"
         id="g14"><g
           transform="translate(63.8984,32.834)"
           id="g20"><path
             id="path22"
             style="fill-opacity:1;fill-rule:nonzero;stroke:none"
             d="M 0,0 C -0.461,1.082 -1.09,2.021 -1.867,2.825 -2.646,3.618 -3.568,4.248 -4.619,4.688 -6.781,5.634 -9.301,5.67 -12.199,4.3 l 0.838,4.767 h 8.213 c 0.988,0 1.742,0.204 2.269,0.656 0.545,0.463 0.818,1.055 0.818,1.796 0,1.145 -0.546,2.52 -3.214,2.52 h -9.45 c -1.132,0 -1.974,-0.263 -2.498,-0.819 -0.525,-0.525 -0.861,-1.318 -1.029,-2.442 l -1.533,-8.593 c -0.211,-1.171 -0.211,-1.245 -0.211,-1.292 0,-0.636 0.295,-1.228 0.818,-1.723 0.526,-0.487 1.157,-0.744 1.828,-0.744 0.631,0 1.366,0.335 2.268,1.023 0.818,0.62 1.449,1.045 1.889,1.291 0.254,0.153 0.841,0.331 2.017,0.331 0.756,0 1.471,-0.194 2.078,-0.54 0.631,-0.368 1.137,-0.925 1.493,-1.675 0.398,-0.772 0.566,-1.696 0.566,-2.767 0,-1.013 -0.168,-1.911 -0.525,-2.704 -0.336,-0.761 -0.84,-1.391 -1.491,-1.816 -0.607,-0.425 -1.365,-0.646 -2.205,-0.646 -0.902,0 -1.763,0.263 -2.498,0.813 -0.758,0.531 -1.365,1.334 -1.806,2.332 -0.547,1.302 -1.45,1.969 -2.604,1.969 -0.693,0 -1.262,-0.253 -1.723,-0.751 -0.461,-0.484 -0.693,-1.019 -0.693,-1.586 0,-0.84 0.275,-1.79 0.883,-2.877 0.588,-1.081 1.576,-2.026 2.982,-2.856 1.365,-0.824 3.192,-1.249 5.397,-1.249 1.996,0 3.738,0.446 5.271,1.312 1.531,0.861 2.709,2.048 3.506,3.539 0.799,1.459 1.219,3.134 1.219,4.935 C 0.674,-2.257 0.441,-1.092 0,0 m -23.393,-8.479 c -0.566,0.436 -1.386,0.646 -2.373,0.646 h -8.65 c 0.145,0.199 0.293,0.389 0.439,0.551 0.651,0.788 1.889,1.922 3.655,3.371 1.806,1.465 3.107,2.573 3.863,3.25 0.799,0.72 1.576,1.701 2.332,2.966 0.777,1.25 1.176,2.683 1.176,4.232 0,0.992 -0.211,1.958 -0.59,2.882 -0.355,0.902 -0.881,1.732 -1.553,2.435 -0.672,0.709 -1.449,1.282 -2.308,1.681 -1.346,0.598 -2.983,0.892 -4.873,0.892 -1.555,0 -2.94,-0.236 -4.096,-0.714 -1.176,-0.457 -2.164,-1.076 -2.94,-1.859 -0.777,-0.755 -1.365,-1.601 -1.744,-2.561 -0.377,-0.94 -0.566,-1.859 -0.566,-2.725 0,-0.782 0.232,-1.433 0.693,-1.901 0.461,-0.467 1.071,-0.692 1.764,-0.692 0.797,0 1.428,0.273 1.85,0.792 0.378,0.462 0.712,1.129 1.007,1.959 0.358,1.007 0.502,1.292 0.567,1.391 0.818,1.27 1.91,1.89 3.359,1.89 0.694,0 1.322,-0.163 1.91,-0.468 0.547,-0.283 0.989,-0.703 1.325,-1.26 0.335,-0.54 0.503,-1.17 0.503,-1.848 0,-0.661 -0.168,-1.333 -0.482,-2.005 -0.316,-0.698 -0.82,-1.402 -1.449,-2.058 -0.612,-0.672 -1.406,-1.365 -2.352,-2.042 -0.588,-0.368 -1.49,-1.15 -2.814,-2.363 -1.262,-1.17 -2.731,-2.609 -4.305,-4.263 -0.422,-0.43 -0.818,-1.034 -1.137,-1.774 -0.355,-0.772 -0.545,-1.386 -0.545,-1.885 0,-0.772 0.317,-1.459 0.883,-2.011 0.567,-0.572 1.365,-0.866 2.373,-0.866 h 13.209 c 0.903,0 1.596,0.246 2.039,0.74 0.461,0.473 0.692,1.066 0.692,1.754 0,0.782 -0.274,1.407 -0.862,1.863 M 16.553,31.254 V 10.768 -26.253 c -0.911,-4.722 -8.584,-3.209 -12.145,-3.209 h -21.943 -38.882 c -5.005,0 -4.153,4.876 -4.153,8.415 v 20.893 36.142 c 0,4.575 9.262,3.104 11.461,3.104 h 4.729 v -9.2 c 0,-2.096 3.25,-2.096 3.25,0 v 9.2 h 13.659 4.274 v -9.2 c 0,-2.096 3.25,-2.096 3.25,0 v 9.2 h 17.932 v -9.2 c 0,-2.096 3.25,-2.096 3.25,0 v 9.2 h 10.872 c 4.834,0 4.446,-4.463 4.446,-7.838 m 1.414,9.251 c -2.061,2.667 -7.449,1.837 -10.363,1.837 H 1.235 v 8.716 c 0,2.096 -3.25,2.096 -3.25,0 v -8.716 h -10.627 -7.305 v 8.716 c 0,2.096 -3.25,2.096 -3.25,0 V 42.342 H -41.13 v 8.716 c 0,2.096 -3.25,2.096 -3.25,0 v -8.716 h -10.277 c -4.185,0 -9.163,-0.84 -9.163,-6.271 v -10.913 -44.97 c 0,-3.871 -0.657,-7.836 1.836,-11.063 2.06,-2.666 7.458,-1.837 10.362,-1.837 H -6.996 10.2 c 4.358,0 8.809,0.419 9.542,5.827 0.035,0.137 0.061,0.282 0.061,0.444 V 7.804 29.442 c 0,3.871 0.656,7.836 -1.836,11.063" /></g></g></g></g></svg>
