<?xml version="1.0" encoding="utf-8"?>
<!-- Generator: Adobe Illustrator 21.0.0, SVG Export Plug-In . SVG Version: 6.00 Build 0)  -->
<svg fill="#57ac53" version="1.1" id="Layer_1" xmlns="http://www.w3.org/2000/svg" xmlns:xlink="http://www.w3.org/1999/xlink" x="0px" y="0px"
	 width="24px" height="24px" viewBox="0 0 24 24" style="enable-background:new 0 0 24 24;" xml:space="preserve">
<path d="M19,17h-8v-1c0-1.33,2.67-2,4-2s4,0.67,4,2 M15,9c1.1,0,2,0.9,2,2s-0.9,2-2,2s-2-0.9-2-2C13,9.89,13.9,9,15,9 M20,6h-8l-2-2
	H4C2.89,4,2,4.89,2,6v12c0,1.1,0.9,2,2,2h16c1.1,0,2-0.9,2-2V8C22,6.89,21.1,6,20,6z"/>
</svg>
