<?xml version="1.0" encoding="UTF-8" standalone="no"?>
<svg
   xmlns:dc="http://purl.org/dc/elements/1.1/"
   xmlns:cc="http://creativecommons.org/ns#"
   xmlns:rdf="http://www.w3.org/1999/02/22-rdf-syntax-ns#"
   xmlns:svg="http://www.w3.org/2000/svg"
   xmlns="http://www.w3.org/2000/svg"
   viewBox="0 0 108.42053 101.7552"
   height="101.7552"
   width="108.42053"
   xml:space="preserve"
   id="svg2"
   version="1.1"><metadata
     id="metadata8"><rdf:RDF><cc:Work
         rdf:about=""><dc:format>image/svg+xml</dc:format><dc:type
           rdf:resource="http://purl.org/dc/dcmitype/StillImage" /></cc:Work></rdf:RDF></metadata><defs
     id="defs6"><clipPath
       id="clipPath18"
       clipPathUnits="userSpaceOnUse"><path
         id="path16"
         d="M 0,76.316 H 81.315 V 0 H 0 Z" /></clipPath></defs><g
     transform="matrix(1.3333333,0,0,-1.3333333,0,101.7552)"
     id="g10"><g
       id="g12"><g
         clip-path="url(#clipPath18)"
         id="g14"><g
           transform="translate(27.6436,50.1191)"
           id="g20"><path
             id="path22"
             style="fill-opacity:1;fill-rule:nonzero;stroke:none"
             d="m 0,0 c -0.643,0 -1.163,0.521 -1.163,1.164 v 23.867 c 0,0.643 0.52,1.166 1.163,1.166 h 31.422 c 0.308,0 0.605,-0.123 0.823,-0.342 L 46.119,11.979 c 0.219,-0.217 0.342,-0.514 0.342,-0.823 V 1.239 c 0,-0.643 -0.521,-1.164 -1.164,-1.164 -0.644,0 -1.164,0.521 -1.164,1.164 v 9.436 L 30.939,23.868 H 1.164 V 1.164 C 1.164,0.521 0.643,0 0,0" /></g><g
           transform="translate(60.2295,62.4395)"
           id="g24"><path
             id="path26"
             style="fill-opacity:1;fill-rule:nonzero;stroke:none"
             d="M 0,0 H 9.9 L 0,9.9 Z M 12.711,-2.328 H -1.164 c -0.644,0 -1.164,0.521 -1.164,1.164 v 13.875 c 0,0.472 0.284,0.896 0.718,1.076 0.434,0.18 0.936,0.081 1.269,-0.252 L 13.533,-0.342 c 0.333,-0.332 0.432,-0.832 0.253,-1.268 -0.181,-0.434 -0.604,-0.718 -1.075,-0.718" /></g><g
           transform="translate(10.1963)"
           id="g28"><path
             id="path30"
             style="fill-opacity:1;fill-rule:nonzero;stroke:none"
             d="m 0,0 c -3.69,0 -6.872,2.998 -7.093,6.683 l -3.092,51.694 c -0.109,1.837 0.515,3.576 1.756,4.896 1.242,1.32 2.941,2.046 4.783,2.046 h 20.93 v -4.328 h -20.93 c -0.636,0 -1.215,-0.243 -1.63,-0.684 -0.417,-0.443 -0.626,-1.036 -0.588,-1.671 L -2.773,6.94 C -2.689,5.549 -1.394,4.328 0,4.328 h 60.062 c 1.431,0 2.805,1.25 2.941,2.675 l 0.91,9.602 c 0.012,0.14 0.047,0.256 0.075,0.337 l 2.79,29.909 c 0.06,0.62 -0.119,1.193 -0.502,1.616 -0.383,0.42 -0.937,0.652 -1.558,0.652 H 16.297 c -0.194,0 -0.386,0.026 -0.571,0.077 C 15.607,49.195 15.43,49.168 15.215,49.018 14.849,48.764 13.625,47.597 13.178,43.153 12.255,33.965 8.767,10.891 8.734,10.681 8.577,9.638 7.658,8.847 6.598,8.847 6.492,8.847 6.385,8.854 6.276,8.87 5.7,8.957 5.196,9.261 4.854,9.727 4.511,10.193 4.37,10.764 4.458,11.335 c 0.034,0.225 3.491,23.084 4.413,32.249 0.46,4.586 1.808,7.641 4.005,9.077 0.861,0.564 1.835,0.861 2.817,0.861 0.344,0 0.633,-0.037 0.839,-0.075 h 48.186 c 1.854,0 3.544,-0.735 4.759,-2.069 1.212,-1.333 1.785,-3.084 1.612,-4.932 L 68.228,15.77 C 68.213,15.622 68.177,15.5 68.146,15.417 L 67.311,6.595 C 66.966,2.958 63.714,0 60.062,0 Z" /></g><g
           transform="translate(78.9336,50.7051)"
           id="g32"><path
             id="path34"
             style="fill-opacity:1;fill-rule:nonzero;stroke:none"
             d="m 0,0 c -1.022,1.123 -2.449,1.742 -4.02,1.742 h -25.685 -6.736 -15.862 c -0.492,0.106 -1.708,0.23 -3.011,-0.623 -1.931,-1.263 -3.128,-4.068 -3.557,-8.34 -0.923,-9.174 -4.385,-32.07 -4.42,-32.3 -0.098,-0.635 0.34,-1.229 0.976,-1.325 0.059,-0.008 0.118,-0.012 0.175,-0.012 0.566,0 1.062,0.413 1.149,0.989 0.036,0.23 3.509,23.182 4.436,32.417 0.459,4.563 1.739,6.086 2.461,6.586 0.694,0.482 1.291,0.337 1.296,0.337 0.116,-0.038 0.236,-0.057 0.358,-0.057 h 15.999 6.736 25.685 c 0.907,0 1.723,-0.349 2.299,-0.98 0.575,-0.633 0.844,-1.479 0.758,-2.381 l -2.802,-30.034 c -0.02,-0.072 -0.057,-0.136 -0.064,-0.213 l -0.91,-9.602 c -0.184,-1.94 -1.988,-3.581 -3.937,-3.581 h -60.061 c -1.929,0 -3.656,1.627 -3.772,3.553 L -75.6,7.871 c -0.054,0.914 0.25,1.772 0.858,2.416 0.606,0.645 1.443,0.999 2.358,0.999 h 19.931 v 2.328 h -19.931 c -1.561,0 -3.003,-0.615 -4.054,-1.731 -1.05,-1.117 -1.579,-2.59 -1.486,-4.152 l 3.092,-51.694 c 0.189,-3.166 2.924,-5.742 6.095,-5.742 h 60.061 c 3.152,0 5.956,2.553 6.254,5.689 l 0.848,8.95 c 0.023,0.074 0.06,0.143 0.068,0.224 L 1.355,-4.166 C 1.502,-2.603 1.022,-1.124 0,0" /></g></g></g></g></svg>
