<?xml version="1.0" encoding="utf-8"?>
<!-- Generator: Adobe Illustrator 21.0.0, SVG Export Plug-In . SVG Version: 6.00 Build 0)  -->
<svg fill="#57ac53" version="1.1" id="Layer_1" xmlns="http://www.w3.org/2000/svg" xmlns:xlink="http://www.w3.org/1999/xlink" x="0px" y="0px"
	 width="24px" height="24px" viewBox="0 0 24 24" style="enable-background:new 0 0 24 24;" xml:space="preserve">
<path d="M6,2C4.89,2,4,2.89,4,4v16c0,1.1,0.9,2,2,2h4v-1.91L12.09,18H6v-2h8.09l2-2H6v-2h12.09L20,10.09V8l-6-6H6 M13,3.5L18.5,9H13
	V3.5 M20.15,13c-0.15,0-0.29,0.05-0.4,0.16l-1.02,1.02l2.09,2.08l1.02-1.01c0.21-0.22,0.21-0.58,0-0.79l-1.3-1.3
	C20.43,13.05,20.29,13,20.15,13 M18.14,14.77L12,20.92V23h2.08l6.15-6.15L18.14,14.77z"/>
</svg>
