<svg xmlns="http://www.w3.org/2000/svg" width="85.102" height="88.107" viewBox="0 0 85.102 88.107"><path fill="none" stroke="#58595B" stroke-width="5" stroke-miterlimit="10" d="M74.461 48.874c.013-.02.051-.076.089-.184.063-.152.089-.203.089-.203.164-.672.178-1.363.164-2.086V28.638c0-7.398-3.689-11.088-11.119-11.088l-17.712.013c-.862-.013-1.622 0-2.333.241a8.808 8.808 0 0 0-1.901 1.439L18.205 42.781c-3.499 3.601-3.461 9.382.127 12.952l18.295 18.32c3.614 3.602 9.459 3.602 13.085 0l23.291-23.322a9.455 9.455 0 0 0 1.458-1.857z"/><path fill="#58595B" d="M54.768 36.971c.556.57 1.081 1.11-.031 0-1.063-1.087-.539-.547 0-.023-2.096-2.121-2.158-5.629-.106-7.842 2.143-2.282 5.892-2.375 8.127-.131 2.235 2.236 2.159 5.983-.154 8.135-2.162 2.059-5.708 1.982-7.836-.139z"/></svg>