<?xml version="1.0" encoding="UTF-8" standalone="no"?>
<svg
   xmlns:dc="http://purl.org/dc/elements/1.1/"
   xmlns:cc="http://creativecommons.org/ns#"
   xmlns:rdf="http://www.w3.org/1999/02/22-rdf-syntax-ns#"
   xmlns:svg="http://www.w3.org/2000/svg"
   xmlns="http://www.w3.org/2000/svg"
   viewBox="0 0 108.1172 87.874397"
   height="87.874397"
   width="108.1172"
   xml:space="preserve"
   id="svg2"
   version="1.1"><metadata
     id="metadata8"><rdf:RDF><cc:Work
         rdf:about=""><dc:format>image/svg+xml</dc:format><dc:type
           rdf:resource="http://purl.org/dc/dcmitype/StillImage" /></cc:Work></rdf:RDF></metadata><defs
     id="defs6"><clipPath
       id="clipPath18"
       clipPathUnits="userSpaceOnUse"><path
         id="path16"
         d="M 0,65.906 H 81.088 V 0 H 0 Z" /></clipPath><clipPath
       id="clipPath30"
       clipPathUnits="userSpaceOnUse"><path
         id="path28"
         d="m 32.783,18.552 15.53,14.412 -15.53,14.4 z" /></clipPath><linearGradient
       id="linearGradient44"
       spreadMethod="pad"
       gradientTransform="matrix(15.529297,0,0,-15.529297,32.783203,32.958008)"
       gradientUnits="userSpaceOnUse"
       y2="0"
       x2="1"
       y1="0"
       x1="0"><stop
         id="stop36"
         offset="0"
         style="stop-opacity:1;stop-color:#36a9e1" /><stop
         id="stop38"
         offset="0.011236"
         style="stop-opacity:1;stop-color:#36a9e1" /><stop
         id="stop40"
         offset="0.994382"
         style="stop-opacity:1;stop-color:#1d71b8" /><stop
         id="stop42"
         offset="1"
         style="stop-opacity:1;stop-color:#1d71b8" /></linearGradient></defs><g
     transform="matrix(1.3333333,0,0,-1.3333333,0,87.8744)"
     id="g10"><g
       id="g12"><g
         clip-path="url(#clipPath18)"
         id="g14"><g
           transform="translate(16.2012,59.7148)"
           id="g20"><path
             id="path22"
             style="fill-opacity:1;fill-rule:nonzero;stroke:none"
             d="m 0,0 c -5.532,0 -10.024,-4.497 -10.024,-10.018 v -33.484 c 0,-5.514 4.492,-10.023 10.024,-10.023 h 48.664 c 5.53,0 10.026,4.509 10.026,10.023 v 33.484 C 58.69,-4.497 54.194,0 48.664,0 Z M 48.664,-59.715 H 0 c -8.938,0 -16.201,7.287 -16.201,16.213 v 33.484 c 0,8.914 7.263,16.209 16.201,16.209 h 48.664 c 8.951,0 16.223,-7.295 16.223,-16.209 v -33.484 c 0,-8.926 -7.272,-16.213 -16.223,-16.213" /></g></g></g><g
       id="g24"><g
         clip-path="url(#clipPath30)"
         id="g26"><g
           id="g32"><g
             id="g34"><path
               id="path46"
               style="stroke:none"
               d="m 32.783,18.552 15.53,14.412 -15.53,14.4 z" /></g></g></g></g></g></svg>
